<?xml version="1.0" encoding="UTF-8"?> <svg xmlns="http://www.w3.org/2000/svg" width="192" height="212" viewBox="0 0 192 212" fill="none"><g clip-path="url(#clip0_276_5756)"><path opacity="0.3" d="M96.5096 212C142.385 212 179.574 190.601 179.574 164.205C179.574 137.808 142.385 116.41 96.5096 116.41C50.6345 116.41 13.4453 137.808 13.4453 164.205C13.4453 190.601 50.6345 212 96.5096 212Z" fill="#000028"></path><path opacity="0.4" d="M108.949 167.641C126.273 167.641 140.318 159.561 140.318 149.595C140.318 139.628 126.273 131.548 108.949 131.548C91.6244 131.548 77.5801 139.628 77.5801 149.595C77.5801 159.561 91.6244 167.641 108.949 167.641Z" fill="#000028"></path><path d="M98.5251 136.344C98.5251 136.344 97.8396 137.054 97.1337 137.893C96.4279 138.731 94.4326 139.895 93.5978 140.409C92.763 140.93 88.9285 143.825 88.1276 146.679C87.3268 149.534 90.0686 149.912 92.8716 149.412C95.6746 148.918 98.2943 146.341 99.0544 145.407C99.8146 144.474 102.468 142.364 105.909 140.591C109.35 138.819 107.267 136.432 107.267 136.432L98.5251 136.344Z" fill="url(#paint0_linear_276_5756)"></path><path d="M124.32 142.54C124.32 142.54 124.89 143.825 125.047 145.475C125.209 147.126 125.44 150.704 125.522 151.745C125.603 152.787 125.644 155.351 123.791 157.806C121.945 160.255 120.988 161.229 118.531 160.261C116.074 159.294 116.129 155.188 116.563 153.078C116.997 150.968 117.398 146.24 117.357 145.739C117.31 145.245 117.554 144.149 117.554 144.149L124.32 142.54Z" fill="url(#paint1_linear_276_5756)"></path><path d="M90.0469 87.879C90.0469 87.879 90.5627 106.717 94.9673 116.714C94.9673 116.714 98.1232 125.521 98.5372 135.999C98.5372 135.999 97.811 137.805 98.8426 139.266C99.8742 140.734 106.342 142.073 107.414 137.257C108.48 132.441 108.073 123.424 106.899 119.67C105.725 115.909 107.319 105.554 107.319 105.554C107.319 105.554 109.084 106.676 111.405 114.124C113.719 121.564 115.43 124.405 116.224 126.461C116.889 128.179 117.513 137.291 117.405 143.831C117.371 146.01 119.4 147.646 121.518 147.119C122.542 146.862 123.486 146.388 124.002 145.543C125.515 143.047 126.024 130.141 125.637 126.028C125.25 121.916 123.526 108.733 123.764 104.654C124.001 100.575 124.857 97.2608 123.92 93.1888C122.983 89.1168 95.3474 80.0597 95.3474 80.0597L90.0469 87.879Z" fill="#102140"></path><path opacity="0.6" d="M123.765 104.64C124.003 100.562 124.858 97.2473 123.921 93.1753C123.568 91.6466 119.442 89.4077 114.433 87.2161C105.977 86.445 95.2466 85.5522 94.5136 85.6672C93.8485 85.7686 92.0975 86.4315 90.6451 87.0065L90.0547 87.879C90.0547 87.879 90.0886 89.0222 90.1972 90.8958C92.1722 91.4843 95.966 90.8755 95.966 90.8755C96.5022 92.1945 99.7938 96.8955 103.893 98.9248C107.992 100.954 119.985 100.257 120.677 101.028C121.362 101.8 121.498 112.115 121.424 113.42C121.349 114.732 122.557 122.985 123.67 130.29C124.769 137.473 123.1 146.199 123.046 146.483C123.432 146.233 123.772 145.928 124.009 145.536C125.523 143.04 126.032 130.134 125.645 126.022C125.251 121.902 123.527 108.719 123.765 104.64Z" fill="#020230"></path><path d="M99.2984 26.2582C99.2984 26.2582 93.1698 27.6516 91.1066 28.1318C90.7673 28.213 90.489 28.4497 90.3601 28.7744C89.7628 30.2761 88.2697 34.9433 89.3964 41.7615C90.7809 50.1354 90.3397 55.7767 90.3397 55.7767L87.5028 70.4885C87.5028 70.4885 83.9397 84.497 84.2451 84.8825C84.5505 85.2681 92.4572 91.261 94.9208 90.4155C97.3913 89.57 96.5768 88.1766 96.5768 88.1766C96.5768 88.1766 98.579 98.3295 107.429 98.2348C116.286 98.1401 123.521 98.1672 125.021 94.5957C126.52 91.0311 124.607 76.0283 123.046 70.0962C121.485 64.1574 117.772 52.3202 117.772 52.3202L130.742 38.0142L119.659 29.5793C119.659 29.5793 117.012 24.6754 115.919 24.0531C114.833 23.4308 114.263 23.9584 114.263 23.9584L99.2984 26.2582Z" fill="#453C9E"></path><path d="M115.695 23.9313C115.695 23.9313 117.962 26.664 114.704 30.3504C112.702 32.6164 109.247 37.5136 106.308 42.5934C104.469 45.7658 102.773 47.4568 101.816 50.1827C101.816 50.1827 101.68 46.9427 101.551 41.9441C101.429 37.2227 101.368 32.3188 101.578 31.0877C102.006 28.5377 113.19 22.6935 115.695 23.9313Z" fill="#F0F6FF"></path><path d="M107.225 32.1497C107.225 32.1497 106.065 32.8667 105.664 32.8058C105.264 32.7449 103.981 31.5003 103.981 31.5003C103.981 31.5003 100.764 31.4395 100.418 30.0731C100.065 28.7 99.8344 27.3201 99.5086 26.6032C99.1829 25.8929 97.7984 22.4635 97.7848 21.0769C97.7712 19.6903 97.8255 17.2078 97.2215 15.8888C96.6174 14.5766 95.8098 1.42722 108.549 1.79925C121.288 2.17127 117.331 15.3545 117.331 15.3545C117.331 15.3545 118.261 15.7468 117.697 17.4446C117.134 19.1424 117.005 19.3182 116.72 20.157C116.435 21.0025 116.293 21.5368 115.485 22.22L115.274 23.7825C115.274 23.7825 115.879 26.1702 114.297 28.4903C112.709 30.8172 107.225 32.1497 107.225 32.1497Z" fill="#FCD1C5"></path><path d="M90.7535 28.2874C90.7535 28.2874 89.3961 28.4903 84.9915 39.5361C82.5346 45.7049 78.734 52.0902 77.9331 56.6695C77.1255 61.2488 77.5802 66.1528 78.4829 66.4977C79.3584 66.8292 95.1921 72.7342 100.146 74.6011C100.418 74.7026 100.717 74.5335 100.771 74.2426L102.135 66.6195L92.3077 62.8384C92.3077 62.8384 90.4345 60.5589 88.6767 59.7066C88.6767 59.7066 90.6449 56.0878 90.5227 55.1003C90.4006 54.1127 90.6992 43.8922 89.5454 39.7323C88.3984 35.5723 90.7535 28.2874 90.7535 28.2874Z" fill="#4846A5"></path><path d="M96.5083 57.4947C96.5083 57.4947 95.1577 56.5883 94.8184 56.4598C94.4858 56.3313 92.6737 55.7158 92.3276 55.5602C92.0697 55.4452 91.0178 55.5331 90.4884 55.5872C90.2984 55.6075 90.1287 55.7158 90.0405 55.8849C89.6197 56.656 88.4591 58.9084 88.5881 59.7674C88.5881 59.7674 91.8593 61.8305 92.2258 62.7436L92.7484 62.8586C92.7552 62.8519 94.9473 58.1711 96.5083 57.4947Z" fill="#FCD1C5"></path><path opacity="0.6" d="M123.06 70.0962C122.686 68.669 122.184 66.8968 121.641 65.0299L101.742 73.5324C101.742 73.5324 107.701 80.8308 118.139 80.3641C120.996 80.2356 123.073 79.2074 124.607 78.3281C124.146 75.0881 123.582 72.0848 123.06 70.0962Z" fill="#020230"></path><path d="M130.756 38.0209C130.756 38.0209 125.51 38.7379 121.268 45.4411C117.026 52.1376 113.938 59.8892 113.938 59.8892L113.789 60.7618C113.409 63.0413 110.972 64.3468 108.855 63.4065C104.376 61.4111 97.7448 58.4011 96.5096 57.4947C96.5096 57.4947 92.546 59.6795 91.4601 64.8405C90.5982 68.9599 90.8154 68.9666 90.8154 68.9666C90.8154 68.9666 108.488 77.185 115.309 77.1038C122.137 77.0227 130.79 54.6606 131.747 50.034C132.711 45.4141 133.763 39.3264 130.756 38.0209Z" fill="#4846A5"></path><path d="M108.697 63.3321C108.697 63.3321 109.308 62.7639 110.102 62.0943C110.889 61.4246 112.172 58.6717 112.389 58.4282C112.606 58.1846 115.274 56.1487 116.556 56.1081C117.839 56.0743 116.889 57.5082 116.59 57.7112C116.292 57.9141 115.036 58.5364 115.036 58.5364C115.036 58.5364 113.747 59.6186 113.597 59.7742C113.448 59.9298 117.188 59.5172 117.778 59.8824C118.369 60.2477 118.233 61.1947 117.812 61.4585C117.391 61.7155 117.072 61.7087 117.072 61.7087C117.072 61.7087 117.493 62.8316 116.373 63.3524C115.253 63.8732 114.995 63.5824 114.995 63.5824C114.995 63.5824 114.9 65.5169 113.048 65.1381L108.697 63.3321Z" fill="#FCD1C5"></path><path d="M96.9369 9.16532C96.9369 9.16532 95.2741 14.4413 99.6516 12.9397C104.029 11.4381 107.986 8.92857 109.364 9.88231C110.409 10.6128 110.361 12.845 110.28 13.8664C110.253 14.2181 110.341 14.5631 110.545 14.8472L111.841 16.7276C111.99 16.9373 112.072 17.1875 112.092 17.4446L112.187 18.75C112.207 19.0815 112.472 19.3385 112.805 19.3588L113.103 19.3791C113.436 19.3994 113.734 19.1626 113.789 18.838L114.128 16.917C114.128 16.917 115.16 14.3331 117.338 15.3477C117.338 15.3477 118.797 13.3996 118.309 9.22619C117.827 5.05952 115.954 0.723739 107.742 0.0270379C99.5294 -0.656135 96.9369 9.16532 96.9369 9.16532Z" fill="#AA8383"></path><path d="M109.485 36.7899L108.256 35.8429C108.256 35.8429 107.123 36.7831 106.675 37.7842C106.234 38.7785 106.675 41.9509 106.675 41.9509L106.301 42.5934L105.84 41.7547L105.453 38.0074C105.453 38.0074 105.874 35.2341 105.915 35.1665C105.955 35.0988 108.283 35.41 108.283 35.41C108.283 35.41 109.091 36.0188 109.485 36.7899Z" fill="#C4CCD6"></path><path d="M103.58 33.0561C103.58 33.0561 102.27 33.144 101.68 33.631C101.68 33.631 103.057 33.6987 103.275 33.7257C103.492 33.7528 103.58 33.0561 103.58 33.0561Z" fill="#C4CCD6"></path><path d="M108.283 35.4032L106.077 33.3537C106.077 33.3537 102.623 32.6164 102.908 33.5837C103.193 34.5509 102.969 36.729 103.186 37.5948C103.2 37.6354 103.213 37.6692 103.234 37.7098C103.125 38.1697 102.779 39.482 102.412 40.084C101.964 40.828 101.51 41.66 101.51 41.66L101.564 52.1917C101.564 52.1917 105.453 44.2033 106.294 42.5867C106.294 42.5867 106.166 38.7379 105.799 38.0142C106.349 36.2893 108.283 35.4032 108.283 35.4032Z" fill="#160A5B"></path><path d="M113.72 21.9765C111.168 29.3223 103.98 31.5003 103.98 31.5003C103.98 31.5003 105.263 32.7449 105.664 32.8058C106.064 32.8667 107.225 32.1497 107.225 32.1497C107.225 32.1497 112.708 30.8239 114.296 28.5038C115.878 26.1838 115.274 23.796 115.274 23.796L115.484 22.2335C114.344 22.5988 113.72 21.9765 113.72 21.9765Z" fill="#E2B1A6"></path><path opacity="0.6" d="M119.564 30.5737C119.564 30.5737 118.553 34.0369 118.424 34.1722C118.295 34.3007 115.892 34.0234 115.892 34.0234L117.059 36.2284C117.059 36.2284 104.965 49.1546 102.461 56.1081C102.461 56.1081 108.182 47.2945 118.254 36.7696L116.829 34.6186L119.299 35.0988L119.564 30.5737Z" fill="#020230"></path><path opacity="0.6" d="M99.6978 27.5163L99.0531 28.2468L99.8064 28.9503L97.5735 30.966C97.5735 30.966 96.8881 45.1029 99.6232 54.4712C99.6232 54.4712 95.9175 45.8808 96.7591 30.5804L99.182 28.9435L98.388 28.1656L99.6978 27.5163Z" fill="#020230"></path><path opacity="0.6" d="M107.32 105.554C107.32 105.554 107.347 105.574 107.401 105.621L104.266 102.3C105.712 104.336 104.049 113.643 103.872 115.774C103.703 117.905 105.549 122.308 106.234 127.462C106.926 132.61 105.508 139.962 105.508 139.983C106.404 139.469 107.116 138.603 107.415 137.27C108.481 132.454 108.073 123.438 106.899 119.684C105.725 115.909 107.32 105.554 107.32 105.554Z" fill="#020230"></path><path d="M113.103 19.3858C113.435 19.4061 113.734 19.1694 113.788 18.8447L114.127 16.9237C114.127 16.9237 115.159 14.3398 117.338 15.3545C117.338 15.3545 118.709 13.5011 118.342 9.56439C115.919 13.1832 110.551 14.8607 110.551 14.8607L111.847 16.7411C111.996 16.9508 112.078 17.201 112.098 17.4581L112.193 18.7635C112.214 19.095 112.478 19.352 112.811 19.3723L113.103 19.3858Z" fill="#936D6D"></path><path d="M114.06 181.988C114.06 183.638 112.716 184.977 111.06 184.977C109.404 184.977 108.061 183.638 108.061 181.988C108.061 180.337 109.404 178.998 111.06 178.998C112.716 178.998 114.06 180.337 114.06 181.988Z" fill="#462BAE"></path><path d="M140.603 151.576C142.26 151.576 143.603 150.238 143.603 148.587C143.603 146.935 142.26 145.597 140.603 145.597C138.947 145.597 137.604 146.935 137.604 148.587C137.604 150.238 138.947 151.576 140.603 151.576Z" fill="#462BAE"></path><path d="M150.056 171.415C150.056 173.066 148.712 174.405 147.056 174.405C145.4 174.405 144.057 173.066 144.057 171.415C144.057 169.765 145.4 168.426 147.056 168.426C148.712 168.426 150.056 169.758 150.056 171.415Z" fill="#462BAE"></path><path d="M85.2359 165.774C85.2359 167.425 83.8921 168.764 82.2361 168.764C80.5801 168.764 79.2363 167.425 79.2363 165.774C79.2363 164.124 80.5801 162.784 82.2361 162.784C83.8989 162.784 85.2359 164.124 85.2359 165.774Z" fill="#462BAE"></path><path d="M103.785 145.577C103.785 147.227 102.441 148.566 100.785 148.566C99.129 148.566 97.7852 147.227 97.7852 145.577C97.7852 143.926 99.129 142.587 100.785 142.587C102.441 142.587 103.785 143.926 103.785 145.577Z" fill="#24126A"></path><path d="M115.314 156.649L82.3295 162.981C82.187 162.994 82.0513 163.014 81.9223 163.041L81.9494 162.825L80.3613 162.426V164.293H80.3681C80.3681 164.367 80.3681 164.442 80.3885 164.509C80.5921 165.24 81.7798 165.74 83.0489 165.619L116.033 159.287L115.314 156.649Z" fill="url(#paint2_linear_276_5756)"></path><path d="M142.943 145.374L141.939 146.219C141.077 145.847 139.753 145.928 138.851 146.449L115.361 156.643L118.653 158.537L142.142 148.343C142.692 148.025 142.957 147.619 142.936 147.234L142.95 147.241V145.374H142.943Z" fill="#213C6E"></path><path d="M103.01 143.101C102.426 142.445 101.028 142.181 99.8814 142.519C99.7457 142.56 99.6235 142.607 99.5013 142.661C99.447 142.573 99.3792 142.479 99.2977 142.398C99.0873 142.188 98.6055 141.904 98.6055 141.904V143.764L98.6123 143.757C98.619 143.947 98.6937 144.143 98.8566 144.325L114.018 158.117L118.165 156.9L103.01 143.101Z" fill="url(#paint3_linear_276_5756)"></path><path d="M149.221 168.25L148.665 168.446L148.346 169.109C148.224 169.055 148.095 169.007 147.952 168.96L118.199 156.913L116.088 159.294L145.841 171.341C146.988 171.679 148.387 171.415 148.97 170.759C149.147 170.563 149.215 170.347 149.215 170.137L149.228 170.144L149.221 168.25Z" fill="#213C6E"></path><path d="M114.032 158.138L109.146 178.998L108.779 178.815V180.743L108.786 180.736C108.854 181.345 109.641 181.873 110.741 181.974C112.01 182.089 113.198 181.589 113.401 180.865L118.627 158.564L114.032 158.138Z" fill="#213C6E"></path><path d="M147.952 167.107L120.357 155.932L142.129 146.483C143.107 145.922 143.208 145.069 142.367 144.589L142.136 144.461C141.288 143.974 139.815 144.034 138.838 144.596L117.059 154.045L102.996 141.248C102.413 140.591 101.015 140.328 99.8676 140.666C98.7206 141.004 98.2659 141.809 98.8495 142.465L112.912 155.263L82.3236 161.134C81.0544 161.249 80.1925 161.932 80.3893 162.663C80.5929 163.393 81.7806 163.894 83.0498 163.772L113.638 157.901L108.792 178.585C108.589 179.316 109.457 179.999 110.727 180.114C111.996 180.229 113.183 179.729 113.387 179.005L118.233 158.32L145.828 169.494C146.975 169.833 148.373 169.569 148.957 168.913C149.554 168.25 149.099 167.445 147.952 167.107ZM117.405 155.96L116.889 156.541L115.769 156.44L115.593 155.797L116.604 155.5L117.405 155.96Z" fill="#102140"></path><path d="M116.448 157.671C115.118 157.671 114.039 156.595 114.039 155.27V127.503H118.851V155.27C118.858 156.595 117.779 157.671 116.448 157.671Z" fill="#24126A"></path><path d="M103.649 94.5279L103.636 94.5346C103.582 93.9056 103.168 93.3171 102.387 92.8639L101.885 92.5731C100.019 91.4976 96.7541 91.6328 94.5958 92.8774L79.3865 101.63C78.2395 102.286 77.6423 103.125 77.6084 103.93L77.6016 103.937V106.575H77.6084C77.6084 107.258 78.0156 107.914 78.8639 108.401L79.3661 108.692C81.2325 109.767 84.497 109.632 86.6552 108.387L101.865 99.6348C102.971 98.9989 103.568 98.194 103.636 97.4094L103.649 97.4026V94.5279Z" fill="#304B7E"></path><path d="M79.3669 106.108L78.8646 105.817C76.9983 104.742 77.229 102.861 79.3872 101.624L94.5966 92.8709C96.7548 91.6263 100.019 91.4978 101.886 92.5665L102.388 92.8574C104.254 93.9329 104.024 95.8133 101.865 97.0511L86.656 105.804C84.5045 107.048 81.2401 107.184 79.3669 106.108Z" fill="#304B7E"></path><path d="M111.568 118.317L79.7108 136.634C78.1294 137.541 76.8535 136.58 76.8535 134.484C76.8535 132.387 78.1362 129.952 79.7108 129.038L116.204 108.056V109.49C116.204 112.893 114.127 116.843 111.568 118.317Z" fill="#344E7E"></path><path d="M113.917 40.0772C112.811 39.4887 111.386 39.5631 109.831 40.456L108.881 41.0039C105.359 43.0331 102.502 48.4714 102.502 53.1522V115.943L110.965 111.073V113.068L100.812 121.314L77.75 136.722L110.164 154.985L128.801 140.693L139.415 131.663L146.026 58.1711L113.917 40.0772Z" fill="#344E7E"></path><path d="M90.1695 143.723C90.1695 143.723 89.3076 141.451 91.0111 139.753C92.7146 138.055 101.673 134.294 102.325 133.895C102.976 133.489 106.193 131.129 106.193 131.129L107.177 128.937C107.177 128.937 88.9818 130.702 88.7375 130.986C88.4931 131.271 80.22 138.664 80.4643 138.988C80.7086 139.313 86.1652 140.632 86.1652 140.632L87.2172 142.073L90.1695 143.723Z" fill="#2D2D2D"></path><path d="M142.096 58.631L141.145 59.1789C137.623 61.2081 134.766 66.6465 134.766 71.3272V134.111L111.982 147.214C110.401 148.12 109.125 150.562 109.125 152.659C109.125 154.755 110.408 155.723 111.982 154.81L143.84 136.499C146.398 135.025 148.475 131.074 148.475 127.672V126.238V63.4403C148.475 58.7595 145.618 56.6086 142.096 58.631Z" fill="#213C6E"></path><path d="M81.5513 157.326C81.5513 157.326 76.8548 160.329 75.2734 162.095C73.6853 163.867 70.543 167.486 71.8393 169.21C73.1356 170.935 77.4995 171.902 82.196 167.594C86.8925 163.285 85.5555 163.028 89.5529 160.891C93.5504 158.753 94.6499 156.433 94.168 155.1C93.6861 153.775 91.7112 151.421 90.6321 151.928C89.5529 152.435 81.5513 157.326 81.5513 157.326Z" fill="#213C6E"></path><path d="M104.375 169.927C104.375 169.927 102.691 173.621 101.823 174.852C100.954 176.076 96.7461 183.151 98.945 184.775C101.144 186.398 105.311 185.951 108.603 182.387C111.894 178.822 112.627 174.48 113.442 173.059C114.256 171.632 116.279 167.83 115.315 165.639C114.358 163.447 114.141 163.069 114.141 163.069L104.375 169.927Z" fill="#213C6E"></path><path d="M87.3334 117.303C87.3334 117.303 73.3864 131.02 71.0993 137.906C71.0993 137.906 70.1355 141.626 72.8299 144.548C75.5243 147.464 81.2524 157.008 81.2524 157.008C81.2524 157.008 85.5281 162.162 91.039 158.043C91.039 158.043 93.5366 154.072 92.0027 151.428C90.4689 148.79 86.39 140.348 86.39 140.348C86.39 140.348 95.3351 134.213 99.7465 132.664C104.158 131.115 106.513 129.918 106.513 129.918C106.513 129.918 105.712 134.071 102.482 138.116C99.2511 142.168 93.8488 148.675 95.6473 153.2C97.4458 157.732 98.491 159.132 100.181 161.736C101.871 164.34 103.473 169.779 104.918 170.347C106.364 170.915 113.028 171.564 114.108 167.235C115.187 162.906 111.834 154.498 110.32 151.651C110.32 151.651 128.36 130.912 130.077 128.633C131.794 126.353 92.919 113.785 87.3334 117.303Z" fill="#102140"></path><path d="M92.0033 151.421C90.4695 148.783 86.3906 140.341 86.3906 140.341C86.3906 140.341 95.3357 134.206 99.7471 132.657C104.159 131.108 106.514 129.911 106.514 129.911C107.362 128.748 110.097 124.283 111.326 120.752C101.152 117.783 90.1098 115.544 87.3272 117.296C88.3113 119.724 93.4965 119.704 93.4965 119.704C93.4965 119.704 95.4307 124.405 96.7202 125C98.0029 125.602 101.077 124.946 101.077 124.946C101.077 124.946 100.582 125.717 98.3898 127.3C96.1976 128.876 82.4746 140.084 82.4746 140.084C82.4746 140.084 83.2551 140.531 86.9132 147.112C90.5645 153.694 91.0396 158.029 91.0396 158.029C91.0396 158.029 93.5372 154.066 92.0033 151.421Z" fill="#160A5B"></path><path opacity="0.6" d="M122.836 124.581C114.773 123.817 105.38 123.742 107.498 127.963C111.081 135.119 118.296 135.444 118.296 135.444C118.248 138.075 107.186 150.771 107.186 150.771C107.186 150.771 107.186 150.771 109.765 155.77C112.344 160.769 112.018 169.866 112.018 169.866C113.015 169.325 113.803 168.487 114.115 167.228C115.194 162.899 111.841 154.492 110.328 151.644C110.328 151.644 128.367 130.905 130.084 128.626C130.587 127.956 127.533 126.38 122.836 124.581Z" fill="#101F3B"></path><path d="M73.2303 80.7496L75.3749 79.0924C75.3749 79.0924 86.9397 72.6936 90.7879 70.617C92.8714 69.4942 95.0297 67.4852 96.5771 65.8822C98.0837 64.3197 100.174 63.4471 102.346 63.4336L122.605 63.3321C122.605 63.3321 124.966 67.0997 125.761 67.8437C126.344 68.3916 131.842 72.9777 135.785 76.7588C137.97 78.8489 139.551 81.4734 140.379 84.3752C142.639 92.3027 142.605 108.286 142.945 119.711C142.945 119.711 141.547 120.252 138.079 120.989C134.631 121.726 135.059 121.253 135.059 121.253C135.059 121.253 129.887 132.847 122.876 133.963C115.865 135.086 106.418 131.812 104.728 120.84C104.728 120.84 91.0593 118.798 87.3469 117.282C87.0076 117.14 86.8854 116.721 87.1094 116.43C88.7654 114.245 94.9279 105.763 95.5115 100.244C96.1902 93.8584 95.9798 84.5916 95.4708 82.0551C95.4708 82.0551 85.1616 85.9241 81.8767 86.6141C81.8767 86.6141 69.3279 100.359 64.0816 104.099C64.0816 104.099 65.8801 101.285 62.2695 99.3779L73.2303 80.7496Z" fill="#453C9E"></path><path opacity="0.6" d="M138.078 120.996C138.607 120.881 139.076 120.78 139.51 120.678L138.784 119.251L119.767 117.242L108.657 117.817L104.836 121.436C105.053 122.613 105.352 123.695 105.739 124.689C105.759 124.689 110.462 125.366 112.648 124.899C114.833 124.432 131.759 126.915 131.793 126.921C133.707 124.182 134.902 121.618 135.044 121.3C135.031 121.382 135.234 121.598 138.078 120.996Z" fill="#020230"></path><path d="M112.411 114.374C112.391 114.306 112.33 114.252 112.255 114.252C111.339 114.232 105.393 114.056 103.147 113.285C100.71 112.446 98.1247 112.602 97.9957 112.744C97.8668 112.886 93.8082 114.604 93.5639 115.301C93.3467 115.916 92.9599 118.067 93.496 118.858C94.0322 119.65 94.2901 120.184 94.2901 120.184L94.7109 120.232C94.7109 120.232 95.2538 121.3 95.566 121.679C95.7018 121.848 95.8103 122.031 95.8986 122.22C96.1565 122.775 96.6044 123.681 96.7944 123.702C97.0659 123.729 98.3215 123.979 98.6405 123.898C98.8984 123.83 99.1359 123.039 99.0273 122.687C99.0002 122.592 99.0477 122.504 99.1427 122.484C99.7196 122.389 101.287 122.193 103.459 122.389C106.106 122.633 109.839 120.908 110.178 120.752C110.198 120.746 110.212 120.739 110.232 120.739L113.958 120.401C114.067 120.394 114.135 120.286 114.108 120.184L112.411 114.374Z" fill="#FCD1C5"></path><path d="M107.924 75.2166C107.924 75.2166 104.755 86.8711 108.107 98.8436C108.107 98.8436 120.31 76.15 121.634 72.4704C122.957 68.7907 123.439 66.173 122.204 64.8473C120.969 63.5283 109.94 70.3532 109.94 70.3532L107.924 75.2166Z" fill="#F0F6FF"></path><path d="M111.067 93.4932C111.067 93.4932 113.395 86.4044 112.988 84.1114C112.581 81.8251 112.004 80.1882 112.004 80.1882L114.101 78.2604L115.024 80.1679C115.024 80.1679 119.639 76.7926 119.945 76.1636C119.945 76.1636 116.226 78.7069 115.058 79.0857C115.058 79.0857 114.508 78.1725 113.775 77.8681C113.042 77.557 111.224 80.0394 111.224 80.0394L110.884 84.3414L109.059 94.3793L109.69 95.8674L111.067 93.4932Z" fill="#C4CCD6"></path><path d="M113.781 77.8681C113.781 77.8681 111.718 74.2358 109.031 75.3519C109.031 75.3519 108.603 79.823 108.963 80.2356C108.359 81.0202 106.859 83.1779 106.594 85.5589C105.854 92.2215 108.114 98.8503 108.114 98.8503L109.926 95.4615C109.926 95.4615 110.381 91.3828 111.576 86.9861C112.458 83.7394 112.01 81.1623 111.711 80.0326C112.471 79.4171 113.781 77.8681 113.781 77.8681Z" fill="#160A5B"></path><path d="M102.224 56.6357C102.224 56.6357 101.661 59.4698 101.865 60.0042C102.068 60.5453 102.788 60.9038 102.611 62.0063C102.435 63.1089 103.073 66.4165 103.405 67.5123C103.405 67.5123 103.161 68.6892 103.494 69.0545C103.826 69.4198 104.254 69.4062 104.566 69.9609C104.878 70.5156 104.98 73.3768 106.14 74.3305C107.301 75.2842 108.814 75.4872 109.595 75.2775C110.375 75.0678 111.176 74.4725 111.176 74.4725L112.927 75.1963C112.927 75.1963 122.001 72.6327 121.716 66.2745V65.6116C121.716 65.6116 122.361 64.712 122.551 64.1235C122.741 63.535 124.241 60.8903 123.481 59.7539C123.481 59.7539 126.996 45.9213 116.151 45.0894C105.299 44.2574 103.67 51.8332 102.224 56.6357Z" fill="#FCD1C5"></path><path d="M121.722 66.288V66.2136C121.267 65.943 120.826 65.7739 120.473 65.8348C119.231 66.0513 119.516 63.4877 119.516 63.4877C119.516 63.4877 119.285 63.9544 118.654 67.235C118.023 70.5156 111.182 74.4861 111.182 74.4861L112.933 75.2098C112.933 75.2031 122.007 72.6395 121.722 66.288Z" fill="#E2B1A6"></path><path d="M102.271 50.6292C101.213 52.8748 100.704 55.5737 102.923 57.3797C102.923 57.3797 104.789 57.887 108.332 56.2434C110.721 55.1408 113.11 55.6278 114.406 56.0607C115.01 56.2636 115.404 56.8318 115.383 57.4677L115.329 59.436C115.316 59.9501 115.614 60.4168 116.089 60.613L117.739 61.3097L118.064 63.2239C118.159 63.7853 118.743 64.1303 119.286 63.9341L119.7 63.7853C119.7 63.7853 119.944 59.5239 123.473 59.7404C123.473 59.7404 126.331 53.5851 123.406 47.9574C120.48 42.3296 112.458 42.7287 110.748 43.3713C108.495 44.21 108.814 44.0883 107.524 44.8797C105.271 46.2799 103.405 48.2414 102.271 50.6292Z" fill="#AA8383"></path><path opacity="0.6" d="M131.135 94.0343C131.135 94.0343 129.493 106.101 128.821 109.517L123.514 112.304L132.941 111.729L131.135 94.0343Z" fill="#020230"></path><path d="M123.48 59.7539C123.48 59.7539 124.443 57.6706 124.674 54.8162C120.29 58.2794 115.383 57.4677 115.383 57.4677L115.329 59.436C115.315 59.9501 115.614 60.4168 116.089 60.613L117.738 61.3097L118.064 63.2239C118.159 63.7853 118.742 64.1303 119.285 63.9341L119.699 63.7853C119.706 63.7989 119.95 59.5375 123.48 59.7539Z" fill="#936D6D"></path><path opacity="0.6" d="M125.822 70.3533C125.822 70.3533 123.012 79.9718 122.429 81.8252L120.169 81.5884L120.576 84.6323L108.4 100.623L121.92 85.1599L121.384 82.4475L123.433 82.6639L125.822 70.3533Z" fill="#020230"></path><path d="M113.87 122.619C113.87 122.619 142.423 121.693 143.149 121.179C143.875 120.664 144.004 113.339 143.936 109.098C143.888 106.122 143.922 94.4739 141.377 86.3097C143.379 93.2294 142.328 117.688 141.418 118.933C140.509 120.177 113.348 120.894 113.348 120.894C113.646 121.909 113.87 122.619 113.87 122.619Z" fill="#263649"></path><path d="M57.7696 99.8582C57.7696 99.8582 57.661 100.575 56.419 101.279C55.177 101.982 52.0007 103.545 51.4849 103.991C50.9691 104.437 48.6752 106.446 48.6141 106.71C48.5462 106.974 47.8607 109.247 47.8607 109.382C47.8675 109.517 48.0847 110.566 48.0847 110.566L47.3789 113.921C47.3789 113.921 46.483 115.219 47.4535 115.578C48.4241 115.93 48.9806 114.929 48.9942 114.773C48.9942 114.773 50.4669 114.076 51.546 113.244C52.6251 112.412 56.9619 108.936 57.6949 109.145C58.4279 109.362 57.756 110.606 57.4031 110.816C57.0501 111.032 54.7494 113.265 55.7131 114.82C56.6769 116.376 57.3013 113.941 57.9392 113.447C58.5772 112.953 59.9481 111.005 60.7897 110.762C61.6313 110.518 63.1651 107.393 63.3619 105.993C63.5655 104.593 64.5632 103.693 64.9229 103.24C65.2826 102.787 64.1492 99.3103 64.1492 99.3103L59.8599 97.9778L58.3668 98.9586L57.7696 99.8582Z" fill="#FCD1C5"></path><mask id="mask0_276_5756" style="mask-type:luminance" maskUnits="userSpaceOnUse" x="121" y="116" width="27" height="16"><path d="M123.006 131.081L122.503 130.79C120.637 129.715 120.868 127.834 123.026 126.597L138.235 117.844C140.393 116.599 143.658 116.471 145.524 117.539L146.027 117.83C147.893 118.906 147.662 120.786 145.504 122.024L130.295 130.777C128.143 132.021 124.879 132.15 123.006 131.081Z" fill="white"></path></mask><g mask="url(#mask0_276_5756)"><path d="M139.273 81.5139C138.377 80.1003 137.963 81.1419 136.762 82.3121C135.133 83.8881 133.097 86.3232 132.045 89.4076C130.131 95.0151 130.817 109.037 131.461 111.039C131.461 111.039 113.585 113.954 112.343 113.907C111.108 113.853 113.877 122.633 113.877 122.633C113.877 122.633 142.429 121.706 143.155 121.192C143.881 120.678 144.01 113.352 143.942 109.111C143.888 105.459 143.956 88.88 139.273 81.5139Z" fill="#334659"></path></g><mask id="mask1_276_5756" style="mask-type:luminance" maskUnits="userSpaceOnUse" x="121" y="116" width="27" height="16"><path d="M123.006 131.081L122.503 130.79C120.637 129.715 120.868 127.834 123.026 126.597L138.235 117.844C140.393 116.599 143.658 116.471 145.524 117.539L146.027 117.83C147.893 118.906 147.662 120.786 145.504 122.024L130.295 130.777C128.143 132.021 124.879 132.15 123.006 131.081Z" fill="white"></path></mask><g mask="url(#mask1_276_5756)"><path d="M113.87 122.619C113.87 122.619 142.423 121.693 143.149 121.179C143.875 120.664 144.004 113.339 143.936 109.098C143.888 106.122 143.922 94.4739 141.377 86.3097C143.379 93.2294 142.328 117.688 141.418 118.933C140.509 120.177 113.348 120.894 113.348 120.894C113.646 121.909 113.87 122.619 113.87 122.619Z" fill="#263649"></path></g><path d="M147.296 119.501L147.282 119.508C147.228 118.879 146.814 118.291 146.034 117.837L145.531 117.547C143.665 116.471 140.401 116.606 138.242 117.851L123.033 126.604C121.886 127.26 121.289 128.099 121.255 128.904L121.248 128.91V131.548H121.255C121.255 132.231 121.662 132.888 122.51 133.375L123.013 133.665C124.879 134.741 128.143 134.606 130.302 133.361L145.511 124.608C146.617 123.973 147.215 123.168 147.282 122.383L147.296 122.376V119.501Z" fill="#334D7E"></path><path d="M123.006 131.081L122.503 130.79C120.637 129.715 120.868 127.834 123.026 126.597L138.235 117.844C140.393 116.599 143.658 116.471 145.524 117.539L146.027 117.83C147.893 118.906 147.662 120.786 145.504 122.024L130.295 130.777C128.143 132.021 124.879 132.15 123.006 131.081Z" fill="#334D7E"></path><path d="M95.5045 205.723C94.8937 205.723 94.3168 205.574 93.801 205.276C92.5997 204.587 91.9414 203.207 91.9414 201.387V160.512H93.7196V201.387C93.7196 202.53 94.0725 203.389 94.6901 203.741C95.3077 204.093 96.2307 203.971 97.2216 203.403L131.373 183.753C133.755 182.38 135.771 178.91 135.771 176.164V135.288H137.549V176.164C137.549 179.573 135.228 183.584 132.262 185.282L98.1107 204.931C97.208 205.459 96.3257 205.723 95.5045 205.723Z" fill="#213C6E"></path><path d="M8.26036 157.333C7.64955 157.333 7.07266 157.184 6.55686 156.886C5.35559 156.196 4.69727 154.816 4.69727 152.997V112.121H6.47542V152.997C6.47542 154.14 6.82834 154.999 7.44594 155.351C8.06354 155.702 8.97977 155.587 9.97744 155.013L44.1289 135.363C46.5111 133.99 48.5267 130.52 48.5267 127.774V86.8982H50.3049V127.774C50.3049 131.183 47.9838 135.187 45.0179 136.892L10.8665 156.541C9.97065 157.069 9.08157 157.333 8.26036 157.333Z" fill="#213C6E"></path><path d="M6.02756 126.734L5.15039 128.276L92.3979 177.586L93.2751 176.044L6.02756 126.734Z" fill="#213C6E"></path><path opacity="0.5" d="M93.0749 169.522L0 115.963L49.9784 87.2026L143.06 140.761L93.0749 169.522Z" fill="url(#paint4_linear_276_5756)"></path><path d="M0 111.519V115.963L93.0749 169.521L143.06 140.761V136.317L93.0749 165.077L0 111.519Z" fill="#6686FF"></path><path d="M93.0749 165.077L0 111.519L49.9784 82.7585L143.06 136.317L93.0749 165.077Z" fill="#C0D7FF"></path><path opacity="0.4" d="M98.5308 123.363C98.5308 123.363 102.108 124.635 104.843 124.182C107.578 123.729 120.731 123.472 120.731 123.472L118.661 122.281L114.046 119.082L102.617 119.853L98.2051 121.429L98.5308 123.363Z" fill="#020230"></path><path d="M112.411 114.374C112.391 114.306 112.33 114.252 112.255 114.252C111.339 114.232 105.393 114.056 103.147 113.285C100.71 112.446 98.1247 112.602 97.9957 112.744C97.8668 112.886 93.8082 114.604 93.5639 115.301C93.3467 115.916 92.9599 118.067 93.496 118.858C94.0322 119.65 94.2901 120.184 94.2901 120.184L94.7109 120.232C94.7109 120.232 95.2538 121.3 95.566 121.679C95.7018 121.848 95.8103 122.031 95.8986 122.22C96.1565 122.775 96.6044 123.681 96.7944 123.702C97.0659 123.729 98.3215 123.979 98.6405 123.898C98.8984 123.83 99.1359 123.039 99.0273 122.687C99.0002 122.592 99.0477 122.504 99.1427 122.484C99.7196 122.389 101.287 122.193 103.459 122.389C106.106 122.633 109.839 120.908 110.178 120.752C110.198 120.746 110.212 120.739 110.232 120.739L113.958 120.401C114.067 120.394 114.135 120.286 114.108 120.184L112.411 114.374Z" fill="#FCD1C5"></path><path d="M139.273 81.5139C138.377 80.1003 137.963 81.1419 136.762 82.3121C135.133 83.8881 133.097 86.3232 132.045 89.4076C130.131 95.0151 130.817 109.037 131.461 111.039C131.461 111.039 113.585 113.954 112.343 113.907C111.108 113.853 113.877 122.633 113.877 122.633C113.877 122.633 142.429 121.706 143.155 121.192C143.881 120.678 144.01 113.352 143.942 109.111C143.888 105.459 143.956 88.88 139.273 81.5139Z" fill="#716FC8"></path><path opacity="0.6" d="M113.87 122.619C113.87 122.619 142.423 121.693 143.149 121.179C143.875 120.664 144.004 113.339 143.936 109.098C143.888 106.122 143.922 94.4739 141.377 86.3097C143.379 93.2294 142.328 117.688 141.418 118.933C140.509 120.177 113.348 120.894 113.348 120.894C113.646 121.909 113.87 122.619 113.87 122.619Z" fill="#020230"></path><path opacity="0.3" d="M62.6971 108.056C62.6971 108.056 72.9045 100.108 74.3637 99.3373C75.8228 98.5662 76.4404 97.9845 76.4404 97.9845L73.0267 96.0162L67.2511 98.3836L59.9688 105.574L48.7637 113.488V115.328C48.7637 115.328 58.0074 111.371 59.0458 110.694C60.0706 110.025 62.6971 108.056 62.6971 108.056Z" fill="#180D5B"></path><path opacity="0.63" d="M56.6082 115.253C56.6082 115.253 58.78 113.319 60.1849 112.669C61.5897 112.02 63.8158 110.302 64.0941 108.99C64.3656 107.677 66.6867 104.769 66.6867 104.769L62.9675 106.906L57.5787 110.004L48.6133 115.186C48.6133 115.186 49.163 115.815 50.2964 115.429C51.4298 115.044 53.5609 113.691 54.5518 113.569C55.5427 113.447 57.1851 113.143 57.1851 113.143L56.6082 115.253Z" fill="#2D2D2D"></path><path d="M57.7696 99.8582C57.7696 99.8582 57.661 100.575 56.419 101.279C55.177 101.982 52.0007 103.545 51.4849 103.991C50.9691 104.437 48.6752 106.446 48.6141 106.71C48.5462 106.974 47.8607 109.247 47.8607 109.382C47.8675 109.517 48.0847 110.566 48.0847 110.566L47.3789 113.921C47.3789 113.921 46.483 115.219 47.4535 115.578C48.4241 115.93 48.9806 114.929 48.9942 114.773C48.9942 114.773 50.4669 114.076 51.546 113.244C52.6251 112.412 56.9619 108.936 57.6949 109.145C58.4279 109.362 57.756 110.606 57.4031 110.816C57.0501 111.032 54.7494 113.265 55.7131 114.82C56.6769 116.376 57.3013 113.941 57.9392 113.447C58.5772 112.953 59.9481 111.005 60.7897 110.762C61.6313 110.518 63.1651 107.393 63.3619 105.993C63.5655 104.593 64.5632 103.693 64.9229 103.24C65.2826 102.787 64.1492 99.3103 64.1492 99.3103L59.8599 97.9778L58.3668 98.9586L57.7696 99.8582Z" fill="#FCD1C5"></path><path d="M96.4962 76.3936C96.4962 76.3936 96.3401 70.0218 97.426 65.1313C97.1274 65.3613 96.8424 65.6116 96.5709 65.8822C95.0235 67.4852 92.8653 69.4942 90.7817 70.617C86.9336 72.6936 75.3688 79.0924 75.3688 79.0924L73.2241 80.7496C66.4441 86.0459 58.8631 97.5787 57.7637 99.8649C58.293 99.1615 59.6572 97.998 62.2701 99.3847C65.874 101.292 64.1569 104.167 64.1569 104.167C69.4031 100.426 81.8706 86.6208 81.8706 86.6208C84.9518 85.9783 94.1955 82.5353 95.3493 82.1092C96.1026 80.1882 96.5369 78.2604 96.4962 76.3936Z" fill="#716FC8"></path><path opacity="0.6" d="M40.8301 122.707L78.212 144.217C78.6193 144.454 79.2369 144.481 79.5966 144.271L101.905 131.433C102.258 131.23 102.217 130.872 101.803 130.635L64.4212 109.125C64.014 108.888 63.3963 108.861 63.0366 109.071L40.7283 121.909C40.3821 122.112 40.4229 122.471 40.8301 122.707Z" fill="#020230"></path><path opacity="0.5" d="M27.5469 114.002L39.2135 119.373L45.1927 110.451L30.4041 107.772L27.5469 114.002Z" fill="#000028"></path><path d="M33.1529 97.8221H20.8145L21.9614 111.134C21.9614 111.871 22.4501 112.615 23.4342 113.177C25.3956 114.306 28.5718 114.306 30.5332 113.177C31.5105 112.615 32.006 111.871 32.006 111.134L33.1529 97.8221Z" fill="#F2B42A"></path><path opacity="0.4" d="M33.1529 97.8221H20.8145L21.0045 100.014C21.2895 100.372 21.6696 100.724 22.1447 101.042C24.4997 102.598 28.3886 102.902 31.0422 101.779L30.635 111.513C30.6147 111.939 30.4721 112.351 30.1939 112.676C29.7935 113.143 29.0265 113.697 27.547 114.009C28.6397 113.941 29.6984 113.664 30.5332 113.183C31.5105 112.622 32.006 111.878 32.006 111.141L32.929 100.467L33.1529 97.8221Z" fill="#06033E"></path><path opacity="0.4" d="M31.3484 100.332C28.9391 101.718 25.0366 101.718 22.6273 100.332C20.218 98.945 20.218 96.6993 22.6273 95.3127C25.0366 93.926 28.9391 93.926 31.3484 95.3127C33.751 96.6993 33.751 98.945 31.3484 100.332Z" fill="#06033E"></path><path opacity="0.4" d="M30.7366 98.7353C28.6599 99.9258 25.3004 99.9258 23.2236 98.7353C21.1468 97.5448 21.1468 95.6035 23.2236 94.4131C25.3004 93.2226 28.6599 93.2226 30.7366 94.4131C32.8134 95.6035 32.8134 97.5381 30.7366 98.7353Z" fill="#06033E"></path><path d="M33.5198 97.6531V97.6463C33.5198 97.6396 33.5198 97.6328 33.5198 97.626L33.4045 96.4356L33.3977 96.4491C33.3434 95.5495 32.719 94.6566 31.5245 93.9667C29.0201 92.5259 24.9616 92.5259 22.4573 93.9667C21.2288 94.6701 20.6045 95.5968 20.5841 96.5167L20.4687 97.5787C20.4687 97.6057 20.4619 97.6328 20.4619 97.6599V97.6802C20.3941 98.688 21.032 99.7161 22.369 100.487C24.9209 101.955 29.0677 101.955 31.6195 100.487C32.9565 99.7026 33.5945 98.6745 33.5198 97.6531Z" fill="#E39A65"></path><path d="M30.7366 98.7353C28.6599 99.9258 25.3004 99.9258 23.2236 98.7353C21.1468 97.5448 21.1468 95.6035 23.2236 94.4131C25.3004 93.2226 28.6599 93.2226 30.7366 94.4131C32.8134 95.6035 32.8134 97.5381 30.7366 98.7353Z" fill="#F2B42A"></path><path d="M26.7321 99.6282C29.667 99.6282 32.0462 98.2593 32.0462 96.5708C32.0462 94.8823 29.667 93.5134 26.7321 93.5134C23.7972 93.5134 21.418 94.8823 21.418 96.5708C21.418 98.2593 23.7972 99.6282 26.7321 99.6282Z" fill="#936D32"></path><path opacity="0.4" d="M23.8555 94.8662C25.9323 93.6758 29.2918 93.6758 31.3685 94.8662C31.3957 94.8798 31.416 94.9001 31.4432 94.9136C31.2464 94.7377 31.0088 94.5686 30.7374 94.413C28.6606 93.2226 25.3011 93.2158 23.2243 94.413C21.1747 95.59 21.1543 97.4907 23.1497 98.6879C21.8194 97.4975 22.0502 95.9011 23.8555 94.8662Z" fill="#06033E"></path><path d="M23.2233 94.9407C25.3001 93.7502 28.6596 93.7502 30.7363 94.9407C31.6593 95.4683 32.1684 96.1447 32.2702 96.8346C32.3991 95.9688 31.8901 95.0692 30.7363 94.4063C28.6596 93.2158 25.3001 93.2091 23.2233 94.4063C22.0695 95.0692 21.5605 95.9621 21.6895 96.8346C21.7913 96.1447 22.3071 95.4683 23.2233 94.9407Z" fill="#F2B42A"></path><path d="M31.5591 93.9937C29.0616 92.5259 24.9827 92.4921 22.458 93.9125C19.9333 95.3397 19.9129 97.6801 22.4105 99.1479C24.908 100.616 28.9869 100.65 31.5116 99.2291C34.0363 97.8086 34.0567 95.4615 31.5591 93.9937ZM30.7379 98.7353C30.0457 99.1344 29.2041 99.3982 28.3218 99.5267L28.2268 99.2088C28.1861 99.0803 28.0707 98.9923 27.935 98.9923H26.0279C25.8921 98.9923 25.7767 99.0803 25.736 99.2088L25.641 99.5267C24.7587 99.3914 23.9171 99.1344 23.2249 98.7353C21.1481 97.5448 21.1481 95.6035 23.2249 94.4131C25.3017 93.2226 28.6612 93.2226 30.7379 94.4131C32.8147 95.6035 32.8147 97.5381 30.7379 98.7353Z" fill="#E39A65"></path><path d="M30.7363 94.1831C28.6595 92.9926 25.3 92.9858 23.2232 94.1831C22.1373 94.8054 21.6215 95.6373 21.669 96.4558C21.7165 95.7117 22.2323 94.9745 23.2232 94.4063C25.3 93.2158 28.6595 93.2158 30.7363 94.4063C31.7203 94.9745 32.2429 95.7117 32.2904 96.4558C32.3447 95.6373 31.8289 94.8054 30.7363 94.1831Z" fill="white"></path><path d="M31.5102 99.0058C28.9855 100.433 24.9066 100.392 22.409 98.9247C21.2213 98.228 20.6037 97.3283 20.5494 96.4287C20.5019 97.4027 21.1195 98.3971 22.409 99.1546C24.9066 100.622 28.9855 100.656 31.5102 99.2358C32.8336 98.4918 33.4716 97.4907 33.4105 96.4964C33.3698 97.4095 32.7318 98.3159 31.5102 99.0058Z" fill="white"></path><path d="M27.5542 99.689H26.414C26.3326 99.689 26.2715 99.6214 26.2715 99.547V99.5267C26.2715 99.4455 26.3394 99.3846 26.414 99.3846H27.5542C27.6356 99.3846 27.6967 99.4523 27.6967 99.5267V99.547C27.6967 99.6282 27.6356 99.689 27.5542 99.689Z" fill="#0C0A78"></path><path d="M27.5542 99.3846H26.414C26.3326 99.3846 26.2715 99.4523 26.2715 99.5267V99.547C26.2715 99.5605 26.2783 99.574 26.2783 99.5876C26.2986 99.5267 26.3461 99.4794 26.414 99.4794H27.5542C27.6221 99.4794 27.6764 99.5267 27.6899 99.5876C27.6967 99.574 27.6967 99.5605 27.6967 99.547V99.5267C27.6967 99.4455 27.6356 99.3846 27.5542 99.3846Z" fill="#4D4D4D"></path><path opacity="0.5" d="M27.3843 99.5943C27.3843 99.5943 30.832 98.4444 29.4339 94.4942C28.0358 90.544 25.3211 89.34 26.4137 86.1812C26.4137 86.1812 24.6967 88.738 26.2984 92.2012C27.9001 95.6644 28.253 95.2653 28.2326 96.9225C28.2123 98.8909 26.6174 99.6011 26.6174 99.6011H27.3843V99.5943Z" fill="white"></path><path opacity="0.5" d="M27.6972 86.7291C27.6972 86.7291 27.3375 84.3684 29.5636 81.9874C29.5636 81.9874 27.5954 86.3638 28.2402 88.5283C28.2402 88.5215 27.7176 87.1484 27.6972 86.7291Z" fill="white"></path><path d="M180.165 185.336C180.165 185.336 181.183 187.399 180.905 188.725C180.627 190.057 177.389 194.67 176.439 197.227C175.482 199.791 170.623 203.592 167.895 203.592C165.166 203.585 162.655 202.463 163.965 199.439C165.268 196.422 166.374 195.286 167.46 193.899C168.539 192.513 170.65 188.535 170.962 186.898C171.268 185.268 180.165 185.336 180.165 185.336Z" fill="#213C6E"></path><path d="M166.802 172.89C166.802 172.89 167.243 175.582 166.842 176.543C166.442 177.51 165.587 178.389 163.157 179.079C160.728 179.776 158.488 180.019 154.477 182.4C150.452 184.795 144.975 185.789 143.326 183.178C141.677 180.574 147.391 176.658 149.488 175.636C151.586 174.615 154.837 174.094 156.594 172.525C158.345 170.955 158.651 171.327 158.651 171.327L166.802 172.89Z" fill="#213C6E"></path><path d="M181.448 125.717C181.448 125.717 179.466 143.5 180.063 149.73C180.661 156.007 184.672 167.58 183.355 175.372C182.025 183.239 180.477 186.438 180.477 186.438C180.477 186.438 175.089 191.924 170.976 187.013C170.976 187.013 172.706 183.848 172.469 175.656C172.354 171.49 172.265 169.095 172.218 167.749C172.177 166.728 171.892 165.747 171.383 164.888C170.114 162.737 167.508 158.043 165.587 152.618C165.587 152.618 166.51 164.151 166.442 169.339C166.429 170.144 166.517 170.949 166.659 171.747C166.782 172.416 166.877 173.262 166.734 173.952C166.449 175.298 161.651 180.351 157.735 176.299C157.735 176.299 156.221 175.284 156.547 172.105C156.757 170.015 156.228 165.402 155.766 161.689C155.407 158.787 154.518 156.014 153.194 153.491C152.108 151.421 151.084 147.186 150.439 145.238C149.149 141.356 144.358 122.741 144.276 118.507C144.195 114.293 149.434 111.256 149.434 111.256C149.434 111.256 161.461 117.113 161.223 117.756C160.986 118.398 176.29 124.797 176.29 124.797L181.448 125.717Z" fill="#102140"></path><path opacity="0.6" d="M149.426 111.262C149.426 111.262 161.452 117.12 161.215 117.763C160.977 118.405 176.281 124.804 176.281 124.804L181.446 125.724C181.446 125.724 179.465 143.507 180.062 149.737C180.659 156.014 184.67 167.587 183.353 175.379C182.023 183.246 180.476 186.445 180.476 186.445C180.476 186.445 179.6 187.338 178.284 188.082C178.996 185.782 181.324 177.686 181.249 170.61C181.161 162.352 177.557 149.033 177.367 144.745C177.266 142.418 175.508 140.558 173.336 140.47C169.841 140.328 164.717 139.746 161.208 137.771C162.314 142.391 165.592 152.625 165.592 152.625C165.592 152.625 166.583 164.956 166.434 169.853C166.42 170.347 166.468 170.84 166.576 171.327C166.732 172.024 166.916 173.113 166.739 173.959C166.637 174.446 165.945 175.413 164.92 176.265C164.812 171.199 163.814 158.367 163.448 155.418C163.034 152.124 159.545 138.927 159.545 138.927C157.719 137.5 156.817 134.111 156.464 132.414C154.91 129.079 154.672 125.92 151.774 125.866C151.537 125.859 147.94 130.29 145.544 126.799C144.818 123.072 144.302 119.92 144.275 118.52C144.18 114.299 149.426 111.262 149.426 111.262Z" fill="#101E37"></path><path d="M144.865 119.129L145.517 121.388C145.517 121.388 146.555 121.537 147.967 119.934C149.372 118.338 148.035 116.816 148.035 116.816L145.354 117.404L144.865 119.129Z" fill="#E2B1A6"></path><path d="M154.184 57.7111C154.184 57.7111 153.438 57.6638 151.748 58.5702C150.051 59.4765 147.906 61.8575 146.698 67.5664C145.477 73.3159 140.414 88.2374 140.02 91.0039C139.64 93.6487 140.57 111.364 142.239 118.886C142.368 119.467 142.945 119.805 143.495 119.623C144.934 119.136 147.567 118.148 149.067 116.998C151.191 115.368 150.811 102.564 150.811 102.564L149.372 86.1406L151.714 72.6868C151.714 72.6868 155.06 62.0672 154.571 61.3773C154.076 60.6873 154.184 57.7111 154.184 57.7111Z" fill="#24126A"></path><path d="M191.003 74.0667C191.003 74.0667 193.338 78.5107 190.257 84.4225C187.155 90.3817 179.697 102.564 179.697 102.564C179.697 102.564 182.113 119.582 181.78 123.749C181.448 127.936 178.319 132.806 177.525 134.369C176.724 135.931 170.229 139.874 162.709 136.12C155.223 132.38 154.572 127.273 153.825 121.72C153.085 116.207 153.316 116.505 153.316 116.505C153.316 116.505 149.828 127.469 147.724 125.413C146.821 124.534 146.76 121.841 146.998 119.001C147.513 112.96 147.703 106.933 147.425 100.974C147.418 100.751 147.412 100.568 147.412 100.42C147.418 98.5053 147.059 81.054 147.574 76.3597C148.083 71.6925 147.371 64.2655 149.841 61.2217C151.898 58.6919 154.185 57.7179 154.185 57.7179L157.68 57.5488C157.68 57.5488 178.034 55.8781 179.798 58.4687C181.57 61.0661 182.187 62.7301 182.187 62.7301C182.187 62.7301 188.329 69.1357 191.003 74.0667Z" fill="#453C9E"></path><path d="M174.877 55.5466C174.877 55.5466 175.718 56.0066 176.064 56.9671C176.411 57.9276 177.408 60.5521 177.958 61.2826C177.958 61.2826 168.952 69.7715 165.592 74.1276C162.212 78.5039 161.154 82.0889 161.154 82.0889L156.484 76.6303L157.937 75.0272L158.724 71.4422L160.102 67.377L161.093 63.3591L172.264 57.0347L174.877 55.5466Z" fill="#F0F6FF"></path><path d="M165.946 67.0997C165.946 67.0997 167.758 68.3105 168.383 69.9947C168.383 69.9947 166.666 68.7772 166.116 68.669C166.116 68.669 164.813 69.9271 164.575 70.4276C164.338 70.9349 164.582 75.5142 164.582 75.5142L163.951 76.4544L163.211 76.5356C163.211 76.5356 163.13 73.2482 163.041 73.0791C162.953 72.91 162.818 70.2923 162.872 70.0826C162.926 69.873 165.308 67.6273 165.308 67.6273L166.143 67.0726L165.946 67.0997Z" fill="#C4CCD6"></path><path d="M161.222 66.0986C161.222 66.0986 162.382 65.571 163.115 65.7334C163.841 65.9025 165.857 66.8968 166.163 67.2891C166.468 67.6814 166.081 68.1887 164.948 69.0613C163.814 69.9339 163.672 70.475 163.672 70.475C163.672 70.475 164.33 74.202 163.95 76.4544C163.95 76.4544 161.548 80.6955 161.045 82.7383C160.543 84.7878 158.398 76.1568 158.398 76.1568C158.398 76.1568 159.131 73.3903 159.478 72.6936C159.824 72.0037 161.14 68.2699 160.794 67.6205C160.455 66.9712 161.222 66.0986 161.222 66.0986Z" fill="#160A5B"></path><path opacity="0.6" d="M181.522 63.278L179.988 66.4638L177.287 66.3218L177.613 69.1221C177.613 69.1221 166.496 76.495 162.254 84.1925L162.519 85.0177C162.519 85.0177 167.493 76.8129 178.251 70.0353L178.61 69.8121L178.067 67.1064L180.463 67.5596L181.522 63.278Z" fill="#020230"></path><path d="M163.19 64.1302C163.19 64.1302 163.678 65.5169 165.117 65.6319C166.549 65.7469 174.293 62.7504 175.433 58.2387C175.433 58.2387 174.965 56.0675 174.917 55.6819C174.917 55.6819 175.46 55.2422 175.569 54.5658C175.671 53.8894 176.295 52.3675 176.485 51.894C176.675 51.4205 177.069 50.4668 176.845 49.7836C176.845 49.7836 179.159 37.1889 172.223 35.0311C165.307 32.8734 160.258 34.9635 157.977 42.0996C157.977 42.0996 157.428 44.0274 156.986 45.4478C156.708 46.3475 156.681 47.3147 156.946 48.2211C157.088 48.7284 157.204 49.2695 157.177 49.6348C157.095 50.5141 156.674 52.4893 157.034 54.9446C157.034 54.9446 156.477 56.2839 157.394 56.7777C158.31 57.2647 158.113 61.242 158.113 61.242L160.685 63.8664C160.685 63.8664 161.235 64.4482 163.19 64.1302Z" fill="#FCD1C5"></path><path d="M176.894 50.4668C176.894 50.4668 181.855 39.2452 173.86 34.6997C167.589 31.135 160.103 33.1575 157.836 41.2406C157.836 41.2406 156.961 43.0331 159.77 44.0274C162.587 45.0217 166.191 46.131 167.826 46.0904C169.469 46.0566 170.297 46.9698 170.324 49.1275C170.337 50.345 170.487 50.832 170.616 51.0214C170.745 51.2176 170.792 51.4543 170.779 51.6843L170.765 52.0969C170.751 52.3607 170.948 52.6448 171.193 52.7192C171.593 52.841 172.034 52.726 172.048 52.6381C172.048 52.6381 172.048 52.6381 172.048 52.6313C172.217 51.3055 172.95 50.115 174.063 49.3913C175.292 48.5999 176.717 48.2008 176.894 50.4668Z" fill="#AA8383"></path><path opacity="0.6" d="M159.485 72.6868C159.831 71.9969 161.148 68.2631 160.802 67.6138C160.456 66.9644 161.223 66.0918 161.223 66.0918C161.223 66.0918 162.383 65.5642 163.116 65.7266C163.191 65.7469 163.279 65.7739 163.381 65.801C163.381 65.8213 163.374 65.8416 163.374 65.8416C163.374 65.8416 162.404 67.5596 162.193 67.9723C161.983 68.3916 161.08 72.768 160.592 73.7488C160.103 74.7296 159.18 78.1319 159.18 78.1319L158.888 77.9763C158.603 76.9347 158.406 76.1433 158.406 76.1433C158.406 76.1433 159.139 73.3835 159.485 72.6868Z" fill="#020230"></path><path d="M160.218 61.472C160.218 61.472 161.439 63.2915 161.534 64.1844C160.903 64.0897 160.693 63.8665 160.693 63.8665L159.668 62.8248C159.953 62.1146 160.218 61.472 160.218 61.472Z" fill="#E2B1A6"></path><path d="M152.053 78.2198C152.053 78.2198 150.655 76.0756 150.723 74.2561C150.791 72.4365 151.266 70.2991 151.266 70.2991C151.266 70.2991 150.234 70.3262 150.296 68.8178C150.357 67.3094 150.791 65.8754 151.3 65.4966C151.816 65.1178 152.352 65.2193 152.352 65.2193C152.352 65.2193 152.732 63.9814 153.825 64.1708C153.825 64.1708 153.865 63.3862 154.795 62.7571C155.718 62.1348 156.322 63.0818 156.322 63.0818C156.322 63.0818 156.702 61.7628 157.069 61.5328C157.435 61.3029 158.114 61.242 158.114 61.242C158.114 61.242 159.899 61.0052 160.218 61.4787C160.537 61.9522 161.406 67.0659 161.338 67.3297C161.27 67.5867 160.842 70.2112 160.578 71.0499C160.306 71.8819 158.263 74.0193 157.938 75.034C157.612 76.0553 154.354 79.3359 154.313 79.3427C154.273 79.3359 152.053 78.2198 152.053 78.2198Z" fill="#FCD1C5"></path><path opacity="0.6" d="M153.316 116.498C153.316 116.498 153.411 98.7421 156.37 90.8754L154.829 93.412C154.829 93.412 152.373 103.822 152.895 117.736L153.316 116.498Z" fill="#020230"></path><path opacity="0.6" d="M153.784 88.6568C153.784 88.6568 167.059 100.528 167.12 100.683C167.174 100.832 186.524 88.7583 186.524 88.7583L187.114 90.1111C183.748 95.9688 179.703 102.571 179.703 102.571C179.703 102.571 179.995 104.627 180.361 107.481C180.361 107.481 170.805 117.648 164.84 116.349C159.702 115.226 154.212 98.2145 152.827 93.6419C152.603 92.9114 152.617 92.1268 152.861 91.3962L153.784 88.6568Z" fill="#020230"></path><path d="M151.258 76.4341C153.165 75.2978 156.606 74.9799 156.606 74.9799L152.588 78.4904C152.276 78.3348 152.052 78.2199 152.052 78.2199C152.052 78.2199 151.564 77.469 151.184 76.4815C151.211 76.468 151.224 76.4477 151.258 76.4341Z" fill="#E2B1A6"></path><path d="M175.774 81.3448C177.79 78.7812 180.566 76.7723 183.267 75.0272C185.696 73.4579 188.343 72.2674 189.782 73.2617C192.897 75.406 192.239 79.3562 190.78 83.3132C189.314 87.2905 175.923 109.68 166.551 109.186C166.551 109.186 159.791 102.199 156.683 96.7331C154.076 92.1471 149.814 84.2196 148.552 81.8589C148.335 81.4531 148.423 80.9525 148.762 80.6414C150.588 78.9842 156.214 74.0802 157.884 74.9054C157.884 74.9054 161.705 84.524 165.533 89.2588L168.526 92.1065C168.526 92.1065 171.037 87.5475 173.005 84.9163C173.718 83.9693 174.783 82.5962 175.774 81.3448Z" fill="#4846A5"></path><path d="M165.111 65.6319C163.679 65.5169 163.184 64.1302 163.184 64.1302C163.184 64.1302 171.151 60.9579 171.993 56.1148C171.993 56.1148 172.061 61.2149 169.95 63.907C167.839 65.0569 165.783 65.686 165.111 65.6319Z" fill="#E2B1A6"></path><path d="M172.061 52.6381C172.047 52.7328 171.606 52.8478 171.206 52.726C170.955 52.6516 170.765 52.3675 170.778 52.1037L170.799 51.6911C170.805 51.4544 170.765 51.2176 170.636 51.0282C170.507 50.8321 170.357 50.345 170.344 49.1343C170.33 48.167 170.147 47.4568 169.814 46.963L169.821 46.9562C169.821 46.9562 174.301 47.2944 177.945 47.2268C177.809 47.7476 177.728 48.2617 177.585 48.7284C177.273 49.7228 176.914 50.4803 176.914 50.4803C176.737 48.2144 175.312 48.6134 174.09 49.4116C172.964 50.1218 172.231 51.3123 172.061 52.6381Z" fill="#936D6D"></path><path d="M165.587 152.625C165.587 152.625 165.593 152.672 165.6 152.753C165.587 152.706 165.58 152.659 165.587 152.625Z" fill="#101F3B"></path><path opacity="0.6" d="M172.543 188.4C172.007 188.082 171.478 187.636 170.969 187.027C170.969 187.027 172.699 183.861 172.462 175.67C172.346 171.51 172.258 169.116 172.211 167.77C172.17 166.741 171.878 165.761 171.369 164.895C170.161 162.845 167.752 158.503 165.865 153.423C165.858 153.389 165.845 153.349 165.838 153.315C167.188 155.675 173.276 162.933 174.077 168.493C174.871 173.938 173.141 184.977 172.543 188.4Z" fill="#101F3B"></path><path d="M165.851 153.315C165.837 153.288 165.823 153.267 165.81 153.24C165.735 153.037 165.661 152.834 165.586 152.625C165.613 152.469 165.708 152.747 165.851 153.315Z" fill="#101F3B"></path><path opacity="0.6" d="M151.211 96.5843C151.116 97.3893 151.523 98.1063 152.127 98.1739C152.731 98.2483 153.301 97.6531 153.396 96.8481C153.491 96.0432 153.084 95.333 152.48 95.2586C151.876 95.1909 151.313 95.7794 151.211 96.5843Z" fill="#020230"></path><path opacity="0.6" d="M150.446 106.298C150.432 107.116 150.914 107.792 151.525 107.799C152.136 107.806 152.651 107.143 152.665 106.325C152.678 105.506 152.197 104.837 151.586 104.83C150.975 104.823 150.459 105.479 150.446 106.298Z" fill="#020230"></path><path opacity="0.6" d="M149.638 79.8635C149.638 79.8703 161.8 106.054 167.338 107.096C172.89 108.137 187.807 88.88 187.807 88.88C187.807 88.88 187.8 88.9071 187.787 88.9477C183.002 96.8684 173.616 109.558 166.551 109.186C166.551 109.186 159.791 102.199 156.683 96.7332C154.076 92.1471 149.814 84.2196 148.552 81.8589C148.335 81.4531 148.423 80.9525 148.762 80.6414C149 80.4317 149.299 80.1611 149.638 79.8635Z" fill="#020230"></path><path opacity="0.6" d="M168.531 92.1065C168.531 92.1065 170.072 94.5416 170.642 96.1041L168.81 91.606L168.531 92.1065Z" fill="#020230"></path><path opacity="0.5" d="M122.721 141.687L128.836 144.501L140.014 138.068L125.578 135.458L122.721 141.687Z" fill="#000028"></path><path d="M128.676 125.725H116.338L117.485 139.036C117.485 139.774 117.974 140.518 118.958 141.079C120.919 142.209 124.095 142.209 126.057 141.079C127.034 140.518 127.529 139.774 127.529 139.036L128.676 125.725Z" fill="#F2B42A"></path><path opacity="0.4" d="M128.676 125.725H116.338L116.528 127.916C116.813 128.275 117.193 128.626 117.668 128.944C120.023 130.5 123.912 130.804 126.566 129.682L126.158 139.415C126.138 139.841 125.996 140.254 125.717 140.579C125.317 141.045 124.55 141.6 123.07 141.911C124.163 141.843 125.222 141.566 126.057 141.086C127.034 140.524 127.529 139.78 127.529 139.043L128.452 128.369L128.676 125.725Z" fill="#06033E"></path><path opacity="0.4" d="M126.872 128.234C124.463 129.621 120.56 129.621 118.151 128.234C115.741 126.847 115.741 124.602 118.151 123.215C120.56 121.829 124.463 121.829 126.872 123.215C129.274 124.602 129.274 126.847 126.872 128.234Z" fill="#06033E"></path><path opacity="0.4" d="M126.26 126.638C124.183 127.828 120.824 127.828 118.747 126.638C116.67 125.447 116.67 123.506 118.747 122.316C120.824 121.125 124.183 121.125 126.26 122.316C128.337 123.506 128.337 125.441 126.26 126.638Z" fill="#06033E"></path><path d="M129.043 125.556V125.549C129.043 125.542 129.043 125.535 129.043 125.529L128.928 124.338L128.921 124.352C128.867 123.452 128.242 122.559 127.048 121.869C124.544 120.428 120.485 120.428 117.981 121.869C116.752 122.573 116.128 123.499 116.108 124.419L115.992 125.481C115.992 125.508 115.985 125.535 115.985 125.562V125.583C115.917 126.59 116.555 127.619 117.892 128.39C120.444 129.858 124.591 129.858 127.143 128.39C128.48 127.605 129.118 126.577 129.043 125.556Z" fill="#E39A65"></path><path d="M126.26 126.638C124.183 127.828 120.824 127.828 118.747 126.638C116.67 125.447 116.67 123.506 118.747 122.316C120.824 121.125 124.183 121.125 126.26 122.316C128.337 123.506 128.337 125.441 126.26 126.638Z" fill="#F2B42A"></path><path d="M122.256 127.531C125.19 127.531 127.57 126.162 127.57 124.473C127.57 122.785 125.19 121.416 122.256 121.416C119.321 121.416 116.941 122.785 116.941 124.473C116.941 126.162 119.321 127.531 122.256 127.531Z" fill="#936D32"></path><path opacity="0.4" d="M119.379 122.769C121.456 121.578 124.815 121.578 126.892 122.769C126.919 122.782 126.939 122.803 126.967 122.816C126.77 122.64 126.532 122.471 126.261 122.316C124.184 121.125 120.825 121.118 118.748 122.316C116.698 123.492 116.678 125.393 118.673 126.59C117.343 125.4 117.574 123.804 119.379 122.769Z" fill="#06033E"></path><path d="M118.747 122.843C120.824 121.653 124.183 121.653 126.26 122.843C127.183 123.371 127.692 124.047 127.794 124.737C127.923 123.871 127.414 122.972 126.26 122.309C124.183 121.118 120.824 121.112 118.747 122.309C117.593 122.972 117.084 123.865 117.213 124.737C117.315 124.047 117.831 123.371 118.747 122.843Z" fill="#F2B42A"></path><path d="M127.083 121.896C124.585 120.428 120.506 120.395 117.981 121.815C115.457 123.242 115.436 125.583 117.934 127.05C120.431 128.518 124.51 128.552 127.035 127.132C129.56 125.711 129.58 123.364 127.083 121.896ZM126.261 126.638C125.569 127.037 124.728 127.301 123.845 127.429L123.75 127.111C123.71 126.983 123.594 126.895 123.458 126.895H121.551C121.416 126.895 121.3 126.983 121.259 127.111L121.164 127.429C120.282 127.294 119.441 127.037 118.748 126.638C116.672 125.447 116.672 123.506 118.748 122.316C120.825 121.125 124.185 121.125 126.261 122.316C128.338 123.506 128.338 125.441 126.261 126.638Z" fill="#E39A65"></path><path d="M126.26 122.086C124.183 120.895 120.823 120.888 118.747 122.086C117.661 122.708 117.145 123.54 117.192 124.358C117.24 123.614 117.756 122.877 118.747 122.309C120.823 121.118 124.183 121.118 126.26 122.309C127.244 122.877 127.766 123.614 127.814 124.358C127.868 123.54 127.352 122.708 126.26 122.086Z" fill="white"></path><path d="M127.034 126.908C124.509 128.336 120.43 128.295 117.932 126.827C116.745 126.13 116.127 125.231 116.073 124.331C116.025 125.305 116.643 126.3 117.932 127.057C120.43 128.525 124.509 128.559 127.034 127.138C128.357 126.394 128.995 125.393 128.934 124.399C128.893 125.312 128.255 126.218 127.034 126.908Z" fill="white"></path></g><defs><linearGradient id="paint0_linear_276_5756" x1="85.7792" y1="133.851" x2="69.746" y2="122.089" gradientUnits="userSpaceOnUse"><stop stop-color="#2D0979"></stop><stop offset="1" stop-color="#5B04F7"></stop></linearGradient><linearGradient id="paint1_linear_276_5756" x1="111.9" y1="146.824" x2="84.5231" y2="133.579" gradientUnits="userSpaceOnUse"><stop stop-color="#2D0979"></stop><stop offset="1" stop-color="#5B04F7"></stop></linearGradient><linearGradient id="paint2_linear_276_5756" x1="114.951" y1="156.789" x2="60.6273" y2="170.092" gradientUnits="userSpaceOnUse"><stop stop-color="#5761D7"></stop><stop offset="0.1779" stop-color="#5C66D9"></stop><stop offset="0.3876" stop-color="#6A73DF"></stop><stop offset="0.6134" stop-color="#8289E8"></stop><stop offset="0.849" stop-color="#A3A7F5"></stop><stop offset="1" stop-color="#BCBEFF"></stop></linearGradient><linearGradient id="paint3_linear_276_5756" x1="108.575" y1="150.663" x2="94.5587" y2="137.069" gradientUnits="userSpaceOnUse"><stop stop-color="#5761D7"></stop><stop offset="0.1779" stop-color="#5C66D9"></stop><stop offset="0.3876" stop-color="#6A73DF"></stop><stop offset="0.6134" stop-color="#8289E8"></stop><stop offset="0.849" stop-color="#A3A7F5"></stop><stop offset="1" stop-color="#BCBEFF"></stop></linearGradient><linearGradient id="paint4_linear_276_5756" x1="0" y1="128.361" x2="143.057" y2="128.361" gradientUnits="userSpaceOnUse"><stop stop-color="#42E8E0"></stop><stop offset="0.1507" stop-color="#43E3E0"></stop><stop offset="0.3285" stop-color="#45D5DF"></stop><stop offset="0.5199" stop-color="#49BDDD"></stop><stop offset="0.7209" stop-color="#4E9CDB"></stop><stop offset="0.9274" stop-color="#5472D8"></stop><stop offset="1" stop-color="#5761D7"></stop></linearGradient><clipPath id="clip0_276_5756"><rect width="192" height="212" fill="white"></rect></clipPath></defs></svg> 