<?xml version="1.0" encoding="UTF-8"?> <svg xmlns="http://www.w3.org/2000/svg" width="250" height="225" viewBox="0 0 250 225" fill="none"><g clip-path="url(#clip0_276_6556)"><path d="M64.1184 191.05C30.1149 172.356 29.9424 142.151 63.7272 123.578C97.5119 105.005 152.455 105.1 186.459 123.794C220.462 142.489 220.635 172.694 186.85 191.267C153.065 209.84 98.1167 209.736 64.1184 191.05ZM167.642 134.139C144.107 121.192 106.066 121.128 82.6743 133.988C59.2828 146.847 59.3997 167.759 82.9442 180.701C106.489 193.643 144.52 193.711 167.912 180.852C191.303 167.992 191.172 147.077 167.642 134.139Z" fill="#102140"></path><path d="M64.1341 185.129C30.1396 166.43 29.9671 136.225 63.7519 117.652C97.5366 99.0787 152.48 99.1735 186.483 117.868C220.487 136.562 220.659 166.767 186.875 185.34C153.09 203.913 98.1323 203.815 64.1341 185.129Z" fill="url(#paint0_linear_276_6556)"></path><g opacity="0.5"><path d="M64.1453 186.126C46.9004 176.647 38.3625 164.203 38.5394 151.82C38.8251 163.868 47.3558 175.901 64.1432 185.124C98.1467 203.818 153.09 203.913 186.875 185.34C203.522 176.188 211.919 164.208 212.089 152.174C212.386 164.539 203.987 176.935 186.877 186.342C153.092 204.915 98.1345 204.816 64.1453 186.126Z" fill="url(#paint1_radial_276_6556)"></path></g><path d="M212.099 151.952C211.95 178.301 172.973 199.458 125.043 199.208C77.1121 198.958 38.3776 177.396 38.5268 151.047C38.6759 124.699 77.6523 103.542 125.583 103.792C173.513 104.042 212.248 125.604 212.099 151.952Z" fill="#231F20"></path><path d="M184.069 183.806C216.319 166.076 216.153 137.239 183.697 119.4C151.241 101.56 98.7912 101.466 66.5405 119.196C34.2898 136.926 34.4558 165.763 66.912 183.602C99.3683 201.441 151.827 201.531 184.069 183.806Z" fill="#F2B42A"></path><path d="M196.312 151.87C196.19 173.428 164.303 190.739 125.09 190.535C85.8775 190.33 54.1882 172.688 54.3102 151.13C54.4323 129.571 86.3195 112.261 125.532 112.465C164.745 112.67 196.434 130.312 196.312 151.87Z" fill="#F1F2F2"></path><path d="M167.286 174.569C190.324 161.904 190.203 141.306 167.024 128.567C143.839 115.819 106.38 115.758 83.3429 128.423C60.3054 141.088 60.426 161.686 83.6056 174.425C106.785 187.165 144.249 187.234 167.286 174.569Z" fill="#DD821F"></path><path d="M172.646 151.747C172.564 166.117 151.306 177.656 125.164 177.52C99.0225 177.383 77.8963 165.623 77.9777 151.253C78.059 136.883 99.3172 125.344 125.459 125.48C151.601 125.616 172.727 137.376 172.646 151.747Z" fill="#F1F2F2"></path><path d="M150.493 165.337C164.317 157.738 164.242 145.378 150.334 137.73C136.426 130.082 113.948 130.037 100.124 137.637C86.2996 145.237 86.3748 157.597 100.283 165.245C114.196 172.902 136.668 172.937 150.493 165.337Z" fill="#F2B42A"></path><path d="M148.979 151.623C148.938 158.811 138.309 164.583 125.238 164.515C112.167 164.447 101.604 158.564 101.645 151.376C101.686 144.189 112.315 138.417 125.386 138.485C138.457 138.553 149.02 144.435 148.979 151.623Z" fill="#F1F2F2"></path><path d="M133.706 156.114C138.317 153.58 138.287 149.458 133.656 146.91C129.025 144.362 121.525 144.348 116.922 146.878C112.311 149.413 112.341 153.534 116.972 156.082C121.604 158.63 129.104 158.644 133.706 156.114Z" fill="#DD821F"></path><path d="M66.9223 183.597C49.259 173.887 41.1906 160.92 42.6649 148.261C41.8232 160.526 49.9529 172.976 67.0374 182.37C99.4937 200.209 151.943 200.303 184.194 182.573C198.89 174.494 206.832 164.1 208.08 153.503C207.325 164.533 199.338 175.412 184.07 183.806C151.828 201.53 99.3695 201.441 66.9223 183.597Z" fill="url(#paint2_radial_276_6556)"></path><path d="M83.604 174.425C70.864 167.426 65.1072 158.052 66.3161 148.927C65.7632 157.656 71.5669 166.51 83.7335 173.202C106.918 185.95 144.377 186.01 167.414 173.345C177.789 167.642 183.455 160.32 184.439 152.841C183.942 160.744 178.237 168.56 167.29 174.578C144.247 187.234 106.784 187.165 83.604 174.425Z" fill="url(#paint3_radial_276_6556)"></path><path d="M100.288 165.254C92.4798 160.96 89.0345 155.178 89.9546 149.59C89.6905 154.783 93.1684 160.04 100.412 164.022C114.32 171.67 136.806 171.709 150.621 164.114C156.685 160.781 160.066 156.536 160.795 152.17C160.553 156.96 157.133 161.698 150.497 165.346C136.668 172.937 114.196 172.902 100.288 165.254Z" fill="url(#paint4_radial_276_6556)"></path><path d="M116.971 156.082C114.194 154.555 113.08 152.459 113.622 150.478C113.736 152.063 114.882 153.635 117.095 154.85C121.727 157.398 129.227 157.412 133.829 154.882C135.672 153.869 136.756 152.604 137.119 151.287C137.243 153.028 136.11 154.792 133.705 156.114C129.103 158.644 121.602 158.63 116.971 156.082Z" fill="url(#paint5_radial_276_6556)"></path><path d="M126.088 39.7592L123.634 36.729C122.29 35.0708 119.53 36.3686 120.09 38.3891L125.96 59.6876L126.088 39.7592Z" fill="#7BD834"></path><path d="M125.833 40.0735L123.379 37.0433C122.523 35.9921 121.11 36.1355 120.33 36.8865C121.013 35.8771 122.679 35.5495 123.636 36.729L126.09 39.7592L125.962 59.6876L125.712 58.7763L125.833 40.0735Z" fill="url(#paint6_radial_276_6556)"></path><path d="M125.579 151.373C125.67 151.323 125.708 151.268 125.713 151.196C125.713 151.196 127.435 147.449 127.453 140.593C127.47 130.799 127.056 129.458 127.056 129.458C127.054 129.195 126.869 129.469 126.513 129.261C125.789 128.865 124.629 128.868 123.912 129.262C123.558 129.457 123.369 129.146 123.366 129.401C123.366 129.401 123.009 130.727 122.998 140.53C122.99 147.403 124.797 151.181 124.797 151.181C124.801 151.248 124.837 151.308 124.93 151.361C125.115 151.467 125.406 151.468 125.579 151.373Z" fill="#7BD834"></path><path d="M126.509 130.116C127.227 129.721 127.224 129.078 126.504 128.689C125.779 128.293 124.62 128.296 123.903 128.691C123.185 129.085 123.189 129.728 123.908 130.117C124.633 130.513 125.792 130.51 126.509 130.116Z" fill="#F6C24B"></path><path d="M126.411 129.893C126.747 129.709 126.915 129.467 126.919 129.234L127.728 38.1319C127.727 37.8905 127.55 38.1376 127.21 37.9558C126.519 37.5749 125.406 37.5759 124.725 37.9502C124.39 38.1348 124.202 37.8459 124.203 38.0873C124.203 38.0873 123.41 129.215 123.415 129.224C123.417 129.465 123.601 129.71 123.932 129.896C124.612 130.26 125.731 130.268 126.411 129.893Z" fill="url(#paint7_linear_276_6556)"></path><path d="M127.215 38.7603C127.896 38.386 127.899 37.7732 127.208 37.3923C126.517 37.0114 125.405 37.0124 124.724 37.3867C124.043 37.7609 124.039 38.3737 124.73 38.7546C125.421 39.1355 126.525 39.1395 127.215 38.7603Z" fill="url(#paint8_linear_276_6556)"></path><path d="M124.483 39.9046L124.504 60.1778L116.291 48.8686C113.216 44.6353 116.885 38.9301 122.239 39.6169L124.483 39.9046Z" fill="#7BD834"></path><path d="M124.585 40.1715L124.605 60.4447L116.393 49.1355C113.317 44.9021 116.987 39.1969 122.341 39.8838L124.585 40.1715Z" fill="#7BD834"></path><path d="M122.578 40.0538C117.218 39.3583 113.549 45.0635 116.629 49.3055L124.61 60.2925L124.611 60.4535L116.398 49.1443C113.323 44.9109 116.992 39.2057 122.347 39.8926L124.591 40.1803L124.59 40.3189L122.578 40.0538Z" fill="url(#paint9_radial_276_6556)"></path><path d="M126.95 39.8397L128.582 39.4379C132.942 38.3661 136.58 42.7284 134.505 46.5315L127.115 60.0331L126.95 39.8397Z" fill="#7BD834"></path><path d="M126.891 40.1829L128.523 39.7811C132.884 38.7092 136.521 43.0715 134.446 46.8747L127.056 60.3762L126.891 40.1829Z" fill="#7BD834"></path><path d="M134.279 47.1392C136.363 43.331 132.731 38.9774 128.356 40.0456L126.881 40.4071L126.881 40.188L128.513 39.7862C132.874 38.7144 136.512 43.0766 134.436 46.8798L127.047 60.3814L127.049 60.3454L134.279 47.1392Z" fill="url(#paint10_radial_276_6556)"></path><path d="M124.36 146.269C125.323 146.281 126.173 139.44 126.265 130.988C126.347 122.541 125.638 115.682 124.665 115.675C123.702 115.663 122.851 122.504 122.76 130.956C122.677 139.403 123.396 146.257 124.36 146.269Z" fill="url(#paint11_radial_276_6556)"></path></g><defs><linearGradient id="paint0_linear_276_6556" x1="63.7489" y1="117.651" x2="120.899" y2="221.608" gradientUnits="userSpaceOnUse"><stop stop-color="#311B61"></stop><stop offset="0.2031" stop-color="#290F52"></stop><stop offset="0.4949" stop-color="#200041"></stop><stop offset="1" stop-color="#0F001F"></stop></linearGradient><radialGradient id="paint1_radial_276_6556" cx="0" cy="0" r="1" gradientUnits="userSpaceOnUse" gradientTransform="translate(103.37 191.673) rotate(58.7699) scale(32.9017 33.6835)"><stop stop-color="white"></stop><stop offset="1"></stop></radialGradient><radialGradient id="paint2_radial_276_6556" cx="0" cy="0" r="1" gradientUnits="userSpaceOnUse" gradientTransform="translate(126.833 158.63) rotate(58.7699) scale(60.9613 93.6147)"><stop stop-color="white"></stop><stop offset="0.0656" stop-color="#D8D8D8"></stop><stop offset="0.1615" stop-color="#A6A6A6"></stop><stop offset="0.2622" stop-color="#797979"></stop><stop offset="0.3658" stop-color="#545454"></stop><stop offset="0.4731" stop-color="#353535"></stop><stop offset="0.5852" stop-color="#1E1E1E"></stop><stop offset="0.7042" stop-color="#0D0D0D"></stop><stop offset="0.835" stop-color="#030303"></stop><stop offset="1"></stop></radialGradient><radialGradient id="paint3_radial_276_6556" cx="0" cy="0" r="1" gradientUnits="userSpaceOnUse" gradientTransform="translate(126.364 156.489) rotate(58.7699) scale(43.6011 66.9557)"><stop stop-color="white"></stop><stop offset="0.0656" stop-color="#D8D8D8"></stop><stop offset="0.1615" stop-color="#A6A6A6"></stop><stop offset="0.2622" stop-color="#797979"></stop><stop offset="0.3658" stop-color="#545454"></stop><stop offset="0.4731" stop-color="#353535"></stop><stop offset="0.5852" stop-color="#1E1E1E"></stop><stop offset="0.7042" stop-color="#0D0D0D"></stop><stop offset="0.835" stop-color="#030303"></stop><stop offset="1"></stop></radialGradient><radialGradient id="paint4_radial_276_6556" cx="0" cy="0" r="1" gradientUnits="userSpaceOnUse" gradientTransform="translate(125.894 154.349) rotate(58.7699) scale(26.2425 40.2991)"><stop stop-color="white"></stop><stop offset="0.0656" stop-color="#D8D8D8"></stop><stop offset="0.1615" stop-color="#A6A6A6"></stop><stop offset="0.2622" stop-color="#797979"></stop><stop offset="0.3658" stop-color="#545454"></stop><stop offset="0.4731" stop-color="#353535"></stop><stop offset="0.5852" stop-color="#1E1E1E"></stop><stop offset="0.7042" stop-color="#0D0D0D"></stop><stop offset="0.835" stop-color="#030303"></stop><stop offset="1"></stop></radialGradient><radialGradient id="paint5_radial_276_6556" cx="0" cy="0" r="1" gradientUnits="userSpaceOnUse" gradientTransform="translate(125.526 152.27) rotate(58.7699) scale(8.86577 9.07643)"><stop stop-color="white"></stop><stop offset="0.0656" stop-color="#D8D8D8"></stop><stop offset="0.1615" stop-color="#A6A6A6"></stop><stop offset="0.2622" stop-color="#797979"></stop><stop offset="0.3658" stop-color="#545454"></stop><stop offset="0.4731" stop-color="#353535"></stop><stop offset="0.5852" stop-color="#1E1E1E"></stop><stop offset="0.7042" stop-color="#0D0D0D"></stop><stop offset="0.835" stop-color="#030303"></stop><stop offset="1"></stop></radialGradient><radialGradient id="paint6_radial_276_6556" cx="0" cy="0" r="1" gradientUnits="userSpaceOnUse" gradientTransform="translate(123.143 41.7957) rotate(105.714) scale(8.7413 9.11734)"><stop stop-color="white"></stop><stop offset="0.0656" stop-color="#D8D8D8"></stop><stop offset="0.1615" stop-color="#A6A6A6"></stop><stop offset="0.2622" stop-color="#797979"></stop><stop offset="0.3658" stop-color="#545454"></stop><stop offset="0.4731" stop-color="#353535"></stop><stop offset="0.5852" stop-color="#1E1E1E"></stop><stop offset="0.7042" stop-color="#0D0D0D"></stop><stop offset="0.835" stop-color="#030303"></stop><stop offset="1"></stop></radialGradient><linearGradient id="paint7_linear_276_6556" x1="127.751" y1="83.917" x2="123.372" y2="83.9171" gradientUnits="userSpaceOnUse"><stop offset="0.0354" stop-color="#1E1F21"></stop><stop offset="0.117" stop-color="#2D2E30"></stop><stop offset="0.1414" stop-color="#323336"></stop><stop offset="0.2677" stop-color="#0E0E0F"></stop><stop offset="0.3522" stop-color="#131415"></stop><stop offset="0.4644" stop-color="#232326"></stop><stop offset="0.592" stop-color="#3C3D41"></stop><stop offset="0.7301" stop-color="#5E6167"></stop><stop offset="0.7677" stop-color="#696C73"></stop><stop offset="1" stop-color="#37383C"></stop></linearGradient><linearGradient id="paint8_linear_276_6556" x1="128.619" y1="36.4209" x2="124.68" y2="39.1326" gradientUnits="userSpaceOnUse"><stop offset="0.0354" stop-color="#1E1F21"></stop><stop offset="0.3101" stop-color="#2C2E30"></stop><stop offset="0.84" stop-color="#515359"></stop><stop offset="1" stop-color="#5D6066"></stop></linearGradient><radialGradient id="paint9_radial_276_6556" cx="0" cy="0" r="1" gradientUnits="userSpaceOnUse" gradientTransform="translate(118.888 43.0735) rotate(105.714) scale(6.30497 6.57621)"><stop stop-color="white"></stop><stop offset="0.0656" stop-color="#D8D8D8"></stop><stop offset="0.1615" stop-color="#A6A6A6"></stop><stop offset="0.2622" stop-color="#797979"></stop><stop offset="0.3658" stop-color="#545454"></stop><stop offset="0.4731" stop-color="#353535"></stop><stop offset="0.5852" stop-color="#1E1E1E"></stop><stop offset="0.7042" stop-color="#0D0D0D"></stop><stop offset="0.835" stop-color="#030303"></stop><stop offset="1"></stop></radialGradient><radialGradient id="paint10_radial_276_6556" cx="0" cy="0" r="1" gradientUnits="userSpaceOnUse" gradientTransform="translate(132.701 39.1627) rotate(105.714) scale(5.49507 5.73146)"><stop stop-color="white"></stop><stop offset="0.0656" stop-color="#D8D8D8"></stop><stop offset="0.1615" stop-color="#A6A6A6"></stop><stop offset="0.2622" stop-color="#797979"></stop><stop offset="0.3658" stop-color="#545454"></stop><stop offset="0.4731" stop-color="#353535"></stop><stop offset="0.5852" stop-color="#1E1E1E"></stop><stop offset="0.7042" stop-color="#0D0D0D"></stop><stop offset="0.835" stop-color="#030303"></stop><stop offset="1"></stop></radialGradient><radialGradient id="paint11_radial_276_6556" cx="0" cy="0" r="1" gradientUnits="userSpaceOnUse" gradientTransform="translate(124.515 130.968) rotate(90.5788) scale(15.2961 1.74828)"><stop stop-color="#972A74"></stop><stop offset="0.0413" stop-color="#8A266A"></stop><stop offset="0.1941" stop-color="#601B4A"></stop><stop offset="0.35" stop-color="#3D112F"></stop><stop offset="0.5074" stop-color="#220A1B"></stop><stop offset="0.6667" stop-color="#0F040C"></stop><stop offset="0.8293" stop-color="#040103"></stop><stop offset="1"></stop></radialGradient><clipPath id="clip0_276_6556"><rect width="250" height="225" fill="white"></rect></clipPath></defs></svg> 