<?xml version="1.0" encoding="UTF-8"?> <svg xmlns="http://www.w3.org/2000/svg" width="314" height="271" viewBox="0 0 314 271" fill="none"><g clip-path="url(#clip0_307_5750)"><g clip-path="url(#clip1_307_5750)"><path d="M260.836 75.7968C263.246 76.4183 265.618 77.0787 267.95 77.752V94.9343C265.618 94.261 263.246 93.6006 260.836 92.9791V75.7968Z" fill="#6A8AFF"></path><path opacity="0.5" d="M244.352 76.509C246.93 77.001 249.483 77.5319 251.984 78.0757V90.8556C249.483 90.2988 246.93 89.7809 244.352 89.2889V76.509Z" fill="#6A8AFF"></path><path d="M226.83 62.512C229.564 62.8616 232.26 63.25 234.917 63.6773V87.6444C232.247 87.2301 229.551 86.8416 226.83 86.4791V62.512Z" fill="#6A8AFF"></path><path opacity="0.5" d="M208.402 47.4144C211.253 47.6215 214.091 47.8546 216.891 48.1395V85.3526C214.091 85.0807 211.266 84.8347 208.402 84.6275V47.4144Z" fill="#6A8AFF"></path><path opacity="0.5" d="M189.184 55.4034C192.151 55.4552 195.093 55.5329 198.022 55.6494V84.0448C195.106 83.9283 192.151 83.8376 189.184 83.7988V55.4034Z" fill="#6A8AFF"></path><path d="M169.797 25.6872C172.687 25.5707 175.616 25.493 178.544 25.4412V83.7988C175.603 83.8376 172.687 83.9283 169.797 84.0448V25.6872Z" fill="#6A8AFF"></path><path d="M151.033 37.7032C153.819 37.4313 156.632 37.1982 159.47 36.991V84.6145C156.632 84.8217 153.819 85.0548 151.033 85.3267V37.7032Z" fill="#6A8AFF"></path><path d="M133.059 22.1524C135.715 21.738 138.411 21.3496 141.132 21V86.4402C138.411 86.7898 135.728 87.1783 133.072 87.5926V22.1524H133.059Z" fill="#6A8AFF"></path><g opacity="0.5"><g opacity="0.11"><path d="M175.385 227.886C172.573 226.255 169.1 226.255 166.275 227.886L111.989 259.13C111.134 259.623 111.134 260.853 111.989 261.345L166.728 292.925C169.216 294.363 172.275 294.363 174.763 292.925L229.593 261.371C230.448 260.878 230.448 259.648 229.593 259.156L175.385 227.886Z" fill="#6A8AFF"></path></g><g opacity="0.11"><path d="M175.385 218.745C172.573 217.113 169.1 217.113 166.275 218.745L111.989 249.989C111.134 250.481 111.134 251.711 111.989 252.203L166.728 283.784C169.216 285.221 172.275 285.221 174.763 283.784L229.593 252.229C230.448 251.737 230.448 250.507 229.593 250.015L175.385 218.745Z" fill="#5761D7"></path></g><g opacity="0.11"><path d="M175.385 209.604C172.573 207.972 169.1 207.972 166.275 209.604L111.989 240.848C111.134 241.34 111.134 242.57 111.989 243.062L166.728 274.642C169.216 276.08 172.275 276.08 174.763 274.642L229.593 243.088C230.448 242.596 230.448 241.365 229.593 240.873L175.385 209.604Z" fill="#5761D7"></path></g><g opacity="0.11"><path d="M175.385 200.475C172.573 198.844 169.1 198.844 166.275 200.475L111.989 231.719C111.134 232.211 111.134 233.441 111.989 233.933L166.728 265.514C169.216 266.951 172.275 266.951 174.763 265.514L229.593 233.959C230.448 233.467 230.448 232.237 229.593 231.745L175.385 200.475Z" fill="url(#paint0_linear_307_5750)"></path></g><path opacity="0.11" d="M229.592 231.745L175.384 200.475C172.572 198.844 169.099 198.844 166.274 200.475L111.989 231.719C111.561 231.965 111.354 232.392 111.354 232.833V260.244C111.354 260.671 111.561 261.112 111.989 261.358L166.728 292.938C169.216 294.375 172.274 294.375 174.762 292.938L229.592 261.383C230.02 261.137 230.227 260.71 230.227 260.27V232.859C230.24 232.418 230.02 231.991 229.592 231.745Z" fill="#6A8AFF"></path></g><g opacity="0.11"><path d="M175.385 190.078C172.573 188.446 169.1 188.446 166.275 190.078L111.989 221.322C111.134 221.814 111.134 223.044 111.989 223.536L166.728 255.117C169.216 256.554 172.275 256.554 174.763 255.117L229.593 223.562C230.448 223.07 230.448 221.84 229.593 221.348L175.385 190.078Z" fill="#5761D7"></path></g><g opacity="0.11"><path d="M175.385 180.949C172.573 179.318 169.1 179.318 166.275 180.949L111.989 212.193C111.134 212.685 111.134 213.915 111.989 214.407L166.728 245.988C169.216 247.425 172.275 247.425 174.763 245.988L229.593 214.433C230.448 213.941 230.448 212.711 229.593 212.219L175.385 180.949Z" fill="#5761D7"></path></g><g opacity="0.11"><path d="M175.385 171.808C172.573 170.176 169.1 170.176 166.275 171.808L111.989 203.052C111.134 203.544 111.134 204.774 111.989 205.266L166.728 236.847C169.216 238.284 172.275 238.284 174.763 236.847L229.593 205.292C230.448 204.8 230.448 203.57 229.593 203.078L175.385 171.808Z" fill="#5761D7"></path></g><g opacity="0.11"><path d="M175.385 162.666C172.573 161.035 169.1 161.035 166.275 162.666L111.989 193.91C111.134 194.402 111.134 195.632 111.989 196.125L166.728 227.705C169.216 229.142 172.275 229.142 174.763 227.705L229.593 196.15C230.448 195.658 230.448 194.428 229.593 193.936L175.385 162.666Z" fill="#5761D7"></path></g><path opacity="0.11" d="M229.592 193.936L175.384 162.666C172.572 161.035 169.099 161.035 166.274 162.666L111.989 193.91C111.561 194.156 111.354 194.584 111.354 195.024V222.435C111.354 222.863 111.561 223.303 111.989 223.549L166.728 255.13C169.216 256.567 172.274 256.567 174.762 255.13L229.592 223.575C230.02 223.329 230.227 222.901 230.227 222.461V195.05C230.24 194.623 230.02 194.182 229.592 193.936Z" fill="#5761D7"></path><g opacity="0.11"><path d="M175.385 152.282C172.573 150.65 169.1 150.65 166.275 152.282L111.989 183.526C111.134 184.018 111.134 185.248 111.989 185.74L166.728 217.321C169.216 218.758 172.275 218.758 174.763 217.321L229.593 185.766C230.448 185.274 230.448 184.044 229.593 183.552L175.385 152.282Z" fill="#6A8AFF"></path></g><g opacity="0.11"><path d="M175.385 143.14C172.573 141.509 169.1 141.509 166.275 143.14L111.989 174.384C111.134 174.876 111.134 176.107 111.989 176.599L166.728 208.179C169.216 209.617 172.275 209.617 174.763 208.179L229.593 176.624C230.448 176.132 230.448 174.902 229.593 174.41L175.385 143.14Z" fill="#5761D7"></path></g><g opacity="0.11"><path d="M175.385 133.999C172.573 132.368 169.1 132.368 166.275 133.999L111.989 165.243C111.134 165.735 111.134 166.965 111.989 167.457L166.728 199.038C169.216 200.475 172.275 200.475 174.763 199.038L229.593 167.483C230.448 166.991 230.448 165.761 229.593 165.269L175.385 133.999Z" fill="#5761D7"></path></g><g opacity="0.11"><path d="M175.385 124.871C172.573 123.239 169.1 123.239 166.275 124.871L111.989 156.115C111.134 156.607 111.134 157.837 111.989 158.329L166.728 189.909C169.216 191.347 172.275 191.347 174.763 189.909L229.593 158.355C230.448 157.863 230.448 156.632 229.593 156.14L175.385 124.871Z" fill="url(#paint1_linear_307_5750)"></path></g><path opacity="0.5" d="M229.592 156.14L175.384 124.871C172.572 123.239 169.099 123.239 166.274 124.871L111.989 156.115C111.561 156.361 111.354 156.788 111.354 157.228V184.639C111.354 185.067 111.561 185.507 111.989 185.753L166.728 217.334C169.216 218.771 172.274 218.771 174.762 217.334L229.592 185.779C230.02 185.533 230.227 185.106 230.227 184.665V157.254C230.24 156.814 230.02 156.386 229.592 156.14Z" fill="#6A8AFF"></path><g opacity="0.11"><path d="M175.385 124.871C172.573 123.239 169.1 123.239 166.275 124.871L111.989 156.115C111.134 156.607 111.134 157.837 111.989 158.329L166.728 189.909C169.216 191.347 172.275 191.347 174.763 189.909L229.593 158.355C230.448 157.863 230.448 156.632 229.593 156.14L175.385 124.871Z" fill="url(#paint2_linear_307_5750)"></path></g><path d="M229.592 157.099L174.763 188.653C172.275 190.091 169.216 190.091 166.728 188.653L111.989 157.073C111.782 156.956 111.626 156.788 111.509 156.594C111.185 157.176 111.341 157.966 111.989 158.329L166.728 189.909C169.216 191.347 172.275 191.347 174.763 189.909L229.592 158.355C230.24 157.979 230.396 157.189 230.072 156.62C229.968 156.801 229.8 156.969 229.592 157.099Z" fill="#5761D7"></path><path d="M117.729 166.745L119.076 167.522V166.629L117.729 165.852V166.745Z" fill="#6A8AFF"></path><path d="M117.729 172.857L119.076 173.633V168.351L117.729 167.574V172.857Z" fill="#6A8AFF"></path><path d="M117.729 175.783L119.076 176.56V174.462L117.729 173.685V175.783Z" fill="#6A8AFF"></path><path d="M117.729 178.813L119.076 179.59V177.492L117.729 176.715V178.813Z" fill="#6A8AFF"></path><path d="M115.721 168.506L117.068 169.283V167.185L115.721 166.408V168.506Z" fill="#6A8AFF"></path><path d="M115.721 172.52L117.068 173.297V170.215L115.721 169.438V172.52Z" fill="#6A8AFF"></path><path d="M115.721 176.21L117.068 176.987V174.346L115.721 173.569V176.21Z" fill="#6A8AFF"></path><path d="M117.729 181.843L119.076 182.62V180.522L117.729 179.745V181.843Z" fill="#6A8AFF"></path><path d="M115.721 165.593L117.068 166.37V165.463L115.721 164.686V165.593Z" fill="#6A8AFF"></path><path d="M116.719 184.199L119.077 185.559V184.678L116.719 183.319V184.199Z" fill="#6A8AFF"></path><path opacity="0.2" d="M170.797 174.138C186.894 174.138 199.942 166.608 199.942 157.319C199.942 148.029 186.894 140.499 170.797 140.499C154.701 140.499 141.652 148.029 141.652 157.319C141.652 166.608 154.701 174.138 170.797 174.138Z" fill="#180D5B"></path><path d="M170.94 143.464L170.992 143.723L171.07 143.555C171.07 143.555 171.471 144.914 171.121 145.588C170.784 146.261 170.279 147.103 169.553 148.048C168.828 148.993 167.674 150.961 167.376 151.35C167.078 151.725 165.316 153.201 163.113 153.421C160.91 153.654 160.352 152.385 160.534 151.712C160.715 151.026 161.895 149.226 163.19 147.75C164.486 146.274 165.471 144.383 165.471 144.383L170.94 143.464Z" fill="#160A5B"></path><path d="M164.33 137.482C164.33 137.482 164.395 138.893 164.253 139.476C164.11 140.059 160.87 140.24 159.717 140.383C158.564 140.525 156.568 141.354 155.933 141.651C155.311 141.962 151.112 142.402 150.594 140.862C150.075 139.321 152.706 138.013 154.481 137.612C156.257 137.197 159.16 136.317 159.16 136.317L164.33 137.482Z" fill="#160A5B"></path><path d="M175.541 109.553C175.541 109.553 175.658 113.515 174.336 118.966C173.014 124.43 173.17 128.25 173.17 128.25C173.17 128.25 174.556 134.426 173.338 138.647C172.12 142.869 171.096 144.047 171.096 144.047C171.096 144.047 168.673 147.258 165.485 144.383C165.485 144.383 167.273 138.596 167.493 133.986C167.493 133.986 165.912 130.594 165.368 127.577C165.368 127.577 164.915 132.38 164.642 134.323C164.642 134.323 164.915 137.171 164.163 138.324C163.398 139.476 159.977 139.813 158.876 137.806C157.787 135.799 159.783 136.783 159.174 127.577C159.174 127.577 156.012 123.64 155.558 116.415C155.105 109.177 155.143 106.316 155.558 104.904C155.973 103.493 162.958 98.4174 162.958 98.4174L166.897 103.454L175.541 109.553Z" fill="#24126A"></path><path d="M165.186 129.351C164.991 128.69 164.823 128.004 164.693 127.331C164.693 127.331 164.24 132.134 163.968 134.077C163.968 134.077 164.24 136.925 163.488 138.078C162.996 138.816 161.402 139.217 160.041 138.88C161.505 139.58 163.579 139.178 164.149 138.311C164.914 137.158 164.629 134.31 164.629 134.31C164.797 133.144 165.03 130.917 165.186 129.351Z" fill="url(#paint3_linear_307_5750)"></path><path d="M175.54 109.553L166.909 103.428L162.969 98.3914C162.969 98.3914 162.853 98.4691 162.658 98.6115L166.248 103.195L174.879 109.32C174.879 109.32 174.995 113.282 173.673 118.733C172.352 124.197 172.507 128.017 172.507 128.017C172.507 128.017 173.894 134.193 172.676 138.414C171.457 142.635 170.434 143.814 170.434 143.814C170.434 143.814 168.943 145.769 166.766 145.251C169.293 146.416 171.095 144.047 171.095 144.047C171.095 144.047 172.131 142.869 173.336 138.647C174.555 134.426 173.168 128.25 173.168 128.25C173.168 128.25 173.012 124.43 174.334 118.966C175.656 113.515 175.54 109.553 175.54 109.553Z" fill="url(#paint4_linear_307_5750)"></path><path d="M159.963 117.632C158.822 116.273 158.188 111.987 158.188 111.987C158.188 111.987 159.963 115.587 161.246 116.623C162.516 117.671 163.617 119.756 163.838 121.129C164.071 122.488 165.354 127.564 165.354 127.564C165.354 127.564 164.9 132.368 164.628 134.31C164.628 134.31 164.9 137.158 164.149 138.311C163.993 138.544 163.734 138.738 163.397 138.893C163.397 138.842 163.591 132.536 163.397 129.869C163.203 127.188 161.103 118.992 159.963 117.632Z" fill="#160A5B"></path><path d="M186.049 80.3934C186.049 80.3934 189.069 86.2849 189.367 86.7381C189.665 87.1912 195.315 94.3775 195.859 98.5339C195.859 98.5339 196.287 100.139 194.343 101.564C192.399 102.988 182.602 109.203 181.993 109.294C181.384 109.384 177.833 107.662 177.678 103.778C177.678 103.778 185.362 100.204 187.021 98.4044C187.021 98.4044 184.028 93.3805 182.563 91.9044C182.2 91.5289 181.98 90.8556 181.864 90.0528C181.384 86.751 182.68 83.4492 185.142 81.1962L186.049 80.3934Z" fill="#4846A5"></path><path d="M163.502 66.5907C163.502 66.5907 158.837 68.3128 157.243 67.7301C155.649 67.1345 151.735 66.6425 149.053 65.1405C146.37 63.6385 134.642 60.6086 132.893 60.505C132.893 60.505 132.867 60.5697 133.152 60.6992C133.437 60.8158 134.642 60.9323 134.979 62.2919C135.303 63.6514 134.59 65.2958 134.383 65.4124C134.189 65.5289 134.072 65.0369 132.944 64.5189C131.817 64.001 131.13 64.0399 131.13 64.0399L130.703 64.5837L130.443 64.9721C130.443 64.9721 131.001 66.6295 132.504 66.7331C134.007 66.8496 143.662 70.8765 144.271 71.0578C144.88 71.2391 152.979 74.7351 154.495 75.2789C156.012 75.8227 157.191 76.5219 157.191 76.5219C157.191 76.5219 161.921 73.3626 162.076 73.3626C162.232 73.3626 163.502 66.5907 163.502 66.5907Z" fill="#24126A"></path><path d="M121.306 58.5369C121.501 58.5887 123.95 59.4044 123.95 59.4044C123.95 59.4044 122.978 59.9094 122.887 60.3496C122.797 60.7898 123.082 63.263 123.172 63.4183C123.263 63.5737 123.769 63.8974 123.911 64.001C124.067 64.0916 124.442 64.9462 124.792 64.8297C125.142 64.7261 125.246 64.2859 125.246 64.2859C125.246 64.2859 125.518 64.1434 125.609 64.0916C125.699 64.0398 127.436 64.1952 128.019 64.5707C128.589 64.9462 129.911 65.1404 130.455 64.9721C131 64.8038 131.79 64.4153 131.972 64.3118C131.972 64.3118 132.568 64.4024 132.905 64.5837C133.242 64.752 134.304 65.4771 134.46 65.5289C134.615 65.5936 136.792 61.3207 132.905 60.5179C132.905 60.5179 131.285 60.3755 130.585 60.0389C129.885 59.7022 127.915 58.1873 127.19 58.1614C126.464 58.1355 125.712 58.3685 125.712 58.3685C125.712 58.3685 121.306 57.1126 120.944 57.501C120.568 57.8895 121.099 58.498 121.306 58.5369ZM124.481 61.4632C125 61.4761 125.363 60.9323 125.363 60.9323C125.699 61.1524 126.036 60.8805 126.036 60.8805C126.036 60.9582 126.646 61.0747 126.646 61.0747C126.646 61.0747 126.918 61.3078 127.255 61.5538C127.592 61.7998 127.138 62.5379 127.138 62.5379C126.814 62.5638 126.425 62.3954 126.101 62.253C125.777 62.0976 125.492 62.1106 125.259 62.0329C125.052 61.9422 124.481 61.4632 124.481 61.4632Z" fill="#FCD1C5"></path><path d="M155.557 104.891C155.972 103.48 162.957 98.4044 162.957 98.4044L164.913 100.903L166.598 107.442L175.54 110.226C175.54 110.239 175.06 114.693 167.79 114.175C160.507 113.657 159.652 108.025 159.652 108.025C159.652 108.025 158.849 109.877 155.259 110.356C155.168 107.365 155.285 105.824 155.557 104.891Z" fill="#160A5B"></path><path d="M177.198 70.2679L178.429 73.4273C178.429 73.4273 184.352 78.5418 186.049 80.3934C186.049 80.3934 183.12 86 182.576 91.9173C182.576 91.9173 179.868 94.1185 179.051 95.1414C178.235 96.1514 176.161 100.852 175.501 102.405C174.84 103.946 176.68 108.621 176.68 108.621C176.68 108.621 174.166 113.269 170.11 113.114C166.053 112.958 163.293 110.485 162.775 106.096C162.256 101.693 162.412 101.059 162.412 101.059C162.412 101.059 160.585 106.458 157.824 106.458C155.064 106.458 150.671 101.771 150.671 101.771C150.671 101.771 147.716 99.0906 147.988 97.8735C148.261 96.6564 154.96 86.1683 155.323 84.4333C155.686 82.7111 157.189 76.5219 157.189 76.5219L163.5 66.6036L167.349 66.7849L177.198 70.2679Z" fill="#453C9E"></path><path d="M169.942 111.987C166.067 111.845 163.398 109.553 162.711 105.513C162.737 105.694 162.75 105.888 162.776 106.083C163.294 110.485 166.054 112.945 170.111 113.101C174.167 113.256 176.681 108.608 176.681 108.608C176.681 108.608 176.551 108.271 176.37 107.74C175.774 108.698 173.428 112.117 169.942 111.987Z" fill="#7BD834"></path><path d="M177.199 70.2679C177.199 70.2679 177.225 72.1454 176.486 74.01C175.748 75.8745 173.311 86.3885 167.804 89.9751L165.691 91.3217V84.6405C165.691 84.6405 165.73 80.5229 166.676 77.9203C167.622 75.3177 167.583 72.1325 167.583 72.1325C167.583 72.1325 169.126 71.7052 169.126 71.744L177.199 70.2679Z" fill="#F0F6FF"></path><path d="M170.408 75.1494C170.408 75.1494 169.424 75.5508 169.009 74.9163C168.594 74.2819 168.154 73 168.27 72.4044C168.27 72.4044 165.665 72.5339 165.147 71.1743C164.629 69.8147 165.199 69.4522 165.277 69.0249C165.354 68.5976 165.432 67.4841 165.782 66.6683L165.821 66.3187C165.821 66.3187 165.29 65.8655 165.536 65.3864C165.782 64.9074 167.208 63.4183 167.35 63.1723C167.493 62.9263 167.311 61.0747 167.868 60.1683C168.426 59.249 169.488 57.9801 169.488 57.9801C169.488 57.9801 175.048 53.6554 179.415 57.9801C183.782 62.3048 177.199 70.2809 177.199 70.2809C177.199 70.2809 176.668 72.8576 175.398 73.8805C174.115 74.8904 170.408 75.1494 170.408 75.1494Z" fill="#FCD1C5"></path><path d="M174.465 64.6096C174.465 64.4542 174.478 64.2859 174.53 64.1434C174.699 63.6644 174.971 62.3954 173.636 61.4243C171.964 60.2072 169.023 59.1195 169.113 57.9024C169.204 56.6853 173.843 53.6813 177.278 55.2998C180.712 56.9054 183.926 60.9711 181.593 65.2829C179.26 69.5946 177.187 70.2809 177.187 70.2809C177.187 70.2809 176.487 70.1385 177.109 69.4263C177.731 68.7142 178.872 66.9014 177.926 66.3317C176.98 65.762 175.347 66.992 175.126 67.264C175.049 67.3675 174.958 67.497 174.88 67.6265C174.764 67.8337 174.504 67.9114 174.284 67.8078L174.206 67.7689C173.986 67.6653 173.882 67.4193 173.973 67.1992L174.388 66.0857C174.453 65.9173 174.478 65.7361 174.478 65.5677L174.465 64.6096Z" fill="#AA8383"></path><path d="M170.551 76.3536C170.551 76.3536 171.782 77.2341 172.521 78.9173C172.521 78.9173 171.199 77.5578 170.447 77.2858C170.447 77.2858 168.996 77.9721 168.996 78.4253C168.996 78.8785 168.853 81.6105 168.516 83.0737C168.179 84.5368 168.218 89.7032 168.218 89.7032L167.298 90.3117L166.857 88.0458L167.026 83.2291L167.881 78.8396C167.881 78.8396 168.037 77.1823 168.114 77.0916C168.166 76.988 170.551 76.3536 170.551 76.3536Z" fill="#C4CCD6"></path><path d="M170.551 76.3536C170.551 76.3536 169.139 74.8516 168.426 74.8257C167.713 74.7998 167.325 75.1753 167.312 75.2659C167.299 75.3566 166.625 77.7002 166.625 77.7002C166.625 77.7002 165.29 81.7918 165.433 86.5697C165.575 91.3476 165.679 91.3087 165.679 91.3087L167.428 90.1952C167.428 90.1952 166.949 86.7769 167.908 82.8147C168.867 78.8526 168.024 78.2699 168.478 77.8556C168.944 77.4671 170.772 76.8456 170.551 76.3536Z" fill="#24126A"></path><path d="M179.038 95.1285C178.222 96.1384 176.187 100.839 175.526 102.379C175.423 102.625 175.332 102.975 175.345 103.351C175.176 103.454 175.073 103.519 175.073 103.519L174.191 102.651C174.191 102.651 174.982 99.7898 176.265 96.242C177.535 92.6942 182.576 91.8914 182.576 91.8914C182.576 91.8914 179.867 94.1185 179.038 95.1285Z" fill="#24126A"></path><path d="M177.678 103.894C177.678 103.894 176.24 101.797 175.786 101.525C175.786 101.525 175.89 102.121 175.073 102.483C174.257 102.846 169.968 104.503 169.825 104.697C169.683 104.891 169.838 105.125 170.11 105.189C170.11 105.189 169.229 105.487 168.853 105.487C168.49 105.474 167.998 105.94 168.244 106.342C168.49 106.73 168.698 106.704 168.698 106.704C168.698 106.704 168.594 107.144 168.853 107.248C169.112 107.352 169.76 107.365 169.76 107.365C169.76 107.365 169.631 107.805 169.994 107.973C170.356 108.141 172.093 108.336 172.093 108.336C172.093 108.336 173.454 108.193 173.842 108.18C174.231 108.167 175.994 108.608 176.745 108.504C177.497 108.4 179.972 107.52 180.231 107.365C180.452 107.209 177.678 103.894 177.678 103.894Z" fill="#FCD1C5"></path><path d="M178.702 74.4373L178.52 77.26L176.991 77.739L178.015 78.5807C178.015 78.5807 173.881 87.9681 168.594 90.9462C168.594 90.9462 173.635 89.1594 178.391 78.6584C178.391 78.6584 177.885 78.0628 177.743 77.8944L178.806 77.4283L178.702 74.4373Z" fill="#24126A"></path><path d="M165.199 74.1395C165.199 74.1395 163.319 83.7211 164.926 90.9462C164.926 90.9462 163.008 87.4761 164.745 74.1395H165.199Z" fill="#24126A"></path><path d="M122.979 60.1425C123.251 59.767 123.937 59.4044 123.937 59.4044C123.937 59.4044 125.933 60.2202 126.27 60.3755C126.283 60.3755 124.236 60.1684 122.979 60.1425Z" fill="#E2B1A6"></path><path d="M134.448 65.516C134.37 65.4901 134.046 65.2829 133.709 65.0628C135.031 63.2759 133.579 60.7122 133.566 60.6992C136.508 61.8516 134.59 65.5677 134.448 65.516Z" fill="#E2B1A6"></path><path d="M180.205 107.365C180.024 107.468 178.611 107.986 177.587 108.284C177.587 108.284 176.926 105.694 177.069 104.827C177.224 103.959 177.574 103.752 177.574 103.752C177.639 103.843 177.678 103.894 177.678 103.894C177.678 103.894 180.451 107.209 180.205 107.365Z" fill="#E2B1A6"></path><path d="M177.678 103.778C177.678 103.778 177.237 105.28 178.248 106.432C179.259 107.598 179.375 107.74 179.375 107.74H180.542C180.542 107.74 181.151 105.914 181.06 105.863C180.956 105.811 177.678 103.778 177.678 103.778Z" fill="#4846A5"></path><path d="M166.845 76.9492C166.845 76.9492 165.731 83.514 165.977 85.9353C166.223 88.3436 166.132 90.9592 166.132 90.9592L165.782 91.2699L165.679 91.3347C165.679 91.3347 165.562 91.3735 165.433 86.5956C165.29 81.8177 166.625 77.7261 166.625 77.7261C166.625 77.7261 166.728 77.3636 166.845 76.9492Z" fill="#24126A"></path><path d="M166.482 145.109C166.158 144.927 165.821 144.694 165.484 144.383C165.484 144.383 167.272 138.596 167.492 133.986C167.492 133.986 165.911 130.594 165.367 127.577C165.523 128.172 167.35 131.422 168.179 134.75C169.009 138.052 166.482 145.109 166.482 145.109Z" fill="#160A5B"></path><path d="M174.621 69.2054V69.1932C174.621 69.1932 174.633 69.1932 174.621 69.2054Z" fill="#E2B1A6"></path><path d="M174.62 69.2064C174.581 69.3747 174.115 71.7054 173.169 72.806C172.184 73.9454 171.432 75.0331 171.432 75.0331C170.823 75.1107 170.396 75.1366 170.396 75.1366C170.396 75.1366 169.411 75.538 168.996 74.9036C168.581 74.2691 168.141 72.9872 168.257 72.3916C168.257 72.3916 171.769 72.0291 173.117 71.0968C174.374 70.2293 174.594 69.3229 174.62 69.2064Z" fill="#E2B1A6"></path><path d="M175.89 101.551C175.89 101.551 175.695 101.952 175.67 101.978C175.631 102.004 175.592 101.667 175.592 101.667C175.592 101.667 175.747 101.344 175.76 101.344C175.76 101.357 175.89 101.551 175.89 101.551Z" fill="#1B2B3A"></path><path d="M165.678 91.3217C165.678 91.3217 163.229 99.1554 162.412 101.046L162.464 102.923C162.464 102.923 165.587 93.1992 165.678 91.3217Z" fill="#24126A"></path><path d="M163.308 94.1056C163.165 94.5588 163.398 95.0379 163.826 95.1673C164.254 95.2968 164.707 95.0249 164.85 94.5717C164.992 94.1185 164.759 93.6395 164.331 93.51C163.904 93.3805 163.45 93.6524 163.308 94.1056Z" fill="#24126A"></path><path d="M162.063 97.4851C161.921 97.9382 162.154 98.4173 162.582 98.5468C163.009 98.6763 163.463 98.4044 163.606 97.9512C163.748 97.498 163.515 97.0189 163.087 96.8894C162.659 96.76 162.206 97.0319 162.063 97.4851Z" fill="#24126A"></path><path d="M174.399 66.0598C174.464 65.8915 174.49 65.7102 174.49 65.5419L174.477 64.6096C174.477 64.4542 174.49 64.2859 174.542 64.1435C174.594 64.014 174.646 63.8068 174.672 63.5608C174.672 63.5608 178.494 66.3447 180.918 66.4482C178.883 69.6982 177.212 70.268 177.212 70.268C177.212 70.268 176.512 70.1255 177.134 69.4134C177.756 68.7012 178.896 66.8885 177.95 66.3188C177.004 65.749 175.371 66.9791 175.151 67.251C175.073 67.3546 174.983 67.4841 174.905 67.6136C174.788 67.8208 174.529 67.8984 174.309 67.7949L174.231 67.756C174.011 67.6524 173.907 67.4064 173.998 67.1863L174.399 66.0598Z" fill="#936D6D"></path><path d="M181.63 168.467C181.63 168.467 179.906 168.894 178.234 168.959C176.563 169.024 172.027 169.93 172.131 171.626C172.247 173.323 174.619 175.77 177.586 176.132C180.567 176.495 184.39 175.64 186.334 175.692C188.278 175.744 189.599 173.763 188.848 171.872C188.096 169.982 181.63 168.467 181.63 168.467Z" fill="#160A5B"></path><path d="M191.648 163.909C191.648 163.909 192.283 164.932 191.972 165.567C191.661 166.201 190.832 167.755 188.111 166.24C185.402 164.738 180.18 162.589 180.18 162.589C180.18 162.589 177.186 160.996 177.355 159.119C177.523 157.254 180.27 157.526 180.27 157.526L191.648 163.909Z" fill="#160A5B"></path><path d="M174.01 137.275C174.01 137.275 175.163 149.472 177.612 154.095C180.101 158.795 180.8 167.405 181.319 169.05C181.837 170.707 183.457 173.077 185.997 173.582C188.55 174.087 188.965 172.352 188.835 171.316C188.705 170.28 188.006 168.61 187.993 167.483C187.98 166.357 188.239 165.839 188.278 165.321C188.278 165.321 191.194 166.175 191.634 163.922C191.634 163.922 191.401 163.262 191.362 162.925C191.323 162.589 191.608 154.418 191.686 153.434C191.751 152.45 191.219 147.116 190.416 144.474C189.613 141.871 189.885 136.317 189.885 136.317L181.578 135.164L174.01 137.275Z" fill="#24126A"></path><path d="M190.416 144.474C189.613 141.871 189.885 136.317 189.885 136.317L189.159 136.213C189.133 136.977 188.952 141.846 189.69 144.241C190.494 146.87 191.025 152.204 190.948 153.188C190.87 154.172 190.572 162.343 190.611 162.679C190.649 163.016 190.883 163.676 190.883 163.676C190.442 165.929 187.526 165.075 187.526 165.075C187.487 165.593 187.228 166.111 187.228 167.237C187.241 168.364 187.941 170.034 188.058 171.07C188.187 172.106 187.76 173.841 185.22 173.336C185.142 173.323 185.064 173.284 184.986 173.271C185.297 173.4 185.634 173.517 185.984 173.582C188.537 174.087 188.952 172.352 188.822 171.316C188.693 170.28 187.993 168.61 187.98 167.483C187.967 166.357 188.239 165.735 188.278 165.217C188.278 165.217 191.194 166.175 191.634 163.922C191.634 163.922 191.401 163.262 191.362 162.925C191.323 162.589 191.608 154.418 191.686 153.434C191.764 152.437 191.233 147.103 190.416 144.474Z" fill="#24126A"></path><path d="M187.423 137.197C187.423 137.197 187.384 139.101 186.593 140.706C186.593 140.706 186.606 147.193 185.945 150.469C185.945 150.469 187.021 157.06 187.695 159.144C188.382 161.242 188.291 165.308 188.291 165.308C188.291 165.308 188.628 165.424 189.094 165.45C189.574 165.463 189.6 157.396 188.874 155.972C188.148 154.548 187.591 148.255 187.876 146.339C188.148 144.435 188.058 138.971 188.421 138.013C188.783 137.055 187.967 136.55 187.967 136.55L187.423 137.197Z" fill="#160A5B"></path><path d="M180.438 93.1863C180.438 93.1863 178.028 94.9343 178.145 97.9383L179.933 97.5498C179.946 97.5628 179.415 94.2221 180.438 93.1863Z" fill="#160A5B"></path><path d="M181.372 139.852C186.879 140.02 189.847 137.586 189.847 137.586C189.86 136.809 189.886 136.317 189.886 136.317L181.579 135.164L173.998 137.275C173.998 137.275 174.231 139.683 174.698 142.765C176.046 142.907 177.367 139.593 177.367 139.593L181.138 139.826C181.151 139.826 175.877 139.683 181.372 139.852Z" fill="#160A5B"></path><path d="M175.072 137.456C175.072 137.456 187.034 142.338 192.826 133.08C192.995 132.821 193.073 132.497 193.06 132.173L192.982 130.011C192.969 129.739 193.008 129.467 193.099 129.208C193.28 128.664 193.332 128.069 193.215 127.486C192.762 125.078 191.556 118.526 191.271 116.7C190.921 114.486 192.101 105.604 194.083 101.758C196.04 97.9642 191.012 89.4442 191.012 89.4442C191.012 89.4442 189.781 87.4502 187.371 88.1365C187.371 88.1365 189.677 89.7421 188.407 91.4383C187.137 93.1474 183.353 94.507 183.353 94.507C183.353 94.507 176.355 98.1325 173.971 102.548C173.971 102.548 173.155 104.84 173.077 107.74C172.999 110.679 173.323 117.723 173.206 118.694C173.09 119.678 172.714 126.385 172.753 126.696C172.792 127.02 175.072 137.456 175.072 137.456Z" fill="#453C9E"></path><path d="M188.485 89.3665C188.679 88.8875 188.614 88.4213 188.446 88.0199C188.109 88.007 187.759 88.0329 187.357 88.1365C187.37 88.1365 188.07 88.6285 188.485 89.3665Z" fill="#7BD834"></path><path d="M178.689 138.453C178.689 138.453 185.739 119.445 185.402 112.544C185.078 105.811 175.112 126.178 175.112 126.178L175.061 137.456C175.074 137.456 177.328 138.285 178.689 138.453Z" fill="#24126A"></path><path d="M192.892 127.344C192.801 127.59 192.762 127.862 192.775 128.133L192.853 130.283C192.866 130.607 192.788 130.93 192.619 131.189C186.853 140.382 174.93 135.54 174.93 135.54C174.93 135.54 173.284 128.069 172.779 125.634C172.753 126.23 172.74 126.644 172.753 126.709C172.792 127.02 175.073 137.443 175.073 137.443C175.073 137.443 187.034 142.325 192.827 133.067C192.995 132.808 193.073 132.484 193.06 132.16L192.982 129.998C192.969 129.726 193.008 129.454 193.099 129.195C193.28 128.651 193.319 128.056 193.216 127.473C193.164 127.227 193.112 126.916 193.047 126.58C193.021 126.852 192.969 127.111 192.892 127.344Z" fill="#7BD834"></path><path d="M193.889 100.075C191.906 103.894 190.727 112.712 191.077 114.926C191.103 115.133 191.155 115.392 191.206 115.703C191.193 112.518 192.321 105.176 194.083 101.758C194.628 100.696 194.615 99.246 194.33 97.7311C194.343 98.6116 194.226 99.4143 193.889 100.075Z" fill="#7BD834"></path><path d="M174.891 115.988C175.151 114.434 175.293 112.88 175.319 111.327C175.345 108.62 176.11 104.14 181.008 104.917C187.928 106.018 184.974 115.703 184.209 117.399C183.444 119.096 180.412 126.774 180.256 127.214C180.101 127.628 175.319 137.197 173.608 139.502C173.453 139.709 173.181 139.748 172.986 139.58C172.3 138.984 170.732 137.586 170.537 136.692C170.278 135.553 171.276 131.409 171.276 131.409C171.276 131.409 173.971 121.051 174.205 120.572C174.36 120.209 174.477 118.5 174.891 115.988Z" fill="#4846A5"></path><path d="M180.554 93.4063C180.554 93.4063 180.01 92.1633 178.74 92.0338C177.47 91.9044 176.744 91.5548 176.628 91.0886C176.498 90.6225 176.498 90.0528 176.187 89.3536C175.876 88.6544 175.617 86.9452 175.63 86.9063C175.63 86.8675 174.671 86.5697 174.619 86.1553C174.567 85.7281 175.073 84.2131 175.021 84.0966C174.969 83.98 174.451 83.0478 174.515 82.3356C174.58 81.6105 174.684 80.5747 175.06 79.6942C175.448 78.8137 178.131 73.4532 185.129 76.2111C192.205 79.0079 186.826 84.9382 187.526 88.7838C187.526 88.7838 188.161 89.5996 187.008 90.9721C185.842 92.3316 182.485 92.6294 180.554 93.4063Z" fill="#FCD1C5"></path><path d="M186.995 90.9462C188.149 89.5737 187.514 88.758 187.514 88.758C187.41 88.2271 187.436 87.6444 187.527 87.0488L184.753 87.5797C184.753 87.5797 180.658 83.9412 180.956 85.8964C181.254 87.8516 180.257 88.2012 180.257 88.2012L181.099 89.2629C181.319 89.5349 181.19 89.8586 181.008 90.1564C179.842 92.1633 177.004 91.5548 177.004 91.5548C177.354 91.7878 177.937 91.9562 178.727 92.0339C179.997 92.1633 180.542 93.4064 180.542 93.4064C182.486 92.6295 185.842 92.3317 186.995 90.9462Z" fill="#E2B1A6"></path><path d="M174.749 77.6355C174.749 77.6355 174.257 79.0727 175.047 79.6683C175.838 80.2769 176.563 80.8466 176.563 80.8466V82.6723C176.563 82.9313 176.641 83.1902 176.784 83.4104L177.782 84.9512C177.976 85.249 178.08 85.5986 178.08 85.9482V86.6862C178.08 86.9064 178.248 87.0876 178.455 87.1135L178.715 87.1394C178.948 87.1653 179.155 86.997 179.181 86.7639L179.285 85.7281C179.285 85.7281 179.803 84.8994 180.957 85.8835L181.993 86.3107C182.278 86.4273 182.512 86.6604 182.615 86.9582C182.9 87.748 183.523 89.3277 183.989 89.5866C184.611 89.9363 187.034 88.6932 187.358 88.1364C187.682 87.5797 188.499 83.9024 189.004 82.1414C189.51 80.3934 189.212 76.0817 184.002 74.9681C178.805 73.8675 175.475 76.0687 174.749 77.6355Z" fill="#AA8383"></path><path d="M187.372 88.1364C187.696 87.5797 188.513 83.9024 189.018 82.1414C189.018 82.1414 186.997 83.488 184.379 83.8765C181.761 84.2779 176.564 81.3257 176.564 81.3257V82.6593C176.564 82.9183 176.642 83.1773 176.785 83.3974L177.783 84.9382C177.977 85.236 178.081 85.5856 178.081 85.9352V86.6733C178.081 86.8934 178.249 87.0747 178.456 87.1006L178.716 87.1265C178.949 87.1524 179.156 86.984 179.182 86.751L179.286 85.7151C179.286 85.7151 179.804 84.8864 180.958 85.8705L182.448 86.4791C182.448 86.4791 183.355 89.2111 183.977 89.5737C184.625 89.9362 187.048 88.6932 187.372 88.1364Z" fill="#936D6D"></path><path d="M187.462 88.3047C187.462 88.3047 189.483 89.5478 188.473 91.3217C187.449 93.1085 180.101 96.2679 179.738 96.734C179.738 96.734 179.453 94.0796 180.425 93.1862C180.425 93.1862 186.049 92.0856 186.93 90.6613C187.812 89.237 187.462 88.3047 187.462 88.3047Z" fill="#F0F6FF"></path><path d="M187.461 88.3047C187.461 88.3047 187.798 89.2241 186.929 90.6484C186.269 91.736 182.886 92.6294 181.279 92.992C181.279 92.992 181.875 93.3287 182.873 95.0378C185.128 93.8725 187.875 92.3575 188.472 91.3217C189.495 89.5607 187.461 88.3047 187.461 88.3047Z" fill="#C4CCD6"></path><path d="M188.835 93.9761C188.835 93.9761 185.557 95.8536 183.963 96.6952C182.369 97.5498 180.619 98.6763 180.619 98.6763L180.01 98.0677L179.271 99.6862C179.271 99.6862 176.757 101.201 175.578 102.457C174.399 103.726 173.505 105.37 173.375 105.746C173.375 105.746 176.511 101.628 178.986 100.411L179.647 100.075L180.023 98.7928L180.632 99.4402C180.645 99.4273 187.837 95.0896 188.835 93.9761Z" fill="#24126A"></path><path d="M180.4 149.472C180.296 149.174 180.141 148.915 179.959 148.773L166.495 137.482C166.145 137.184 165.795 137.417 165.73 137.987L164.149 151.142C164.071 151.751 164.318 152.502 164.68 152.813L175.994 162.589L175.605 166.395L178.987 164.842V164.829C179.143 164.738 179.246 164.518 179.285 164.181L180.542 150.43C180.555 150.12 180.504 149.783 180.4 149.472Z" fill="#7BD834"></path><path d="M162.826 138.777L166.014 137.404L166.118 137.366C166.234 137.34 166.364 137.379 166.507 137.482L179.971 148.773C180.152 148.928 180.308 149.187 180.412 149.472L179.932 149.705L177.185 151.026L165.366 140.952L162.826 138.777Z" fill="#453C9E"></path><path d="M161.362 154.276L175.138 166.266C175.514 166.59 175.877 166.344 175.928 165.709L177.263 151.893C177.328 151.285 177.069 150.547 176.706 150.236L163.267 138.88C162.918 138.583 162.568 138.816 162.49 139.385L160.831 152.606C160.766 153.214 161 153.965 161.362 154.276Z" fill="#24126A"></path><path d="M177.64 164.893L178.936 151.117C178.987 150.508 178.741 149.77 178.365 149.459L164.914 138.129C164.81 138.039 164.694 138 164.59 138C164.719 137.948 164.862 137.974 165.017 138.104L178.469 149.42C178.832 149.731 179.091 150.469 179.039 151.078L177.743 164.855C177.704 165.295 177.536 165.567 177.303 165.58C177.484 165.515 177.601 165.256 177.64 164.893Z" fill="#160A5B"></path><path d="M172.703 144.604L173.403 144.254C173.558 144.176 173.714 144.15 173.843 144.176L173.895 144.189C173.96 144.202 173.999 144.28 173.986 144.384L173.973 144.513L171.99 145.497L172.003 145.368C172.016 145.264 172.068 145.135 172.159 145.044L172.223 144.966C172.392 144.811 172.547 144.681 172.703 144.604Z" fill="#160A5B"></path><path d="M172.963 146.313L172.004 145.51L173.974 144.228L174.907 145.018L172.963 146.313Z" fill="#160A5B"></path><path d="M173.662 145.406L174.362 145.057C174.517 144.979 174.673 144.953 174.802 144.979L174.854 144.992C174.919 145.005 174.958 145.083 174.945 145.186L174.932 145.316L172.949 146.313L172.962 146.183C172.975 146.08 173.027 145.95 173.118 145.86L173.182 145.782C173.338 145.614 173.494 145.484 173.662 145.406Z" fill="url(#paint5_linear_307_5750)"></path><path d="M174.077 145.743L174.142 145.16L174.077 145.199L174.025 145.782L174.077 145.743Z" fill="#722318"></path><path d="M174.141 145.173L173.156 144.383L173.117 144.409L174.076 145.199L174.141 145.173Z" fill="#722318"></path><path d="M168.426 141.017L169.125 140.667C169.281 140.59 169.436 140.564 169.566 140.59L169.618 140.603C169.683 140.616 169.722 140.693 169.709 140.797L169.696 140.926L167.713 141.91L167.726 141.781C167.739 141.677 167.791 141.548 167.881 141.457L167.946 141.38C168.102 141.224 168.27 141.095 168.426 141.017Z" fill="#160A5B"></path><path d="M168.66 142.7L167.727 141.897L169.683 140.641L170.616 141.418L168.66 142.7Z" fill="#160A5B"></path><path d="M169.371 141.807L170.071 141.457C170.226 141.38 170.382 141.354 170.511 141.38L170.563 141.392C170.628 141.405 170.667 141.483 170.654 141.587L170.641 141.716L168.658 142.7L168.671 142.571C168.684 142.467 168.736 142.338 168.827 142.247L168.891 142.169C169.047 142.014 169.202 141.885 169.371 141.807Z" fill="url(#paint6_linear_307_5750)"></path><path d="M169.786 142.143L169.85 141.561L169.786 141.6L169.721 142.169L169.786 142.143Z" fill="#722318"></path><path d="M169.852 141.561L168.88 140.784L168.828 140.81L169.787 141.6L169.852 141.561Z" fill="#722318"></path><path d="M174.516 142.415L174.256 144.863L173.621 144.332L173.868 141.949C173.907 141.6 173.738 141.159 173.492 140.952L170.745 138.66C170.498 138.453 170.265 138.57 170.226 138.906L169.967 141.263L169.332 140.732L169.604 138.311C169.695 137.56 170.2 137.301 170.732 137.754L173.66 140.188C174.218 140.654 174.593 141.638 174.516 142.415Z" fill="#453C9E"></path><path d="M169.799 138.492L170.926 138.375L174.192 141.418L174.335 143.296L174.27 144.863L173.544 145.225L173.518 143.27L173.479 141.936L172.805 140.965C172.805 140.965 171.587 139.981 171.574 139.955C171.548 139.929 169.799 138.492 169.799 138.492Z" fill="#453C9E"></path><path d="M169.254 141.626L169.98 141.263L170.174 139.528L169.474 139.58L169.267 139.619L169.254 141.626Z" fill="#453C9E"></path><path d="M169.279 137.948L170.057 137.573L169.849 138L169.59 138.091L169.279 137.948Z" fill="#453C9E"></path><path d="M173.79 142.778L173.531 145.238L172.896 144.707L173.142 142.325C173.181 141.975 173.012 141.522 172.766 141.328L170.032 139.036C169.785 138.829 169.552 138.945 169.513 139.295L169.254 141.626L168.619 141.095L168.891 138.673C168.982 137.909 169.487 137.663 170.019 138.117L172.935 140.564C173.492 141.017 173.868 142.001 173.79 142.778Z" fill="#160A5B"></path><path d="M170.733 136.589C170.733 136.589 170.266 138.984 170.396 139.593C170.525 140.201 171.679 141.354 172.366 141.574C173.052 141.781 172.78 140.965 172.936 140.447C173.091 139.929 173.065 138.803 173.065 138.803L170.733 136.589Z" fill="#FCD1C5"></path><path d="M173.051 138.79L170.719 136.589C170.719 136.589 170.628 137.081 170.537 137.676C170.537 137.676 171.405 139.463 172.986 140.162C173.077 139.606 173.051 138.79 173.051 138.79Z" fill="#E2B1A6"></path><path d="M170.551 136.77C170.551 136.77 171.38 139.347 173.454 139.593L172.754 136.77C172.754 136.77 171.004 136.278 170.953 136.265C170.888 136.265 170.551 136.77 170.551 136.77Z" fill="#4846A5"></path><path d="M184.042 106.445C185.959 112.285 181.152 121.374 180.465 124.016C179.765 126.696 172.456 139.088 172.456 139.101C172.456 139.101 172.456 139.101 172.469 139.101C172.43 139.178 172.404 139.217 172.404 139.217C172.56 139.334 172.741 139.463 172.884 139.541C173.078 139.619 172.987 139.606 173.208 139.657C173.363 139.683 173.519 139.631 173.622 139.476C175.333 137.184 180.115 127.603 180.27 127.188C180.426 126.748 183.458 119.083 184.223 117.373C184.819 116.04 186.841 109.514 184.042 106.445Z" fill="#7BD834"></path><path d="M105.976 162.653C105.47 162.653 104.978 162.55 104.615 162.33L74.0056 144.681C73.6038 144.448 73.3965 144.125 73.3965 143.762C73.3965 143.335 73.6945 142.92 74.2129 142.623L104.408 125.207C105.328 124.676 106.688 124.625 107.492 125.091L138.101 142.752C138.49 142.985 138.71 143.309 138.71 143.671C138.71 144.099 138.412 144.513 137.894 144.811L107.699 162.226C107.207 162.498 106.572 162.653 105.976 162.653ZM104.848 161.928C105.509 162.304 106.701 162.252 107.466 161.812L137.661 144.396C138.023 144.189 138.244 143.917 138.244 143.671C138.244 143.425 138.036 143.257 137.868 143.166L107.259 125.492C106.611 125.117 105.405 125.168 104.641 125.609L74.4462 143.024C74.0833 143.231 73.863 143.503 73.863 143.749C73.863 143.995 74.0704 144.163 74.2388 144.254L104.848 161.928Z" fill="#7BD834"></path><path d="M138.477 130.788V134.543L105.976 153.292L73.4746 134.543V130.788H138.477Z" fill="url(#paint7_linear_307_5750)"></path><path d="M105.976 149.537L73.4746 130.788L105.976 112.039L138.477 130.788L105.976 149.537Z" fill="#BCBEFF"></path><path d="M105.976 149.097L73.8504 130.568L73.4746 130.788L105.976 149.537L138.477 130.788L138.102 130.568L105.976 149.097Z" fill="white"></path><path d="M105.977 145.212L80.9785 130.788L105.977 116.364L130.975 130.788L105.977 145.212Z" fill="#0F054C"></path><path opacity="0.5" d="M105.977 145.212L80.9785 130.788L105.977 116.364L130.975 130.788L105.977 145.212Z" fill="url(#paint8_linear_307_5750)"></path><path opacity="0.5" d="M105.977 112.738L130.975 127.149V130.788L105.977 116.364V112.738Z" fill="url(#paint9_linear_307_5750)"></path><path opacity="0.5" d="M105.977 116.364L80.9785 130.788V127.149L105.977 112.738V116.364Z" fill="url(#paint10_linear_307_5750)"></path><path opacity="0.5" d="M105.977 141.574L80.9785 127.149L105.977 112.738L130.975 127.149L105.977 141.574Z" fill="#82A0FF"></path><path opacity="0.5" d="M105.976 132.911L95.9844 127.149L105.976 121.388L115.967 127.149L105.976 132.911Z" fill="#6A8AFF"></path><path opacity="0.5" d="M105.976 121.918L115.501 127.421L115.967 127.149L105.976 121.388L95.9844 127.149L96.4509 127.421L105.976 121.918Z" fill="#6A8AFF"></path><path opacity="0.5" d="M105.977 141.574V145.212L130.975 130.788V127.149L105.977 141.574Z" fill="#82A0FF"></path><path opacity="0.5" d="M80.9785 127.149V130.788L105.977 145.212V141.574L80.9785 127.149Z" fill="#82A0FF"></path><path opacity="0.8" d="M105.977 141.185L81.3154 126.955L80.9785 127.149L105.977 141.574L130.975 127.149L130.638 126.955L105.977 141.185Z" fill="#6A8AFF"></path><path d="M105.976 247.84C105.47 247.84 104.978 247.736 104.615 247.516L74.0056 229.868C73.6038 229.635 73.3965 229.311 73.3965 228.948C73.3965 228.521 73.6945 228.107 74.2129 227.809L104.408 210.393C105.328 209.863 106.688 209.811 107.492 210.277L138.101 227.938C138.49 228.171 138.71 228.495 138.71 228.858C138.71 229.285 138.412 229.699 137.894 229.997L107.699 247.412C107.207 247.684 106.572 247.84 105.976 247.84ZM104.848 247.115C105.509 247.49 106.701 247.438 107.466 246.998L137.661 229.583C138.023 229.376 138.244 229.104 138.244 228.858C138.244 228.612 138.036 228.443 137.868 228.353L107.259 210.691C106.611 210.316 105.405 210.368 104.641 210.808L74.4462 228.223C74.0833 228.43 73.863 228.702 73.863 228.948C73.863 229.194 74.0704 229.363 74.2388 229.453L104.848 247.115Z" fill="#7BD834"></path><path d="M138.477 215.974V219.729L105.976 238.478L73.4746 219.729V215.974H138.477Z" fill="url(#paint11_linear_307_5750)"></path><path d="M105.976 234.723L73.4746 215.974L105.976 197.225L138.477 215.974L105.976 234.723Z" fill="#BCBEFF"></path><path d="M105.976 234.283L73.8504 215.754L73.4746 215.974L105.976 234.723L138.477 215.974L138.102 215.754L105.976 234.283Z" fill="white"></path><path d="M105.977 230.398L80.9785 215.974L105.977 201.55L130.975 215.974L105.977 230.398Z" fill="#0F054C"></path><path opacity="0.5" d="M105.977 230.398L80.9785 215.974L105.977 201.55L130.975 215.974L105.977 230.398Z" fill="#6A8AFF"></path><path opacity="0.5" d="M105.977 197.924L130.975 212.336V215.974L105.977 201.55V197.924Z" fill="url(#paint12_linear_307_5750)"></path><path opacity="0.5" d="M105.977 201.55L80.9785 215.974V212.336L105.977 197.924V201.55Z" fill="url(#paint13_linear_307_5750)"></path><path opacity="0.5" d="M105.977 226.76L80.9785 212.336L105.977 197.924L130.975 212.336L105.977 226.76Z" fill="#5778FF"></path><path opacity="0.5" d="M105.976 218.098L95.9844 212.336L105.976 206.574L115.967 212.336L105.976 218.098Z" fill="#6A8AFF"></path><path opacity="0.5" d="M105.976 207.105L115.501 212.608L115.967 212.336L105.976 206.574L95.9844 212.336L96.4509 212.608L105.976 207.105Z" fill="#6A8AFF"></path><path opacity="0.5" d="M105.977 226.76V230.398L130.975 215.974V212.336L105.977 226.76Z" fill="#82A0FF"></path><path opacity="0.5" d="M80.9785 212.336V215.974L105.977 230.398V226.76L80.9785 212.336Z" fill="#82A0FF"></path><path opacity="0.8" d="M105.977 226.372L81.3154 212.141L80.9785 212.336L105.977 226.76L130.975 212.336L130.638 212.141L105.977 226.372Z" fill="#6A8AFF"></path><path d="M236.267 162.653C235.761 162.653 235.282 162.55 234.906 162.33L204.297 144.668C203.908 144.435 203.688 144.112 203.688 143.749C203.688 143.322 203.986 142.907 204.504 142.61L234.699 125.194C235.619 124.663 236.979 124.612 237.783 125.078L268.392 142.739C268.794 142.972 269.001 143.296 269.001 143.658C269.001 144.086 268.703 144.5 268.185 144.798L237.99 162.213C237.485 162.498 236.863 162.653 236.267 162.653ZM235.139 161.928C235.8 162.304 236.992 162.252 237.757 161.812L267.952 144.396C268.314 144.189 268.535 143.917 268.535 143.671C268.535 143.425 268.327 143.257 268.159 143.166L237.55 125.492C236.902 125.117 235.696 125.168 234.932 125.609L204.737 143.024C204.374 143.231 204.154 143.503 204.154 143.749C204.154 143.995 204.361 144.163 204.53 144.254L235.139 161.928Z" fill="#7BD834"></path><path d="M268.768 130.788V134.543L236.267 153.292L203.766 134.543V130.788H268.768Z" fill="url(#paint14_linear_307_5750)"></path><path d="M236.267 149.537L203.766 130.788L236.267 112.039L268.768 130.788L236.267 149.537Z" fill="#BCBEFF"></path><path d="M236.267 149.097L204.141 130.568L203.766 130.788L236.267 149.537L268.768 130.788L268.393 130.568L236.267 149.097Z" fill="white"></path><path d="M236.268 145.212L211.27 130.788L236.268 116.364L261.266 130.788L236.268 145.212Z" fill="#0F054C"></path><path opacity="0.5" d="M236.268 145.212L211.27 130.788L236.268 116.364L261.266 130.788L236.268 145.212Z" fill="url(#paint15_linear_307_5750)"></path><path opacity="0.5" d="M236.268 112.738L261.266 127.149V130.788L236.268 116.364V112.738Z" fill="url(#paint16_linear_307_5750)"></path><path opacity="0.5" d="M236.268 116.364L211.27 130.788V127.149L236.268 112.738V116.364Z" fill="url(#paint17_linear_307_5750)"></path><path opacity="0.5" d="M236.268 141.574L211.27 127.149L236.268 112.738L261.266 127.149L236.268 141.574Z" fill="#82A0FF"></path><path opacity="0.5" d="M236.267 132.911L226.275 127.149L236.267 121.388L246.258 127.149L236.267 132.911Z" fill="#6A8AFF"></path><path opacity="0.5" d="M236.267 121.918L245.792 127.421L246.258 127.149L236.267 121.388L226.275 127.149L226.729 127.421L236.267 121.918Z" fill="#6A8AFF"></path><path opacity="0.5" d="M236.268 141.574V145.212L261.266 130.788V127.149L236.268 141.574Z" fill="#82A0FF"></path><path opacity="0.5" d="M211.27 127.149V130.788L236.268 145.212V141.574L211.27 127.149Z" fill="#5778FF"></path><path opacity="0.8" d="M236.268 141.185L211.606 126.955L211.27 127.149L236.268 141.574L261.266 127.149L260.916 126.955L236.268 141.185Z" fill="#6A8AFF"></path><path d="M236.267 247.84C235.761 247.84 235.282 247.736 234.906 247.516L204.297 229.855C203.908 229.622 203.688 229.298 203.688 228.935C203.688 228.508 203.986 228.094 204.504 227.796L234.699 210.381C235.619 209.85 236.979 209.798 237.783 210.264L268.392 227.925C268.794 228.158 269.001 228.482 269.001 228.845C269.001 229.272 268.703 229.686 268.185 229.984L237.99 247.399C237.485 247.684 236.863 247.84 236.267 247.84ZM235.139 247.115C235.8 247.49 236.992 247.438 237.757 246.998L267.952 229.583C268.314 229.376 268.535 229.104 268.535 228.858C268.535 228.612 268.327 228.443 268.159 228.353L237.55 210.691C236.902 210.316 235.696 210.368 234.932 210.808L204.737 228.223C204.374 228.43 204.154 228.702 204.154 228.948C204.154 229.194 204.361 229.363 204.53 229.453L235.139 247.115Z" fill="#7BD834"></path><path d="M268.768 215.974V219.729L236.267 238.478L203.766 219.729V215.974H268.768Z" fill="url(#paint18_linear_307_5750)"></path><path d="M236.267 234.723L203.766 215.974L236.267 197.225L268.768 215.974L236.267 234.723Z" fill="#BCBEFF"></path><path d="M236.267 234.283L204.141 215.754L203.766 215.974L236.267 234.723L268.768 215.974L268.393 215.754L236.267 234.283Z" fill="white"></path><path d="M236.268 230.398L211.27 215.974L236.268 201.55L261.266 215.974L236.268 230.398Z" fill="#0F054C"></path><path opacity="0.5" d="M236.268 230.398L211.27 215.974L236.268 201.55L261.266 215.974L236.268 230.398Z" fill="url(#paint19_linear_307_5750)"></path><path opacity="0.5" d="M236.268 197.924L261.266 212.336V215.974L236.268 201.55V197.924Z" fill="url(#paint20_linear_307_5750)"></path><path opacity="0.5" d="M236.268 201.55L211.27 215.974V212.336L236.268 197.924V201.55Z" fill="url(#paint21_linear_307_5750)"></path><path opacity="0.5" d="M236.268 226.76L211.27 212.336L236.268 197.924L261.266 212.336L236.268 226.76Z" fill="#82A0FF"></path><path opacity="0.5" d="M236.267 218.098L226.275 212.336L236.267 206.574L246.258 212.336L236.267 218.098Z" fill="#6A8AFF"></path><path opacity="0.5" d="M236.267 207.105L245.792 212.608L246.258 212.336L236.267 206.574L226.275 212.336L226.729 212.608L236.267 207.105Z" fill="#6A8AFF"></path><path opacity="0.5" d="M236.268 226.76V230.398L261.266 215.974V212.336L236.268 226.76Z" fill="#82A0FF"></path><path opacity="0.5" d="M211.27 212.336V215.974L236.268 230.398V226.76L211.27 212.336Z" fill="#5778FF"></path><path opacity="0.8" d="M236.268 226.372L211.606 212.141L211.27 212.336L236.268 226.76L261.266 212.336L260.916 212.141L236.268 226.372Z" fill="#6A8AFF"></path><g opacity="0.5"><path opacity="0.502" d="M78.7221 36.8356C101.18 30.0767 114.541 55.507 101.426 80.0179C90.2945 100.813 63.1452 115.846 56.0437 94.002C51.8708 81.1444 55.3309 49.6544 76.5709 37.7679C70.8429 40.7201 66.6442 44.9153 62.5232 51.752C70.3635 61.3854 70.9984 62.1753 77.7631 69.9442C85.7718 51.0398 86.4327 49.486 92.355 36.7062C87.7157 35.0876 83.6465 35.1265 78.7221 36.8356ZM77.7631 37.2111C77.9056 37.1464 78.0482 37.0946 78.1907 37.0299C78.0482 37.0946 77.9056 37.1593 77.7631 37.2111Z" fill="#6A8AFF"></path><path d="M40.752 60.9452C42.0608 59.5727 43.4734 58.2131 44.9637 56.8924V122.333C43.4734 123.666 42.0608 125.013 40.752 126.385V60.9452Z" fill="#6A8AFF"></path><path d="M34.0254 92.4871C34.9455 91.0239 35.9822 89.5737 37.0967 88.1494V130.581C35.9693 132.005 34.9455 133.442 34.0254 134.918V92.4871Z" fill="#6A8AFF"></path><path opacity="0.502" d="M28 141.807L28.0648 141.962L28.1425 137.663L28 137.43V141.807ZM28 154.457V89.0169C28 88.6026 28.013 88.1753 28.0259 87.761C28.1425 84.7699 28.6609 81.8307 29.568 78.9432V144.383C28.6609 147.271 28.1425 150.21 28.0259 153.201C28.013 153.628 28 154.043 28 154.457Z" fill="#6A8AFF"></path><path d="M28 141.807L28.0648 141.962L28.1555 137.663L28 137.43V141.807Z" fill="#6A8AFF"></path><path d="M78.6697 36.8486C78.6826 36.8356 78.7086 36.8356 78.7215 36.8227C78.7086 36.8356 78.6956 36.8486 78.6697 36.8486ZM78.1902 37.0428H78.2032H78.2161H78.2291H78.242H78.255H78.268H78.2809H78.2939C78.255 37.0169 78.2291 37.0299 78.1902 37.0428Z" fill="#6A8AFF"></path><path d="M77.7633 37.2111C85.0852 34.1683 90.3595 35.994 92.3552 36.6932C83.9837 55.1315 83.1025 57.0607 77.7633 69.9313C69.5084 60.3496 68.2384 58.8735 62.5234 51.739C64.1433 49.0587 69.0548 40.8884 77.7633 37.2111Z" fill="#6A8AFF"></path><path opacity="0.502" d="M129.729 198.196C122.99 200.19 118.662 196.099 117.081 194.894C104.718 184.432 93.8839 171.665 81.4692 161.242C77.8017 158.16 75.5598 159.442 74.2769 159.779C51.132 168.946 51.132 168.946 47.4257 163.353C40.6221 151.324 40.3889 150.353 37.2398 142.843C36.5141 141.12 34.0778 138.531 32.9763 138.66C27.7927 140.123 28.4795 141.185 28 141.807V137.43C34.1167 135.074 34.7517 134.789 37.2398 140.486C48.6697 164.725 50.6784 164.194 53.348 163.56C77.711 153.823 77.4 154.535 83.6074 160.983C94.3505 172.157 116.005 193.897 122.692 195.632C124.74 195.904 128.005 195.607 129.936 195.115C153.444 187.242 162.774 182.296 185.777 172.39L187.837 175.731C179.323 179.447 153.586 189.56 129.884 197.018L129.729 198.196ZM203.22 224.585V159.144C195.989 159.546 188.602 159.74 181.112 159.675C95.9833 158.989 28 127.486 28 89.0169V154.457C28 192.913 95.9833 224.429 181.099 225.103C188.602 225.167 195.989 224.986 203.22 224.585Z" fill="#6A8AFF"></path><path d="M129.729 198.196C123.664 199.75 117.936 201.213 82.2856 162.886C77.7758 158.355 77.7758 158.355 54.618 167.574C51.9873 168.208 48.0218 169.179 37.0714 143.089C33.689 135.384 28.0518 141.742 28 141.807V137.43C29.9179 136.343 30.0475 136.265 32.9245 135.462C33.4558 135.32 34.026 135.346 34.5055 135.592C35.27 135.993 36.0476 136.899 37.4083 139.774C43.7194 153.201 43.7194 153.201 48.255 160.543C50.9376 164.505 50.9376 164.505 72.6699 155.894C74.1602 155.493 77.2445 154.664 81.8968 158.38C94.9855 168.817 105.638 181.856 118.558 192.473C123.405 195.917 126.333 198.002 185.79 172.403L187.85 175.744C179.336 179.447 153.418 190.738 129.729 198.196Z" fill="#6A8AFF"></path></g></g></g><defs><linearGradient id="paint0_linear_307_5750" x1="111.347" y1="232.918" x2="230.235" y2="232.918" gradientUnits="userSpaceOnUse"><stop stop-color="#5761D7"></stop><stop offset="0.0726" stop-color="#5472D8"></stop><stop offset="0.2791" stop-color="#4E9CDB"></stop><stop offset="0.4801" stop-color="#4396E3"></stop><stop offset="0.6715" stop-color="#4396E3"></stop><stop offset="0.8493" stop-color="#4396E3"></stop><stop offset="1" stop-color="#4396E3"></stop></linearGradient><linearGradient id="paint1_linear_307_5750" x1="111.347" y1="157.314" x2="230.235" y2="157.314" gradientUnits="userSpaceOnUse"><stop stop-color="#5761D7"></stop><stop offset="0.0726" stop-color="#5472D8"></stop><stop offset="0.2791" stop-color="#4E9CDB"></stop><stop offset="0.4801" stop-color="#4396E3"></stop><stop offset="0.6715" stop-color="#4396E3"></stop><stop offset="0.8493" stop-color="#4396E3"></stop><stop offset="1" stop-color="#4396E3"></stop></linearGradient><linearGradient id="paint2_linear_307_5750" x1="111.347" y1="157.314" x2="230.235" y2="157.314" gradientUnits="userSpaceOnUse"><stop stop-color="#5761D7"></stop><stop offset="0.0726" stop-color="#5472D8"></stop><stop offset="0.2791" stop-color="#4E9CDB"></stop><stop offset="0.4801" stop-color="#4396E3"></stop><stop offset="0.6715" stop-color="#4396E3"></stop><stop offset="0.8493" stop-color="#4396E3"></stop><stop offset="1" stop-color="#4396E3"></stop></linearGradient><linearGradient id="paint3_linear_307_5750" x1="160.035" y1="133.289" x2="165.182" y2="133.289" gradientUnits="userSpaceOnUse"><stop stop-color="#5761D7"></stop><stop offset="0.0726" stop-color="#5472D8"></stop><stop offset="0.2791" stop-color="#4E9CDB"></stop><stop offset="0.4801" stop-color="#49BDDD"></stop><stop offset="0.6715" stop-color="#45D5DF"></stop><stop offset="0.8493" stop-color="#43E3E0"></stop><stop offset="1" stop-color="#42E8E0"></stop></linearGradient><linearGradient id="paint4_linear_307_5750" x1="162.653" y1="121.988" x2="175.541" y2="121.988" gradientUnits="userSpaceOnUse"><stop stop-color="#5761D7"></stop><stop offset="0.0726" stop-color="#5472D8"></stop><stop offset="0.2791" stop-color="#4E9CDB"></stop><stop offset="0.4801" stop-color="#49BDDD"></stop><stop offset="0.6715" stop-color="#45D5DF"></stop><stop offset="0.8493" stop-color="#43E3E0"></stop><stop offset="1" stop-color="#42E8E0"></stop></linearGradient><linearGradient id="paint5_linear_307_5750" x1="172.906" y1="145.718" x2="174.992" y2="145.535" gradientUnits="userSpaceOnUse"><stop stop-color="#5761D7"></stop><stop offset="0.0726" stop-color="#5472D8"></stop><stop offset="0.2791" stop-color="#4E9CDB"></stop><stop offset="0.4801" stop-color="#49BDDD"></stop><stop offset="0.6715" stop-color="#45D5DF"></stop><stop offset="0.8493" stop-color="#43E3E0"></stop><stop offset="1" stop-color="#42E8E0"></stop></linearGradient><linearGradient id="paint6_linear_307_5750" x1="168.613" y1="142.11" x2="170.694" y2="141.928" gradientUnits="userSpaceOnUse"><stop stop-color="#5761D7"></stop><stop offset="0.0726" stop-color="#5472D8"></stop><stop offset="0.2791" stop-color="#4E9CDB"></stop><stop offset="0.4801" stop-color="#49BDDD"></stop><stop offset="0.6715" stop-color="#45D5DF"></stop><stop offset="0.8493" stop-color="#43E3E0"></stop><stop offset="1" stop-color="#42E8E0"></stop></linearGradient><linearGradient id="paint7_linear_307_5750" x1="57.3998" y1="142.038" x2="140.704" y2="142.038" gradientUnits="userSpaceOnUse"><stop stop-color="#5761D7"></stop><stop offset="0.1645" stop-color="#5E67DA"></stop><stop offset="0.4051" stop-color="#727AE2"></stop><stop offset="0.6924" stop-color="#9297EE"></stop><stop offset="1" stop-color="#BCBEFF"></stop></linearGradient><linearGradient id="paint8_linear_307_5750" x1="80.9757" y1="130.791" x2="130.977" y2="130.791" gradientUnits="userSpaceOnUse"><stop stop-color="#42E8E0"></stop><stop offset="0.1507" stop-color="#43E3E0"></stop><stop offset="0.3285" stop-color="#45D5DF"></stop><stop offset="0.5199" stop-color="#49BDDD"></stop><stop offset="0.7209" stop-color="#4E9CDB"></stop><stop offset="0.9274" stop-color="#5472D8"></stop><stop offset="1" stop-color="#5761D7"></stop></linearGradient><linearGradient id="paint9_linear_307_5750" x1="105.976" y1="121.762" x2="130.977" y2="121.762" gradientUnits="userSpaceOnUse"><stop stop-color="#42E8E0"></stop><stop offset="0.1507" stop-color="#43E3E0"></stop><stop offset="0.3285" stop-color="#45D5DF"></stop><stop offset="0.5199" stop-color="#49BDDD"></stop><stop offset="0.7209" stop-color="#4E9CDB"></stop><stop offset="0.9274" stop-color="#5472D8"></stop><stop offset="1" stop-color="#5761D7"></stop></linearGradient><linearGradient id="paint10_linear_307_5750" x1="80.9757" y1="121.762" x2="105.977" y2="121.762" gradientUnits="userSpaceOnUse"><stop stop-color="#42E8E0"></stop><stop offset="0.1507" stop-color="#43E3E0"></stop><stop offset="0.3285" stop-color="#45D5DF"></stop><stop offset="0.5199" stop-color="#49BDDD"></stop><stop offset="0.7209" stop-color="#4E9CDB"></stop><stop offset="0.9274" stop-color="#5472D8"></stop><stop offset="1" stop-color="#5761D7"></stop></linearGradient><linearGradient id="paint11_linear_307_5750" x1="57.3998" y1="227.225" x2="140.704" y2="227.225" gradientUnits="userSpaceOnUse"><stop stop-color="#5761D7"></stop><stop offset="0.1645" stop-color="#5E67DA"></stop><stop offset="0.4051" stop-color="#727AE2"></stop><stop offset="0.6924" stop-color="#9297EE"></stop><stop offset="1" stop-color="#BCBEFF"></stop></linearGradient><linearGradient id="paint12_linear_307_5750" x1="105.976" y1="206.948" x2="130.977" y2="206.948" gradientUnits="userSpaceOnUse"><stop stop-color="#42E8E0"></stop><stop offset="0.1507" stop-color="#43E3E0"></stop><stop offset="0.3285" stop-color="#45D5DF"></stop><stop offset="0.5199" stop-color="#49BDDD"></stop><stop offset="0.7209" stop-color="#4E9CDB"></stop><stop offset="0.9274" stop-color="#5472D8"></stop><stop offset="1" stop-color="#5761D7"></stop></linearGradient><linearGradient id="paint13_linear_307_5750" x1="80.9757" y1="206.948" x2="105.977" y2="206.948" gradientUnits="userSpaceOnUse"><stop stop-color="#42E8E0"></stop><stop offset="0.1507" stop-color="#43E3E0"></stop><stop offset="0.3285" stop-color="#45D5DF"></stop><stop offset="0.5199" stop-color="#49BDDD"></stop><stop offset="0.7209" stop-color="#4E9CDB"></stop><stop offset="0.9274" stop-color="#5472D8"></stop><stop offset="1" stop-color="#5761D7"></stop></linearGradient><linearGradient id="paint14_linear_307_5750" x1="187.689" y1="142.038" x2="270.993" y2="142.038" gradientUnits="userSpaceOnUse"><stop stop-color="#5761D7"></stop><stop offset="0.1645" stop-color="#5E67DA"></stop><stop offset="0.4051" stop-color="#727AE2"></stop><stop offset="0.6924" stop-color="#9297EE"></stop><stop offset="1" stop-color="#BCBEFF"></stop></linearGradient><linearGradient id="paint15_linear_307_5750" x1="211.264" y1="130.791" x2="261.266" y2="130.791" gradientUnits="userSpaceOnUse"><stop stop-color="#42E8E0"></stop><stop offset="0.1507" stop-color="#43E3E0"></stop><stop offset="0.3285" stop-color="#45D5DF"></stop><stop offset="0.5199" stop-color="#49BDDD"></stop><stop offset="0.7209" stop-color="#4E9CDB"></stop><stop offset="0.9274" stop-color="#5472D8"></stop><stop offset="1" stop-color="#5761D7"></stop></linearGradient><linearGradient id="paint16_linear_307_5750" x1="236.265" y1="121.762" x2="261.266" y2="121.762" gradientUnits="userSpaceOnUse"><stop stop-color="#42E8E0"></stop><stop offset="0.1507" stop-color="#43E3E0"></stop><stop offset="0.3285" stop-color="#45D5DF"></stop><stop offset="0.5199" stop-color="#49BDDD"></stop><stop offset="0.7209" stop-color="#4E9CDB"></stop><stop offset="0.9274" stop-color="#5472D8"></stop><stop offset="1" stop-color="#5761D7"></stop></linearGradient><linearGradient id="paint17_linear_307_5750" x1="211.264" y1="121.762" x2="236.265" y2="121.762" gradientUnits="userSpaceOnUse"><stop stop-color="#42E8E0"></stop><stop offset="0.1507" stop-color="#43E3E0"></stop><stop offset="0.3285" stop-color="#45D5DF"></stop><stop offset="0.5199" stop-color="#49BDDD"></stop><stop offset="0.7209" stop-color="#4E9CDB"></stop><stop offset="0.9274" stop-color="#5472D8"></stop><stop offset="1" stop-color="#5761D7"></stop></linearGradient><linearGradient id="paint18_linear_307_5750" x1="187.689" y1="227.225" x2="270.993" y2="227.225" gradientUnits="userSpaceOnUse"><stop stop-color="#5761D7"></stop><stop offset="0.1645" stop-color="#5E67DA"></stop><stop offset="0.4051" stop-color="#727AE2"></stop><stop offset="0.6924" stop-color="#9297EE"></stop><stop offset="1" stop-color="#BCBEFF"></stop></linearGradient><linearGradient id="paint19_linear_307_5750" x1="211.264" y1="215.977" x2="261.266" y2="215.977" gradientUnits="userSpaceOnUse"><stop stop-color="#42E8E0"></stop><stop offset="0.1507" stop-color="#43E3E0"></stop><stop offset="0.3285" stop-color="#45D5DF"></stop><stop offset="0.5199" stop-color="#49BDDD"></stop><stop offset="0.7209" stop-color="#4E9CDB"></stop><stop offset="0.9274" stop-color="#5472D8"></stop><stop offset="1" stop-color="#5761D7"></stop></linearGradient><linearGradient id="paint20_linear_307_5750" x1="236.265" y1="206.948" x2="261.266" y2="206.948" gradientUnits="userSpaceOnUse"><stop stop-color="#42E8E0"></stop><stop offset="0.1507" stop-color="#43E3E0"></stop><stop offset="0.3285" stop-color="#45D5DF"></stop><stop offset="0.5199" stop-color="#49BDDD"></stop><stop offset="0.7209" stop-color="#4E9CDB"></stop><stop offset="0.9274" stop-color="#5472D8"></stop><stop offset="1" stop-color="#5761D7"></stop></linearGradient><linearGradient id="paint21_linear_307_5750" x1="211.264" y1="206.948" x2="236.265" y2="206.948" gradientUnits="userSpaceOnUse"><stop stop-color="#42E8E0"></stop><stop offset="0.1507" stop-color="#43E3E0"></stop><stop offset="0.3285" stop-color="#45D5DF"></stop><stop offset="0.5199" stop-color="#49BDDD"></stop><stop offset="0.7209" stop-color="#4E9CDB"></stop><stop offset="0.9274" stop-color="#5472D8"></stop><stop offset="1" stop-color="#5761D7"></stop></linearGradient><clipPath id="clip0_307_5750"><rect width="314" height="271" fill="white"></rect></clipPath><clipPath id="clip1_307_5750"><rect width="241" height="273" fill="white" transform="translate(28 21)"></rect></clipPath></defs></svg> 