<svg width="397" height="368" viewBox="0 0 397 368" fill="none" xmlns="http://www.w3.org/2000/svg">
<g opacity="0.45">
<path d="M295.079 225.066C294.961 225.066 294.853 225.034 294.745 224.982L162.811 151.151C160.383 149.791 159.045 147.94 159.045 145.952C159.045 143.954 160.383 142.113 162.811 140.753L248.727 92.676C250.724 91.5567 251.825 90.1131 251.825 88.6068C251.825 87.1005 250.724 85.6569 248.727 84.5376L103.25 3.1225C98.8681 0.674709 91.7346 0.674709 87.353 3.1225L38.5618 30.4248C36.5653 31.544 35.4645 32.9876 35.4645 34.4939C35.4645 36.0003 36.5653 37.4438 38.5618 38.5631L111.096 79.1504C113.524 80.5103 114.862 82.3618 114.862 84.3493C114.862 86.3473 113.524 88.1884 111.096 89.5483L2.64573 150.241C-2.11359 152.898 -9.84071 152.908 -14.6 150.241L-86.6158 109.947C-86.9395 109.769 -87.0474 109.361 -86.864 109.057C-86.6805 108.744 -86.2596 108.639 -85.9466 108.817L-13.9309 149.111C-9.54933 151.559 -2.41574 151.559 1.96585 149.111L110.416 88.4185C112.412 87.2992 113.513 85.8557 113.513 84.3493C113.513 82.843 112.412 81.3994 110.416 80.2802L37.882 39.6929C35.4538 38.333 34.1155 36.4815 34.1155 34.4939C34.1155 32.496 35.4538 30.6549 37.882 29.295L86.6731 1.99275C91.4216 -0.66425 99.1703 -0.66425 103.919 1.99275L249.396 83.4079C251.825 84.7678 253.163 86.6193 253.163 88.6173C253.163 90.6153 251.825 92.4563 249.396 93.8162L163.48 141.893C161.484 143.013 160.383 144.456 160.383 145.962C160.383 147.469 161.484 148.912 163.48 150.032L295.414 223.863C295.738 224.041 295.846 224.449 295.662 224.762C295.543 224.951 295.317 225.066 295.079 225.066Z" fill="#7BD834"/>
<path d="M263.653 169.708C263.415 169.708 263.189 169.593 263.07 169.384C262.887 169.07 262.995 168.673 263.318 168.484L391.377 96.8184C394.129 95.2807 395.64 93.2723 395.64 91.1697C395.64 89.0671 394.129 87.0587 391.377 85.521L268.563 16.7841C262.628 13.4576 252.958 13.4576 247.022 16.7841L219.567 32.1508C219.243 32.3286 218.833 32.224 218.639 31.9102C218.455 31.5964 218.563 31.1989 218.887 31.0106L246.342 15.6439C252.656 12.1082 262.919 12.1082 269.232 15.6439L392.057 84.3807C395.241 86.159 397 88.5755 397 91.1592C397 93.7535 395.241 96.1594 392.057 97.9482L263.998 169.614C263.879 169.677 263.761 169.708 263.653 169.708Z" fill="#7BD834"/>
<path d="M-41.2881 368C-44.8064 368 -48.3246 367.247 -51.001 365.751L-226.448 267.567C-229.168 266.04 -230.668 263.979 -230.668 261.751C-230.668 259.523 -229.168 257.463 -226.448 255.935L-166.606 222.451C-161.253 219.449 -152.533 219.449 -147.18 222.451L-103.915 246.667C-103.591 246.845 -103.483 247.253 -103.666 247.567C-103.85 247.881 -104.271 247.985 -104.584 247.807L-147.849 223.591C-152.835 220.798 -160.94 220.808 -165.926 223.591L-225.768 257.075C-228.056 258.352 -229.319 260.015 -229.319 261.751C-229.319 263.488 -228.056 265.151 -225.768 266.427L-50.3211 364.611C-45.3352 367.404 -37.2303 367.404 -32.2443 364.611L194.789 237.556C195.113 237.378 195.523 237.483 195.717 237.797C195.901 238.11 195.793 238.508 195.469 238.696L-31.5752 365.751C-34.2517 367.247 -37.7699 368 -41.2881 368Z" fill="#7BD834"/>
<path d="M-27.4638 287.777C-30.982 287.777 -34.5002 287.024 -37.1767 285.528L-72.7798 265.601C-73.1036 265.423 -73.2115 265.015 -73.028 264.701C-72.8446 264.387 -72.4237 264.283 -72.1107 264.46L-36.5076 284.388C-31.5216 287.181 -23.4167 287.181 -18.4308 284.388L130.9 200.818C133.188 199.542 134.45 197.879 134.45 196.142C134.45 194.406 133.188 192.742 130.9 191.466L86.7706 166.769C81.7847 163.976 73.6798 163.976 68.6938 166.769L-17.7617 215.149C-23.1146 218.151 -31.8346 218.151 -37.1874 215.149L-157.983 147.552C-162.969 144.759 -171.074 144.759 -176.06 147.552L-304.994 219.71C-305.317 219.888 -305.727 219.783 -305.911 219.469C-306.094 219.155 -305.986 218.758 -305.663 218.58L-176.708 146.423C-171.355 143.42 -162.635 143.42 -157.282 146.423L-36.486 214.019C-31.5 216.812 -23.3951 216.812 -18.4092 214.019L68.0463 165.639C73.3992 162.637 82.1192 162.637 87.4721 165.639L131.601 190.336C134.321 191.864 135.821 193.924 135.821 196.153C135.821 198.381 134.321 200.441 131.601 201.969L-17.7509 285.528C-20.4273 287.024 -23.9456 287.777 -27.4638 287.777Z" fill="#7BD834"/>
<path d="M126.582 319.358C126.463 319.358 126.355 319.327 126.247 319.274L88.518 298.165C88.1943 297.987 88.0864 297.579 88.2698 297.265C88.4533 296.951 88.8634 296.847 89.1979 297.025L126.927 318.134C127.251 318.312 127.359 318.72 127.175 319.034C127.046 319.243 126.819 319.358 126.582 319.358Z" fill="#7BD834"/>
<path d="M23.4317 87.1109C23.1943 87.1109 22.9676 86.9958 22.8489 86.7866C22.6654 86.4728 22.7734 86.0753 23.0971 85.887L72.7948 58.0826C73.1185 57.9048 73.5286 58.0094 73.7229 58.3232C73.9064 58.637 73.7984 59.0345 73.4747 59.2228L23.7771 87.0272C23.6583 87.0795 23.5504 87.1109 23.4317 87.1109Z" fill="#BBE8A6"/>
<path d="M23.928 99.3603H1.54514C1.16742 99.3603 0.865234 99.0674 0.865234 98.7013V86.1799C0.865234 86.0021 0.940771 85.8347 1.05948 85.7197C1.18899 85.5941 1.36167 85.5314 1.53434 85.5314H23.9172C24.2949 85.5314 24.5971 85.8243 24.5971 86.1904V98.7118C24.6079 99.057 24.3057 99.3603 23.928 99.3603ZM2.22505 98.0423H23.2481V86.8285H2.22505V98.0423Z" fill="#BBE8A6"/>
<path d="M291.443 71.9326H269.06C268.682 71.9326 268.38 71.6397 268.38 71.2736V58.7522C268.38 58.3861 268.682 58.0932 269.06 58.0932H291.443C291.82 58.0932 292.123 58.3861 292.123 58.7522V71.2736C292.123 71.6397 291.82 71.9326 291.443 71.9326ZM269.74 70.6146H290.763V59.4008H269.74V70.6146Z" fill="#7BD834"/>
<path d="M148.965 331.89H126.582C126.205 331.89 125.902 331.597 125.902 331.231V318.709C125.902 318.532 125.978 318.364 126.097 318.249C126.226 318.124 126.399 318.061 126.571 318.061H148.954C149.332 318.061 149.634 318.354 149.634 318.72V331.241C149.634 331.587 149.332 331.89 148.965 331.89ZM127.262 330.572H148.285V319.358H127.262V330.572Z" fill="#7BD834"/>
<path d="M0.164234 347.884C0.0455208 347.884 -0.0732002 347.853 -0.18112 347.79L-22.8445 334.944C-23.1683 334.767 -23.2762 334.359 -23.082 334.045C-22.8985 333.731 -22.4776 333.626 -22.1538 333.815L0.50959 346.66C0.833353 346.838 0.941275 347.246 0.747017 347.56C0.617512 347.769 0.390869 347.884 0.164234 347.884Z" fill="#7BD834"/>
</g>
</svg>
