<?xml version="1.0" encoding="UTF-8"?> <svg xmlns="http://www.w3.org/2000/svg" width="250" height="225" viewBox="0 0 250 225" fill="none"><g opacity="0.5"><path d="M95.6302 130.208L190.801 185.25C191.624 185.727 191.624 186.919 190.801 187.396L137.956 217.958C135.556 219.347 132.598 219.347 130.198 217.958L38.9099 165.157C38.0872 164.68 38.0872 163.488 38.9099 163.011L95.6302 130.208Z" fill="#32589D" fill-opacity="0.6"></path></g><path d="M98.5938 106.028L111.315 30.4424L110.296 30.0133L111.832 29.1279V29.1347C112.131 28.9371 112.553 28.9508 113.015 29.2164L214.659 88.0048C215.495 88.4884 216.128 89.7281 215.978 90.5931L203.161 166.784C203.093 167.18 202.896 167.445 202.624 167.561L201.121 168.433L200.863 167.03L200.951 167.057L99.9197 108.623C99.0765 108.132 98.451 106.893 98.5938 106.028Z" fill="url(#paint0_linear_276_6597)"></path><path d="M214.089 90.0756L215.761 89.3331C215.952 89.7622 216.04 90.2118 215.979 90.5932L203.162 166.785C203.094 167.18 202.897 167.445 202.625 167.561L201.122 168.433L200.864 167.03L200.952 167.057L195.839 164.101L214.089 90.0756Z" fill="url(#paint1_linear_276_6597)"></path><path d="M98.322 109.529L199.966 168.317C200.748 168.773 201.421 168.508 201.564 167.697L214.38 91.5059C214.53 90.6409 213.898 89.4012 213.061 88.9176L111.418 30.1291C110.636 29.6728 109.963 29.9384 109.82 30.749L97.0029 106.94C96.8533 107.812 97.4857 109.052 98.322 109.529Z" fill="#32589D"></path><g opacity="0.51"><path d="M112.744 34.9993L210.723 91.6626L198.572 163.42L100.661 106.79L112.744 34.9993Z" fill="#102140"></path></g><path d="M34.4291 145.601L39.9774 148.503L95.5962 116.333C96.5277 115.795 98.1528 115.863 99.2271 116.483L195.159 171.968C196.077 171.45 200.266 169.434 200.266 169.434L198.233 174.733L198.226 174.726C198.144 174.965 197.961 175.183 197.661 175.36L139.078 209.239C138.147 209.777 136.522 209.709 135.447 209.09L37.2781 152.31C36.8361 152.058 36.5641 151.745 36.4553 151.432L36.4485 151.439L34.4291 145.601Z" fill="url(#paint2_linear_276_6597)"></path><path d="M35.2849 146.514L135.895 204.703C136.997 205.343 138.663 205.411 139.614 204.86L199.653 170.136C200.605 169.584 200.489 168.624 199.388 167.983L98.7774 109.794C97.6759 109.154 96.0101 109.086 95.0582 109.638L35.0198 144.362C34.0611 144.913 34.1834 145.881 35.2849 146.514Z" fill="url(#paint3_linear_276_6597)"></path><path d="M166.24 192.116V191.012C166.24 190.91 166.179 190.863 166.097 190.904L162.208 193.151C162.127 193.199 162.065 193.322 162.065 193.424V194.527C162.065 194.629 162.127 194.677 162.208 194.636L166.097 192.388C166.179 192.348 166.24 192.225 166.24 192.116Z" fill="#2859CB"></path><path d="M160.42 195.488V194.384C160.42 194.282 160.359 194.234 160.277 194.275L156.388 196.523C156.306 196.571 156.245 196.693 156.245 196.795V197.899C156.245 198.001 156.306 198.049 156.388 198.008L160.277 195.76C160.359 195.712 160.42 195.59 160.42 195.488Z" fill="#2859CB"></path><path d="M184 166.887L100.395 118.533C99.8376 118.213 99.1509 118.213 98.5933 118.533L68.8189 135.786C68.3905 136.032 68.3905 136.652 68.8189 136.897L152.39 185.23C152.947 185.55 153.634 185.55 154.192 185.23L184.007 167.997C184.429 167.752 184.428 167.132 184 166.887Z" fill="#ADC8FF"></path><path d="M184.001 167.997L183.702 168.167L100.396 119.984C99.8385 119.664 99.1517 119.664 98.5942 119.984L69.1189 137.067L68.8197 136.897C68.3914 136.652 68.3914 136.032 68.8197 135.786L98.5942 118.533C99.1517 118.213 99.8385 118.213 100.396 118.533L184.001 166.887C184.429 167.132 184.429 167.752 184.001 167.997Z" fill="#91AFFF"></path><path d="M96.3416 122.899L168.966 164.905L172.195 163.038L99.5713 121.033L96.3416 122.899Z" fill="#32589D"></path><path d="M88.4277 127.477L156.544 166.873L159.773 165.007L91.6574 125.61L88.4277 127.477Z" fill="#32589D"></path><path d="M83.2749 130.46L163.473 176.845L166.703 174.979L86.5046 128.594L83.2749 130.46Z" fill="#32589D"></path><path d="M78.1138 133.443L158.319 179.828L161.549 177.962L81.3435 131.577L78.1138 133.443Z" fill="#32589D"></path><path d="M72.9595 136.427L153.165 182.812L156.395 180.945L76.1892 134.56L72.9595 136.427Z" fill="#32589D"></path><path d="M173.359 167.439L176.589 169.312L179.818 167.439L176.589 165.572L173.359 167.439Z" fill="#32589D"></path><path d="M161.969 170.013L168.667 173.889L171.896 172.023L165.199 168.14L161.969 170.013Z" fill="#32589D"></path><path d="M97.1734 178.589L74.6267 165.552C73.7428 165.041 73.7428 164.217 74.6267 163.706L90.0409 154.79C90.9248 154.279 92.3527 154.279 93.2298 154.79L115.777 167.827C116.66 168.338 116.66 169.162 115.777 169.673L100.362 178.589C99.4852 179.093 98.0574 179.093 97.1734 178.589Z" fill="url(#paint4_linear_276_6597)"></path><path d="M115.783 168.583L93.2362 155.546C92.3523 155.035 90.9244 155.035 90.0473 155.546L74.6331 164.462C74.3611 164.619 74.1844 164.809 74.0824 165.007C73.8512 164.564 74.028 164.06 74.6331 163.706L90.0473 154.79C90.9312 154.279 92.3591 154.279 93.2362 154.79L115.783 167.827C116.395 168.181 116.572 168.678 116.334 169.128C116.232 168.923 116.055 168.74 115.783 168.583Z" fill="#91AFFF"></path><g opacity="0.11"><mask id="mask0_276_6597" style="mask-type:luminance" maskUnits="userSpaceOnUse" x="100" y="34" width="111" height="130"><path d="M112.744 34.9993L210.723 91.6626L198.572 163.42L100.661 106.79L112.744 34.9993Z" fill="white"></path></mask><g mask="url(#mask0_276_6597)"><path d="M98.6756 109.672L199.286 167.861C200.387 168.501 202.053 168.569 203.005 168.017L263.043 133.293C263.995 132.742 263.88 131.781 262.778 131.141L162.168 72.9519C161.067 72.3116 159.401 72.2435 158.449 72.7952L98.4104 107.519C97.4585 108.071 97.5741 109.038 98.6756 109.672Z" fill="url(#paint5_linear_276_6597)"></path><path d="M199.586 120.107L177.039 107.07C176.155 106.559 176.155 105.735 177.039 105.224L192.453 96.3079C193.337 95.7971 194.765 95.7971 195.642 96.3079L218.189 109.345C219.073 109.856 219.073 110.68 218.189 111.191L202.774 120.107C201.897 120.618 200.469 120.618 199.586 120.107Z" fill="url(#paint6_linear_276_6597)"></path><path d="M218.195 110.101L195.648 97.064C194.764 96.5531 193.336 96.5531 192.459 97.064L177.045 105.98C176.773 106.137 176.596 106.327 176.494 106.525C176.263 106.082 176.44 105.578 177.045 105.224L192.459 96.3079C193.343 95.7971 194.771 95.7971 195.648 96.3079L218.195 109.345C218.807 109.699 218.984 110.196 218.746 110.646C218.644 110.448 218.467 110.258 218.195 110.101Z" fill="#91AFFF"></path><path d="M228.102 140.486L144.497 92.1326C143.939 91.8124 143.252 91.8124 142.695 92.1326L112.92 109.386C112.492 109.631 112.492 110.251 112.92 110.496L196.491 158.829C197.049 159.149 197.736 159.149 198.293 158.829L228.109 141.596C228.53 141.351 228.53 140.731 228.102 140.486Z" fill="#ADC8FF"></path><path d="M228.101 141.596L227.801 141.767L144.496 93.5834C143.938 93.2632 143.251 93.2632 142.694 93.5834L113.219 110.666L112.919 110.496C112.491 110.251 112.491 109.631 112.919 109.386L142.694 92.1326C143.251 91.8124 143.938 91.8124 144.496 92.1326L228.101 140.486C228.529 140.731 228.529 141.351 228.101 141.596Z" fill="#91AFFF"></path><path d="M120.712 108.207L193.547 150.335L190.664 152.004L117.829 109.876L120.712 108.207Z" fill="#32589D"></path><path d="M128.388 103.766L197.619 143.81L194.729 145.479L125.505 105.435L128.388 103.766Z" fill="#32589D"></path><path d="M202.788 146.8L209.254 150.539L206.371 152.208L199.905 148.469L202.788 146.8Z" fill="#32589D"></path><path d="M197.075 152.372L201.576 154.98L198.693 156.642L194.192 154.04L197.075 152.372Z" fill="#32589D"></path><path d="M133.196 100.987L214.061 147.76L211.178 149.429L130.313 102.656L133.196 100.987Z" fill="#32589D"></path><path d="M138.002 98.2081L218.867 144.975L215.984 146.643L135.119 99.8769L138.002 98.2081Z" fill="#32589D"></path><path d="M142.817 95.4222L223.682 142.196L220.792 143.864L139.927 97.091L142.817 95.4222Z" fill="#32589D"></path></g></g><path d="M103.015 141.524C102.988 141.524 102.967 141.517 102.94 141.504L102.803 141.421C102.734 141.38 102.714 141.291 102.755 141.223C102.796 141.155 102.885 141.134 102.953 141.175L103.09 141.257C103.159 141.298 103.179 141.387 103.138 141.456C103.111 141.497 103.063 141.524 103.015 141.524ZM100.318 139.902C100.291 139.902 100.27 139.895 100.243 139.881L97.6832 138.341C97.6147 138.3 97.5942 138.211 97.6352 138.143C97.6763 138.075 97.7653 138.054 97.8337 138.095L100.394 139.635C100.462 139.676 100.483 139.765 100.441 139.834C100.414 139.875 100.366 139.902 100.318 139.902ZM95.1986 136.822C95.1713 136.822 95.1507 136.815 95.1233 136.801L92.5635 135.261C92.4951 135.22 92.4746 135.131 92.5156 135.063C92.5567 134.995 92.6457 134.974 92.7141 135.015L95.2739 136.555C95.3424 136.596 95.3629 136.685 95.3218 136.754C95.2945 136.801 95.2465 136.822 95.1986 136.822ZM90.0859 133.749C90.0585 133.749 90.038 133.742 90.0106 133.728L87.4508 132.188C87.3823 132.147 87.3618 132.058 87.4028 131.99C87.4439 131.921 87.5329 131.901 87.6013 131.942L90.1611 133.482C90.2296 133.523 90.2501 133.612 90.2091 133.68C90.1817 133.721 90.1338 133.749 90.0859 133.749ZM84.9731 130.669C84.9457 130.669 84.9252 130.662 84.8978 130.648L82.338 129.108C82.2695 129.067 82.249 128.978 82.2901 128.91C82.3311 128.841 82.4201 128.821 82.4886 128.862L85.0484 130.402C85.1168 130.443 85.1374 130.532 85.0963 130.6C85.0689 130.648 85.021 130.669 84.9731 130.669ZM79.8535 127.596C79.8261 127.596 79.8055 127.589 79.7782 127.575L77.2184 126.035C77.1499 125.994 77.1294 125.905 77.1705 125.837C77.2115 125.768 77.3005 125.748 77.3689 125.789L79.9288 127.329C79.9972 127.37 80.0177 127.459 79.9767 127.527C79.9493 127.568 79.9014 127.596 79.8535 127.596ZM74.7407 124.516C74.7133 124.516 74.6928 124.509 74.6654 124.495L72.1056 122.955C72.0371 122.914 72.0166 122.825 72.0577 122.757C72.0987 122.688 72.1877 122.668 72.2562 122.709L74.816 124.249C74.8844 124.29 74.905 124.379 74.8639 124.447C74.8365 124.495 74.7886 124.516 74.7407 124.516ZM69.6279 121.443C69.6005 121.443 69.58 121.436 69.5526 121.422L66.9928 119.882C66.9244 119.841 66.9038 119.752 66.9449 119.684C66.986 119.615 67.0749 119.595 67.1434 119.636L69.7032 121.176C69.7716 121.217 69.7922 121.306 69.7511 121.374C69.7237 121.415 69.6758 121.443 69.6279 121.443Z" fill="url(#paint7_linear_276_6597)"></path><path d="M123.829 127.123L114.527 121.751V132.496L123.829 137.869L133.13 132.496V121.751L123.829 127.123Z" fill="#7BD834"></path><path d="M123.829 137.869L114.527 132.496V121.751L123.829 127.123V137.869Z" fill="#7BD834"></path><path d="M133.13 132.496L123.828 137.869V127.123L133.13 121.751V132.496Z" fill="#598638"></path><path d="M123.829 127.124L114.527 121.751L123.829 116.385L133.13 121.751L123.829 127.124Z" fill="#7BD834"></path><path d="M123.829 127.123L114.931 121.983L114.527 122.216L123.829 127.589L133.13 122.216L132.727 121.983L123.829 127.123Z" fill="white"></path><path d="M135.918 134.023L126.609 128.65V139.389L135.918 144.762L145.219 139.389V128.65L135.918 134.023Z" fill="#7BD834"></path><path d="M135.918 144.762L126.609 139.389V128.65L135.918 134.023V144.762Z" fill="#7BD834"></path><path d="M145.22 139.389L135.918 144.762V134.023L145.22 128.65V139.389Z" fill="#598638"></path><path d="M135.918 134.023L126.609 128.65L135.918 123.277L145.219 128.65L135.918 134.023Z" fill="#7BD834"></path><path d="M135.918 134.023L127.013 128.883L126.609 129.115L135.918 134.488L145.219 129.115L144.816 128.883L135.918 134.023Z" fill="white"></path><path d="M147.997 140.915L138.695 135.542V146.288L147.997 151.654L157.305 146.288V135.542L147.997 140.915Z" fill="#7BD834"></path><path d="M147.997 151.654L138.695 146.288V135.542L147.997 140.915V151.654Z" fill="#7BD834"></path><path d="M157.304 146.288L147.996 151.654V140.915L157.304 135.542V146.288Z" fill="#598638"></path><path d="M147.997 140.915L138.695 135.542L147.997 130.169L157.305 135.542L147.997 140.915Z" fill="#7BD834"></path><path d="M147.997 140.915L139.099 135.775L138.695 136.008L147.997 141.381L157.305 136.008V135.542L147.997 140.915Z" fill="white"></path><path d="M111.743 134.488L102.441 129.115V139.854L111.743 145.227L121.051 139.854V129.115L111.743 134.488Z" fill="#7BD834"></path><path d="M111.743 145.227L102.441 139.854V129.115L111.743 134.488V145.227Z" fill="#7BD834"></path><path d="M121.051 139.854L111.742 145.227V134.488L121.051 129.115V139.854Z" fill="#598638"></path><path d="M111.743 134.488L102.441 129.115L111.743 123.742L121.051 129.115L111.743 134.488Z" fill="#7BD834"></path><path d="M111.743 134.488L102.845 129.348L102.441 129.581L111.743 134.953L121.051 129.581L120.648 129.348L111.743 134.488Z" fill="white"></path><path d="M123.829 141.381L114.527 136.008V146.753L123.829 152.126L133.13 146.753V136.008L123.829 141.381Z" fill="#7BD834"></path><path d="M123.829 152.126L114.527 146.753V136.008L123.829 141.381V152.126Z" fill="#7BD834"></path><path d="M133.13 146.753L123.828 152.126V141.381L133.13 136.008V146.753Z" fill="#598638"></path><path d="M123.829 141.38L114.527 136.008L123.829 130.635L133.13 136.008L123.829 141.38Z" fill="#7BD834"></path><path d="M123.829 141.381L114.931 136.24L114.527 136.473L123.829 141.846L133.13 136.473L132.727 136.24L123.829 141.381Z" fill="white"></path><path d="M135.918 148.273L126.609 142.907V153.646L135.918 159.019L145.219 153.646V142.907L135.918 148.273Z" fill="#7BD834"></path><path d="M135.918 159.019L126.609 153.646V142.907L135.918 148.273V159.019Z" fill="#7BD834"></path><path d="M145.22 153.646L135.918 159.019V148.273L145.22 142.907V153.646Z" fill="#598638"></path><path d="M135.918 148.273L126.609 142.907L135.918 137.534L145.219 142.907L135.918 148.273Z" fill="#7BD834"></path><path d="M135.918 148.273L127.013 143.14L126.609 143.373L135.918 148.745L145.219 143.373V142.907L135.918 148.273Z" fill="white"></path><path d="M99.6619 141.846L90.3535 136.473V147.219L99.6619 152.592L108.963 147.219V136.473L99.6619 141.846Z" fill="#7BD834"></path><path d="M99.6619 152.592L90.3535 147.219V136.473L99.6619 141.846V152.592Z" fill="#7BD834"></path><path d="M108.964 147.219L99.6621 152.592V141.846L108.964 136.473V147.219Z" fill="#598638"></path><path d="M99.6619 141.846L90.3535 136.473L99.6619 131.107L108.963 136.473L99.6619 141.846Z" fill="#7BD834"></path><path d="M99.6619 141.846L90.3535 136.473V136.938L99.6619 142.311L108.963 136.938L108.56 136.706L99.6619 141.846Z" fill="white"></path><path d="M111.743 148.745L102.441 143.372V154.111L111.743 159.484L121.051 154.111V143.372L111.743 148.745Z" fill="#7BD834"></path><path d="M111.743 159.484L102.441 154.111V143.372L111.743 148.745V159.484Z" fill="#7BD834"></path><path d="M121.051 154.111L111.742 159.484V148.745L121.051 143.372V154.111Z" fill="#598638"></path><path d="M111.743 148.745L102.441 143.372L111.743 137.999L121.051 143.372L111.743 148.745Z" fill="#7BD834"></path><path d="M111.743 148.745L102.441 143.372V143.838L111.743 149.21L121.051 143.838L120.648 143.605L111.743 148.745Z" fill="white"></path><path d="M123.829 155.637L114.527 150.265V161.01L123.829 166.376L133.13 161.01V150.265L123.829 155.637Z" fill="#7BD834"></path><path d="M123.829 166.376L114.527 161.01V150.265L123.829 155.637V166.376Z" fill="#7BD834"></path><path d="M133.13 161.01L123.828 166.376V155.637L133.13 150.265V161.01Z" fill="#598638"></path><path d="M123.829 155.637L114.527 150.265L123.829 144.892L133.13 150.265L123.829 155.637Z" fill="#7BD834"></path><path d="M123.829 155.637L114.527 150.265V150.73L123.829 156.103L133.13 150.73V150.265L123.829 155.637Z" fill="white"></path><path d="M123.829 112.867L114.527 107.494V118.24L123.829 123.612L133.13 118.24V107.494L123.829 112.867Z" fill="#7BD834"></path><path d="M123.829 123.612L114.527 118.24V107.494L123.829 112.867V123.612Z" fill="#7BD834"></path><path d="M133.13 118.24L123.828 123.612V112.867L133.13 107.494V118.24Z" fill="#598638"></path><path d="M123.829 112.867L114.527 107.494L123.829 102.128L133.13 107.494L123.829 112.867Z" fill="#7BD834"></path><path d="M123.829 112.867L114.931 107.727L114.527 107.959L123.829 113.332L133.13 107.959L132.727 107.727L123.829 112.867Z" fill="white"></path><path opacity="0.7" d="M123.829 153.885L117.484 150.224L123.829 146.562L130.174 150.224L123.829 153.885Z" fill="#598638"></path><path opacity="0.7" d="M111.741 146.993L105.396 143.331L111.741 139.663L118.093 143.331L111.741 146.993Z" fill="#598638"></path><path opacity="0.7" d="M135.916 146.528L129.564 142.859L135.916 139.197L142.261 142.859L135.916 146.528Z" fill="#598638"></path><path opacity="0.7" d="M148.023 139.252L141.672 135.583L148.023 131.922L154.368 135.583L148.023 139.252Z" fill="#598638"></path><path opacity="0.7" d="M99.6612 140.094L93.3164 136.432L99.6612 132.77L106.006 136.432L99.6612 140.094Z" fill="#598638"></path><path d="M135.918 119.766L126.609 114.393V125.132L135.918 130.505L145.219 125.132V114.393L135.918 119.766Z" fill="#7BD834"></path><path d="M135.918 130.505L126.609 125.132V114.393L135.918 119.766V130.505Z" fill="#7BD834"></path><path d="M145.22 125.132L135.918 130.505V119.766L145.22 114.393V125.132Z" fill="#598638"></path><path d="M135.918 119.766L126.609 114.393L135.918 109.02L145.219 114.393L135.918 119.766Z" fill="#7BD834"></path><path d="M135.918 119.766L127.013 114.626L126.609 114.858L135.918 120.231L145.219 114.858L144.816 114.626L135.918 119.766Z" fill="white"></path><path d="M147.997 126.658L138.695 121.285V132.031L147.997 137.404L157.305 132.031V121.285L147.997 126.658Z" fill="#7BD834"></path><path d="M147.997 137.404L138.695 132.031V121.285L147.997 126.658V137.404Z" fill="#7BD834"></path><path d="M157.304 132.031L147.996 137.404V126.658L157.304 121.285V132.031Z" fill="#598638"></path><path d="M147.997 126.658L138.695 121.285L147.997 115.913L157.305 121.285L147.997 126.658Z" fill="#7BD834"></path><path d="M147.997 126.658L139.099 121.518L138.695 121.751L147.997 127.124L157.305 121.751V121.285L147.997 126.658Z" fill="white"></path><path d="M111.743 120.231L102.441 114.859V125.597L111.743 130.97L121.051 125.597V114.859L111.743 120.231Z" fill="#7BD834"></path><path d="M111.743 130.97L102.441 125.597V114.859L111.743 120.231V130.97Z" fill="#7BD834"></path><path d="M121.051 125.597L111.742 130.97V120.231L121.051 114.859V125.597Z" fill="#598638"></path><path d="M111.743 120.231L102.441 114.858L111.743 109.486L121.051 114.858L111.743 120.231Z" fill="#7BD834"></path><path d="M111.743 120.231L102.845 115.091L102.441 115.324L111.743 120.697L121.051 115.324L120.648 115.091L111.743 120.231Z" fill="white"></path><path d="M123.829 127.123L114.527 121.751V132.496L123.829 137.869L133.13 132.496V121.751L123.829 127.123Z" fill="#7BD834"></path><path d="M123.829 137.869L114.527 132.496V121.751L123.829 127.123V137.869Z" fill="#7BD834"></path><path d="M133.13 132.496L123.828 137.869V127.123L133.13 121.751V132.496Z" fill="#598638"></path><path d="M123.829 127.124L114.527 121.751L123.829 116.385L133.13 121.751L123.829 127.124Z" fill="#7BD834"></path><path d="M123.829 127.123L114.931 121.983L114.527 122.216L123.829 127.589L133.13 122.216L132.727 121.983L123.829 127.123Z" fill="white"></path><path d="M135.918 134.023L126.609 128.65V139.389L135.918 144.762L145.219 139.389V128.65L135.918 134.023Z" fill="#7BD834"></path><path d="M135.918 144.762L126.609 139.389V128.65L135.918 134.023V144.762Z" fill="#7BD834"></path><path d="M145.22 139.389L135.918 144.762V134.023L145.22 128.65V139.389Z" fill="#598638"></path><path d="M135.918 134.023L126.609 128.65L135.918 123.277L145.219 128.65L135.918 134.023Z" fill="#7BD834"></path><path d="M135.918 134.023L127.013 128.882L126.609 129.115L135.918 134.488L145.219 129.115V128.65L135.918 134.023Z" fill="white"></path><path d="M99.6619 127.589L90.3535 122.216V132.962L99.6619 138.335L108.963 132.962V122.216L99.6619 127.589Z" fill="#7BD834"></path><path d="M99.6619 138.335L90.3535 132.962V122.216L99.6619 127.589V138.335Z" fill="#7BD834"></path><path d="M108.964 132.962L99.6621 138.335V127.589L108.964 122.216V132.962Z" fill="#598638"></path><path d="M99.6619 127.589L90.3535 122.216L99.6619 116.85L108.963 122.216L99.6619 127.589Z" fill="#7BD834"></path><path d="M99.6619 127.589L90.7573 122.449L90.3535 122.682L99.6619 128.054L108.963 122.682L108.56 122.449L99.6619 127.589Z" fill="white"></path><path d="M111.743 134.488L102.441 129.115V139.854L111.743 145.227L121.051 139.854V129.115L111.743 134.488Z" fill="#7BD834"></path><path d="M111.743 145.227L102.441 139.854V129.115L111.743 134.488V145.227Z" fill="#7BD834"></path><path d="M121.051 139.854L111.742 145.227V134.488L121.051 129.115V139.854Z" fill="#598638"></path><path d="M111.743 134.488L102.441 129.115L111.743 123.742L121.051 129.115L111.743 134.488Z" fill="#7BD834"></path><path d="M111.743 134.488L102.441 129.115V129.581L111.743 134.954L121.051 129.581L120.648 129.348L111.743 134.488Z" fill="white"></path><path d="M123.829 141.381L114.527 136.008V146.753L123.829 152.126L133.13 146.753V136.008L123.829 141.381Z" fill="#7BD834"></path><path d="M123.829 152.126L114.527 146.753V136.008L123.829 141.381V152.126Z" fill="#7BD834"></path><path d="M133.13 146.753L123.828 152.126V141.381L133.13 136.008V146.753Z" fill="#598638"></path><path d="M123.829 141.38L114.527 136.008L123.829 130.635L133.13 136.008L123.829 141.38Z" fill="#7BD834"></path><path d="M123.829 141.381L114.527 136.008V136.473L123.829 141.846L133.13 136.473V136.008L123.829 141.381Z" fill="white"></path><path opacity="0.7" d="M148.023 125.057L141.672 121.395L148.023 117.726L154.368 121.395L148.023 125.057Z" fill="#598638"></path><path opacity="0.7" d="M99.6612 125.905L93.3164 122.237L99.6612 118.575L106.006 122.237L99.6612 125.905Z" fill="#598638"></path><path d="M123.829 98.6099L114.527 93.2371V103.983L123.829 109.356L133.13 103.983V93.2371L123.829 98.6099Z" fill="#7BD834"></path><path d="M123.829 109.356L114.527 103.983V93.2371L123.829 98.6099V109.356Z" fill="#7BD834"></path><path d="M133.13 103.983L123.828 109.356V98.6099L133.13 93.2371V103.983Z" fill="#598638"></path><path d="M123.829 98.6097L114.527 93.2369L123.829 87.8708L133.13 93.2369L123.829 98.6097Z" fill="#7BD834"></path><path d="M123.829 98.6099L114.527 93.2371V93.7093L123.829 99.0753L133.13 93.7093V93.2371L123.829 98.6099Z" fill="white"></path><path d="M135.918 105.509L126.609 100.136V110.875L135.918 116.248L145.219 110.875V100.136L135.918 105.509Z" fill="#7BD834"></path><path d="M135.918 116.248L126.609 110.875V100.136L135.918 105.509V116.248Z" fill="#7BD834"></path><path d="M145.22 110.875L135.918 116.248V105.509L145.22 100.136V110.875Z" fill="#598638"></path><path d="M135.918 105.509L126.609 100.136L135.918 94.7632L145.219 100.136L135.918 105.509Z" fill="#7BD834"></path><path d="M135.918 105.509L126.609 100.136V100.602L135.918 105.974L145.219 100.602V100.136L135.918 105.509Z" fill="white"></path><path d="M147.997 112.401L138.695 107.028V117.774L147.997 123.147L157.305 117.774V107.028L147.997 112.401Z" fill="#7BD834"></path><path d="M147.997 123.147L138.695 117.774V107.028L147.997 112.401V123.147Z" fill="#7BD834"></path><path d="M157.304 117.774L147.996 123.147V112.401L157.304 107.028V117.774Z" fill="#598638"></path><path d="M147.997 112.401L138.695 107.028L147.997 101.662L157.305 107.028L147.997 112.401Z" fill="#7BD834"></path><path d="M147.997 112.401L138.695 107.028V107.494L147.997 112.867L157.305 107.494V107.028L147.997 112.401Z" fill="white"></path><path d="M111.743 105.975L102.441 100.602V111.341L111.743 116.713L121.051 111.341V100.602L111.743 105.975Z" fill="#7BD834"></path><path d="M111.743 116.713L102.441 111.341V100.602L111.743 105.975V116.713Z" fill="#7BD834"></path><path d="M121.051 111.341L111.742 116.713V105.975L121.051 100.602V111.341Z" fill="#598638"></path><path d="M111.743 105.974L102.441 100.602L111.743 95.2286L121.051 100.602L111.743 105.974Z" fill="#7BD834"></path><path d="M111.743 105.975L102.441 100.602V101.067L111.743 106.44L121.051 101.067V100.602L111.743 105.975Z" fill="white"></path><path d="M99.6619 113.332L90.3535 107.959V118.705L99.6619 124.078L108.963 118.705V107.959L99.6619 113.332Z" fill="#7BD834"></path><path d="M99.6619 124.078L90.3535 118.705V107.959L99.6619 113.332V124.078Z" fill="#7BD834"></path><path d="M108.964 118.705L99.6621 124.078V113.332L108.964 107.959V118.705Z" fill="#598638"></path><path d="M99.6619 113.332L90.3535 107.959L99.6619 102.593L108.963 107.966L99.6619 113.332Z" fill="#7BD834"></path><path d="M99.6619 113.332L90.3535 107.959V108.432L99.6619 113.798L108.963 108.432V107.959L99.6619 113.332Z" fill="white"></path><path d="M46.7746 130.313C45.9464 130.313 45.1114 130.217 44.3037 130.026C44.2285 130.005 44.1805 129.93 44.1942 129.854C44.2148 129.779 44.2901 129.738 44.3653 129.745C45.1524 129.93 45.9601 130.026 46.7677 130.026C46.9457 130.039 47.1168 130.019 47.2879 130.012C47.3769 130.019 47.4316 130.067 47.4385 130.149C47.4453 130.231 47.3837 130.293 47.3016 130.299C47.1305 130.306 46.9525 130.313 46.7746 130.313ZM50.1899 129.635C50.1352 129.635 50.0873 129.608 50.0599 129.553C50.0257 129.485 50.053 129.396 50.1283 129.362C50.2447 129.307 50.3542 129.245 50.4637 129.184L53.0509 127.692C53.1193 127.651 53.2083 127.678 53.2425 127.746C53.2836 127.815 53.2562 127.904 53.1878 127.945L50.6006 129.437C50.4842 129.499 50.3679 129.567 50.2447 129.622C50.231 129.629 50.2105 129.635 50.1899 129.635ZM41.5865 128.903C41.5591 128.903 41.5318 128.896 41.5112 128.883C40.464 128.205 39.8138 127.356 39.6701 126.494C39.6564 126.419 39.7111 126.343 39.7864 126.33C39.8617 126.316 39.937 126.371 39.9507 126.446C40.0807 127.233 40.6899 128.013 41.6618 128.643C41.7302 128.684 41.7439 128.773 41.7029 128.842C41.6823 128.883 41.6344 128.903 41.5865 128.903ZM55.6997 126.467C55.6518 126.467 55.6039 126.439 55.5765 126.398C55.5354 126.33 55.5628 126.241 55.6312 126.2L58.2184 124.707C58.2869 124.666 58.3759 124.694 58.4101 124.762C58.4511 124.831 58.4238 124.92 58.3553 124.961L55.7681 126.453C55.7476 126.46 55.7271 126.467 55.6997 126.467ZM41.1758 124.167C41.1279 124.167 41.08 124.139 41.0526 124.098C41.0116 124.03 41.0321 123.941 41.1006 123.9C41.1348 123.879 41.169 123.859 41.2032 123.838L43.6877 122.401C43.7562 122.36 43.8452 122.387 43.8794 122.456C43.9205 122.524 43.8931 122.613 43.8246 122.654L41.3401 124.091C41.3059 124.112 41.2785 124.126 41.2443 124.146C41.2306 124.16 41.2032 124.167 41.1758 124.167ZM60.8741 123.482C60.8262 123.482 60.7782 123.455 60.7509 123.414C60.7098 123.345 60.7372 123.256 60.8056 123.215L63.3928 121.723C63.4613 121.682 63.5502 121.71 63.5844 121.778C63.6255 121.847 63.5981 121.936 63.5297 121.977L60.9425 123.469C60.922 123.476 60.8946 123.482 60.8741 123.482ZM46.3502 121.183C46.3023 121.183 46.2544 121.155 46.227 121.114C46.186 121.046 46.2133 120.957 46.2818 120.916L48.869 119.424C48.9374 119.383 49.0264 119.41 49.0606 119.478C49.1017 119.547 49.0743 119.636 49.0059 119.677L46.4187 121.169C46.3981 121.176 46.3708 121.183 46.3502 121.183ZM66.0416 120.498C65.9937 120.498 65.9458 120.471 65.9184 120.43C65.8773 120.361 65.9047 120.272 65.9732 120.231L68.5603 118.739C68.6288 118.698 68.7178 118.725 68.752 118.794C68.7931 118.862 68.7657 118.951 68.6972 118.992L66.11 120.484C66.0895 120.491 66.0621 120.498 66.0416 120.498ZM51.5178 118.198C51.4698 118.198 51.4219 118.171 51.3946 118.13C51.3535 118.062 51.3809 117.973 51.4493 117.932L54.0365 116.439C54.1049 116.398 54.1939 116.426 54.2281 116.494C54.2692 116.563 54.2418 116.652 54.1734 116.693L51.5862 118.185C51.5657 118.192 51.5383 118.198 51.5178 118.198ZM71.2091 117.514C71.1612 117.514 71.1133 117.487 71.0859 117.446C71.0449 117.377 71.0722 117.288 71.1407 117.247L73.7279 115.755C73.7963 115.714 73.8853 115.741 73.9195 115.81C73.9606 115.878 73.9332 115.967 73.8648 116.008L71.2776 117.5C71.257 117.507 71.2365 117.514 71.2091 117.514ZM56.6853 115.214C56.6374 115.214 56.5895 115.187 56.5621 115.146C56.521 115.077 56.5484 114.988 56.6168 114.947L59.204 113.455C59.2725 113.414 59.3614 113.442 59.3957 113.51C59.4367 113.578 59.4094 113.667 59.3409 113.709L56.7537 115.201C56.7332 115.207 56.7127 115.214 56.6853 115.214ZM76.3767 114.53C76.3287 114.53 76.2808 114.502 76.2535 114.461C76.2124 114.393 76.2398 114.304 76.3082 114.263L78.8954 112.771C78.9638 112.73 79.0528 112.757 79.087 112.826C79.1281 112.894 79.1007 112.983 79.0323 113.017L76.4451 114.509C76.4246 114.523 76.404 114.53 76.3767 114.53ZM61.8528 112.23C61.8049 112.23 61.757 112.203 61.7296 112.162C61.6885 112.093 61.7159 112.004 61.7844 111.97L64.3716 110.478C64.44 110.437 64.529 110.464 64.5632 110.533C64.6043 110.601 64.5769 110.69 64.5084 110.724L61.9213 112.216C61.9076 112.223 61.8802 112.23 61.8528 112.23ZM81.5442 111.539C81.4963 111.539 81.4552 111.518 81.4278 111.477C81.3868 111.409 81.4005 111.327 81.4689 111.279C82.2355 110.765 82.6393 110.115 82.6393 109.397C82.6393 109.232 82.6188 109.068 82.5777 108.904C82.5572 108.828 82.6051 108.753 82.6804 108.733C82.7556 108.712 82.8309 108.76 82.8515 108.835C82.8994 109.02 82.9268 109.212 82.9268 109.397C82.9268 110.211 82.4819 110.943 81.6332 111.518C81.5989 111.525 81.5716 111.539 81.5442 111.539ZM67.0272 109.246C66.9793 109.246 66.9314 109.219 66.904 109.178C66.8629 109.109 66.8903 109.02 66.9587 108.986L69.5459 107.494C69.6144 107.453 69.7034 107.48 69.7376 107.549C69.7786 107.617 69.7513 107.706 69.6828 107.74L67.0956 109.232C67.0751 109.239 67.0477 109.246 67.0272 109.246ZM80.805 106.803C80.7776 106.803 80.7571 106.796 80.7297 106.782C80.6818 106.755 80.6339 106.727 80.586 106.7C79.8468 106.269 78.9502 105.94 77.9988 105.735C77.9235 105.721 77.8756 105.646 77.8893 105.564C77.903 105.488 77.9783 105.434 78.0604 105.454C79.0391 105.666 79.9631 106.009 80.7297 106.453C80.7776 106.481 80.8255 106.508 80.8803 106.542C80.9487 106.583 80.9693 106.672 80.9282 106.741C80.9008 106.775 80.8529 106.803 80.805 106.803ZM72.1947 106.262C72.1468 106.262 72.0921 106.234 72.0715 106.187C72.0373 106.118 72.0647 106.029 72.1331 105.995C72.9271 105.577 73.94 105.31 75.0557 105.235C75.131 105.228 75.1994 105.29 75.2063 105.365C75.2131 105.44 75.1515 105.509 75.0762 105.516C73.9948 105.591 73.0229 105.844 72.2632 106.241C72.2426 106.255 72.2153 106.262 72.1947 106.262Z" fill="url(#paint8_linear_276_6597)"></path><path d="M82.7702 66.2699V103.278C82.7565 104.078 82.2706 104.845 81.2781 105.42L50.533 123.174C48.3223 124.454 44.4552 124.29 41.8954 122.818C40.4649 121.99 39.7462 120.923 39.7805 119.923V82.9087L82.7702 66.2699Z" fill="#F2B42A"></path><path d="M50.5321 86.1597L81.2772 68.4053C83.488 67.1254 83.2142 64.8941 80.6544 63.4226C78.1014 61.9442 74.2343 61.7867 72.0167 63.0666L41.2785 80.8211C39.0677 82.101 39.3415 84.3322 41.9013 85.8038C44.4543 87.2822 48.3214 87.4396 50.5321 86.1597Z" fill="#DD821F"></path><path d="M47.4652 83.7848C48.9299 83.7848 50.1208 82.5939 50.1208 81.1292V64.682C50.1208 59.0765 54.2206 51.9651 59.0802 49.1658L66.1368 45.0933C67.9984 44.0188 69.6822 43.7518 70.7567 44.3747C71.8245 44.9907 72.4405 46.5786 72.4405 48.7346V65.1748C72.4405 66.6395 73.6314 67.8305 75.0961 67.8305C76.5608 67.8305 77.7517 66.6395 77.7517 65.1748V48.7277C77.7517 44.5663 76.2117 41.3837 73.4124 39.7684C70.613 38.1531 67.0881 38.4063 63.4811 40.487L56.4245 44.5595C49.9087 48.3239 44.8027 57.16 44.8027 64.682V81.1223C44.8027 82.5939 45.9937 83.7848 47.4652 83.7848Z" fill="#F2B42A"></path><defs><linearGradient id="paint0_linear_276_6597" x1="215.994" y1="98.7133" x2="98.5732" y2="98.7133" gradientUnits="userSpaceOnUse"><stop stop-color="#C0D6FF"></stop><stop offset="0.2978" stop-color="#C5DBFF"></stop><stop offset="0.6488" stop-color="#D3E9FF"></stop><stop offset="1" stop-color="#E9FFFF"></stop></linearGradient><linearGradient id="paint1_linear_276_6597" x1="215.994" y1="128.879" x2="195.832" y2="128.879" gradientUnits="userSpaceOnUse"><stop stop-color="#5778FF"></stop><stop offset="0.1779" stop-color="#5C7DFF"></stop><stop offset="0.3876" stop-color="#6A8AFF"></stop><stop offset="0.6134" stop-color="#82A0FF"></stop><stop offset="0.849" stop-color="#A3BEFF"></stop><stop offset="1" stop-color="#BCD5FF"></stop></linearGradient><linearGradient id="paint2_linear_276_6597" x1="200.263" y1="162.789" x2="34.427" y2="162.789" gradientUnits="userSpaceOnUse"><stop stop-color="#5778FF"></stop><stop offset="0.1779" stop-color="#5C7DFF"></stop><stop offset="0.3876" stop-color="#6A8AFF"></stop><stop offset="0.6134" stop-color="#82A0FF"></stop><stop offset="0.849" stop-color="#A3BEFF"></stop><stop offset="1" stop-color="#BCD5FF"></stop></linearGradient><linearGradient id="paint3_linear_276_6597" x1="144.541" y1="157.25" x2="-21.3838" y2="157.25" gradientUnits="userSpaceOnUse"><stop stop-color="#C0D6FF"></stop><stop offset="0.2978" stop-color="#C5DBFF"></stop><stop offset="0.6488" stop-color="#D3E9FF"></stop><stop offset="1" stop-color="#E9FFFF"></stop></linearGradient><linearGradient id="paint4_linear_276_6597" x1="116.442" y1="166.686" x2="73.9703" y2="166.686" gradientUnits="userSpaceOnUse"><stop stop-color="#C0D6FF"></stop><stop offset="0.2978" stop-color="#C5DBFF"></stop><stop offset="0.6488" stop-color="#D3E9FF"></stop><stop offset="1" stop-color="#E9FFFF"></stop></linearGradient><linearGradient id="paint5_linear_276_6597" x1="207.934" y1="120.409" x2="42.009" y2="120.409" gradientUnits="userSpaceOnUse"><stop stop-color="#C0D6FF"></stop><stop offset="0.2978" stop-color="#C5DBFF"></stop><stop offset="0.6488" stop-color="#D3E9FF"></stop><stop offset="1" stop-color="#E9FFFF"></stop></linearGradient><linearGradient id="paint6_linear_276_6597" x1="218.855" y1="108.207" x2="176.383" y2="108.207" gradientUnits="userSpaceOnUse"><stop stop-color="#C0D6FF"></stop><stop offset="0.2978" stop-color="#C5DBFF"></stop><stop offset="0.6488" stop-color="#D3E9FF"></stop><stop offset="1" stop-color="#E9FFFF"></stop></linearGradient><linearGradient id="paint7_linear_276_6597" x1="85.0415" y1="119.615" x2="85.0415" y2="141.524" gradientUnits="userSpaceOnUse"><stop stop-color="#C0D7FF"></stop><stop offset="1" stop-color="#32589D"></stop></linearGradient><linearGradient id="paint8_linear_276_6597" x1="61.2974" y1="105.235" x2="61.2974" y2="130.313" gradientUnits="userSpaceOnUse"><stop stop-color="#C0D7FF"></stop><stop offset="1" stop-color="#32589D"></stop></linearGradient></defs></svg> 