<?xml version="1.0" encoding="UTF-8"?> <svg xmlns="http://www.w3.org/2000/svg" width="250" height="225" viewBox="0 0 250 225" fill="none"><path opacity="0.5" d="M109.643 209.356L34.1069 165.736C32.4632 164.797 32.68 163.135 34.5584 162.051L56.7568 149.245L138.235 196.279L116.037 209.085C114.14 210.187 111.286 210.313 109.643 209.356Z" fill="#32589D"></path><path d="M217.021 150.004V134.958L192.51 134.977L138.125 103.567C136.789 102.79 134.459 102.898 132.923 103.783L78.773 135.049L54.3711 135.067V150.149H54.3892C54.4072 150.618 54.6962 151.07 55.2742 151.395L133.303 196.442C134.639 197.219 136.969 197.11 138.504 196.225L215.774 151.612C216.551 151.16 216.984 150.564 217.021 150.004Z" fill="url(#paint0_linear_276_6808)"></path><path d="M133.285 181.396L55.2571 136.349C53.9205 135.573 54.0831 134.236 55.6364 133.351L132.906 88.7375C134.441 87.8524 136.771 87.7441 138.108 88.5207L216.136 133.568C217.473 134.344 217.31 135.681 215.757 136.566L138.487 181.179C136.952 182.064 134.622 182.173 133.285 181.396Z" fill="url(#paint1_linear_276_6808)"></path><path d="M133.557 176.122L64.3974 136.187C63.2233 135.5 63.3678 134.308 64.7225 133.514L133.214 93.9756C134.587 93.1808 136.646 93.1086 137.838 93.7769L206.998 133.712C208.172 134.399 208.027 135.591 206.673 136.385L138.181 175.923C136.808 176.718 134.731 176.808 133.557 176.122Z" fill="#32589D"></path><path d="M134.019 172.221L70.4767 135.536C69.393 134.904 69.5194 133.821 70.7837 133.08L133.712 96.7572C134.958 96.0347 136.873 95.9624 137.957 96.5765L201.499 133.261C202.583 133.893 202.457 134.977 201.192 135.717L138.264 172.04C136.999 172.763 135.103 172.853 134.019 172.221Z" fill="#102140"></path><path opacity="0.6" d="M150.388 120.938L147.816 119.506L147.529 119.396C147.371 119.335 147.145 119.25 147.026 119.207C146.907 119.163 146.674 119.082 146.508 119.025C146.341 118.968 145.966 118.846 145.674 118.755C145.382 118.664 145 118.547 144.827 118.497C144.653 118.446 144.374 118.367 144.208 118.322C144.041 118.276 143.777 118.207 143.622 118.167C143.466 118.127 143.195 118.061 143.019 118.02C142.844 117.978 142.603 117.923 142.485 117.897C142.366 117.871 142.119 117.819 141.936 117.781C141.752 117.744 141.449 117.685 141.262 117.65C141.075 117.615 140.765 117.561 140.575 117.528C140.384 117.497 140.014 117.44 139.753 117.402C139.491 117.364 139.139 117.317 138.969 117.296C138.8 117.275 138.507 117.242 138.319 117.222C138.13 117.202 137.83 117.172 137.652 117.156C137.473 117.14 137.177 117.116 136.992 117.102C136.808 117.089 136.574 117.073 136.473 117.067C136.372 117.061 136.118 117.048 135.908 117.038C135.698 117.028 135.335 117.015 135.1 117.009C134.866 117.002 134.556 116.996 134.411 116.995C134.266 116.993 134.007 116.993 133.835 116.994C133.662 116.994 133.404 116.997 133.261 117C133.117 117.002 132.867 117.009 132.704 117.014C132.542 117.019 132.228 117.031 132.006 117.042C131.784 117.052 131.335 117.08 131.008 117.104C130.68 117.127 130.251 117.162 130.055 117.181C129.858 117.2 129.557 117.232 129.385 117.251C129.213 117.27 128.924 117.305 128.743 117.328C128.562 117.352 128.285 117.389 128.127 117.412C127.969 117.435 127.68 117.479 127.485 117.51C127.289 117.541 126.983 117.593 126.804 117.624C126.625 117.656 126.274 117.722 126.024 117.772C125.774 117.822 125.419 117.895 125.235 117.936C125.051 117.976 124.783 118.037 124.638 118.071C124.494 118.105 124.267 118.16 124.135 118.193C124.003 118.226 123.767 118.287 123.611 118.329C123.454 118.37 123.113 118.466 122.852 118.541C122.591 118.616 122.239 118.721 122.07 118.774C121.902 118.826 121.642 118.91 121.494 118.959C121.345 119.008 121.075 119.1 120.894 119.164C120.714 119.227 120.427 119.33 120.258 119.393C120.089 119.456 119.78 119.575 119.571 119.659C119.362 119.742 119.036 119.876 118.847 119.956C118.659 120.036 118.374 120.161 118.214 120.233C118.055 120.304 117.788 120.427 117.622 120.506C117.457 120.585 117.192 120.715 117.034 120.794C116.875 120.874 116.646 120.991 116.524 121.055C116.402 121.119 116.192 121.233 116.057 121.307C115.921 121.381 115.682 121.516 115.524 121.607C115.367 121.698 115.103 121.854 114.938 121.955C114.772 122.055 114.523 122.211 114.383 122.3C114.243 122.39 114.042 122.521 113.937 122.591C113.809 122.676 113.406 122.975 112.694 123.512L111.642 124.307L111.418 124.506C111.294 124.616 111.116 124.776 111.022 124.863C110.928 124.949 110.76 125.107 110.65 125.213C110.54 125.319 110.364 125.493 110.26 125.598C110.155 125.704 109.983 125.884 109.877 125.998C109.771 126.112 109.609 126.291 109.518 126.395C109.427 126.499 109.274 126.677 109.179 126.792C109.084 126.907 108.926 127.104 108.827 127.231C108.729 127.358 108.58 127.555 108.497 127.669C108.414 127.783 108.253 128.015 108.14 128.184C108.027 128.353 107.856 128.622 107.759 128.782C107.663 128.941 107.518 129.193 107.438 129.341C107.357 129.489 107.248 129.696 107.195 129.802C107.142 129.908 107.049 130.104 106.987 130.237C106.926 130.37 106.838 130.572 106.791 130.685C106.745 130.798 106.676 130.973 106.639 131.073C106.601 131.173 106.545 131.326 106.515 131.412C106.485 131.499 106.432 131.662 106.397 131.774C106.362 131.886 106.308 132.066 106.278 132.174C106.249 132.282 106.199 132.479 106.168 132.612C106.137 132.744 106.099 132.912 106.084 132.986C106.069 133.06 106.045 133.186 106.03 133.267C106.015 133.348 105.988 133.525 105.968 133.66C105.949 133.795 105.923 134 105.912 134.114C105.9 134.229 105.883 134.432 105.875 134.566C105.866 134.701 105.857 134.911 105.855 135.034C105.852 135.157 105.851 135.349 105.853 135.461C105.855 135.572 105.867 135.827 105.88 136.027C105.894 136.228 105.916 136.488 105.931 136.606C105.945 136.724 105.972 136.917 105.991 137.035C106.01 137.153 106.045 137.349 106.069 137.471C106.093 137.593 106.138 137.798 106.169 137.927C106.2 138.055 106.262 138.286 106.307 138.439C106.351 138.593 106.422 138.82 106.465 138.943C106.507 139.067 106.579 139.265 106.625 139.383C106.67 139.5 106.739 139.671 106.777 139.763C106.816 139.854 106.902 140.045 106.968 140.186C107.034 140.327 107.142 140.546 107.208 140.672C107.274 140.798 107.386 141.003 107.457 141.129C107.528 141.254 107.659 141.471 107.748 141.611C107.837 141.751 107.964 141.945 108.031 142.042C108.098 142.14 108.21 142.297 108.279 142.392C108.348 142.487 108.476 142.656 108.562 142.767C108.649 142.878 108.785 143.048 108.865 143.144C108.945 143.239 109.064 143.379 109.129 143.455C109.195 143.53 109.343 143.693 109.459 143.816C109.574 143.94 109.748 144.121 109.846 144.219C109.943 144.317 110.137 144.503 110.275 144.633C110.414 144.763 110.62 144.949 110.732 145.047C110.845 145.146 111.002 145.279 111.081 145.345C111.16 145.41 111.296 145.521 111.384 145.591C111.473 145.662 111.631 145.785 111.737 145.865C111.843 145.945 111.978 146.047 112.039 146.091C112.099 146.136 112.207 146.214 112.279 146.265C112.351 146.315 112.496 146.417 112.602 146.489C112.708 146.562 112.891 146.685 113.01 146.764C113.2 146.89 113.369 146.987 114.461 147.593L115.697 148.28L116.012 148.425C116.185 148.505 116.453 148.626 116.606 148.694C116.76 148.762 117.014 148.871 117.171 148.936C117.327 149.001 117.561 149.097 117.69 149.148C117.82 149.198 118.053 149.288 118.209 149.346C118.365 149.404 118.622 149.498 118.782 149.553C118.941 149.609 119.223 149.703 119.407 149.764C119.591 149.824 119.9 149.92 120.093 149.978C120.286 150.035 120.599 150.125 120.789 150.177C120.979 150.23 121.277 150.308 121.452 150.353C121.627 150.397 121.881 150.459 122.018 150.491C122.155 150.523 122.397 150.578 122.555 150.612C122.714 150.646 122.949 150.695 123.077 150.721C123.206 150.747 123.436 150.791 123.588 150.819C123.74 150.848 123.986 150.892 124.134 150.917C124.282 150.942 124.547 150.985 124.724 151.012C124.9 151.04 125.214 151.084 125.421 151.112C125.629 151.139 125.957 151.18 126.15 151.202C126.344 151.224 126.691 151.259 126.922 151.281C127.152 151.302 127.492 151.331 127.677 151.344C127.862 151.357 128.095 151.373 128.196 151.379C128.297 151.386 128.539 151.398 128.735 151.407C128.93 151.416 129.312 151.429 129.583 151.436C129.854 151.443 130.254 151.449 130.471 151.449C130.688 151.45 130.978 151.449 131.116 151.447C131.253 151.445 131.432 151.442 131.512 151.44C131.593 151.438 131.831 151.43 132.042 151.423C132.253 151.416 132.656 151.397 132.937 151.381C133.219 151.366 133.626 151.338 133.843 151.32C134.059 151.302 134.362 151.276 134.516 151.261C134.669 151.246 134.931 151.219 135.096 151.201C135.261 151.183 135.512 151.154 135.654 151.136C135.796 151.119 136.079 151.081 136.284 151.053C136.489 151.024 136.841 150.972 137.065 150.936C137.289 150.9 137.632 150.843 137.826 150.808C138.02 150.774 138.395 150.702 138.659 150.649C138.923 150.596 139.24 150.531 139.364 150.503C139.488 150.476 139.726 150.422 139.893 150.383C140.06 150.344 140.345 150.275 140.526 150.23C140.707 150.184 140.969 150.117 141.108 150.08C141.247 150.043 141.592 149.946 141.874 149.864C142.157 149.783 142.495 149.682 142.626 149.641C142.757 149.6 142.999 149.522 143.165 149.468C143.33 149.414 143.576 149.331 143.71 149.285C143.844 149.238 144.078 149.155 144.229 149.101C144.38 149.046 144.647 148.946 144.822 148.88C144.997 148.813 145.279 148.702 145.45 148.632C145.62 148.563 145.89 148.451 146.05 148.383C146.209 148.315 146.465 148.203 146.617 148.135C146.769 148.066 147.042 147.941 147.223 147.856C147.403 147.771 147.663 147.647 147.8 147.579C147.937 147.512 148.174 147.392 148.325 147.314C148.477 147.235 148.739 147.096 148.907 147.004C149.075 146.913 149.326 146.772 149.464 146.692C149.602 146.612 149.8 146.495 149.905 146.432C150.01 146.369 150.17 146.272 150.261 146.215C150.351 146.159 150.525 146.048 150.646 145.97C150.834 145.848 151.036 145.699 152.018 144.958C153.017 144.204 153.19 144.071 153.315 143.955C153.395 143.882 153.518 143.77 153.588 143.705C153.658 143.641 153.774 143.531 153.847 143.461C153.92 143.391 154.043 143.27 154.121 143.192C154.199 143.114 154.317 142.994 154.384 142.924C154.45 142.855 154.586 142.708 154.684 142.599C154.783 142.49 154.923 142.331 154.994 142.246C155.066 142.161 155.196 142.003 155.283 141.895C155.37 141.786 155.508 141.607 155.591 141.496C155.673 141.385 155.812 141.188 155.9 141.059C155.987 140.929 156.108 140.746 156.167 140.651C156.227 140.556 156.289 140.449 156.306 140.413C156.322 140.378 156.34 140.309 156.345 140.26C156.35 140.21 156.345 140.137 156.333 140.096C156.321 140.055 156.297 139.998 156.279 139.968C156.262 139.939 156.228 139.894 156.204 139.869C156.18 139.844 156.129 139.8 156.089 139.771C156.041 139.736 155.986 139.706 155.921 139.679C155.868 139.657 155.784 139.63 155.733 139.619C155.683 139.607 155.599 139.593 155.547 139.588C155.495 139.584 155.387 139.585 155.309 139.591C155.23 139.597 154.286 139.664 153.21 139.739C151.804 139.838 151.223 139.883 151.145 139.9C151.085 139.912 150.997 139.939 150.95 139.96C150.903 139.98 150.819 140.024 150.764 140.058C150.709 140.091 150.609 140.159 150.543 140.209L150.423 140.299L150.379 140.389C150.356 140.438 150.301 140.535 150.259 140.605C150.217 140.675 150.135 140.796 150.078 140.874C150.02 140.953 149.937 141.061 149.892 141.115C149.848 141.168 149.763 141.267 149.704 141.334C149.645 141.401 149.542 141.512 149.475 141.582C149.408 141.652 149.294 141.766 149.221 141.836C149.149 141.906 149.012 142.034 148.917 142.121C148.823 142.207 148.664 142.346 148.566 142.43C148.456 142.525 148.203 142.721 147.91 142.94C147.647 143.137 147.336 143.362 147.216 143.442C147.097 143.522 146.91 143.645 146.8 143.716C146.69 143.787 146.503 143.905 146.385 143.978C146.266 144.051 146.074 144.166 145.959 144.233C145.843 144.301 145.638 144.417 145.503 144.491C145.368 144.566 145.16 144.678 145.041 144.74C144.923 144.802 144.732 144.9 144.617 144.958C144.503 145.015 144.284 145.121 144.131 145.193C143.978 145.265 143.769 145.361 143.666 145.407C143.563 145.453 143.354 145.544 143.201 145.609C143.048 145.674 142.798 145.776 142.645 145.837C142.492 145.898 142.256 145.989 142.122 146.039C141.988 146.089 141.766 146.17 141.629 146.218C141.492 146.267 141.251 146.349 141.094 146.4C140.937 146.452 140.69 146.531 140.546 146.575C140.402 146.62 140.096 146.709 139.867 146.774C139.637 146.839 139.323 146.924 139.169 146.963C139.016 147.002 138.753 147.066 138.587 147.105C138.42 147.145 138.159 147.204 138.007 147.237C137.855 147.27 137.586 147.324 137.41 147.359C137.235 147.393 136.931 147.449 136.736 147.483C136.54 147.516 136.224 147.568 136.032 147.596C135.84 147.625 135.525 147.669 135.332 147.694C135.139 147.718 134.845 147.753 134.678 147.771C134.512 147.788 134.171 147.821 133.922 147.843C133.672 147.864 133.282 147.892 133.053 147.905C132.825 147.917 132.536 147.931 132.41 147.936C132.284 147.941 132.08 147.947 131.957 147.95C131.834 147.953 131.604 147.957 131.446 147.958C131.288 147.96 131.042 147.96 130.899 147.959C130.755 147.957 130.523 147.953 130.382 147.95C130.241 147.947 130.025 147.94 129.901 147.935C129.778 147.931 129.53 147.919 129.351 147.909C129.173 147.899 128.911 147.882 128.77 147.871C128.628 147.861 128.361 147.838 128.177 147.821C127.992 147.804 127.686 147.772 127.497 147.75C127.309 147.728 126.951 147.681 126.703 147.645C126.454 147.61 126.123 147.559 125.967 147.532C125.81 147.506 125.57 147.463 125.433 147.437C125.297 147.411 125.082 147.369 124.955 147.343C124.829 147.317 124.621 147.272 124.493 147.244C124.365 147.215 124.1 147.152 123.905 147.104C123.71 147.056 123.429 146.983 123.281 146.943C123.132 146.903 122.922 146.843 122.814 146.812C122.706 146.78 122.509 146.72 122.377 146.679C122.245 146.638 122.032 146.569 121.903 146.526C121.774 146.483 121.533 146.399 121.368 146.339C121.203 146.28 120.964 146.191 120.837 146.142C120.71 146.093 120.484 146.002 120.334 145.939C120.184 145.877 119.952 145.778 119.819 145.718C119.686 145.659 119.472 145.561 119.345 145.501C119.218 145.441 118.979 145.323 118.815 145.24C118.627 145.146 118.316 144.976 117.979 144.784C117.685 144.616 117.37 144.432 117.28 144.375C117.191 144.317 117.029 144.212 116.921 144.141C116.814 144.071 116.627 143.943 116.506 143.858C116.386 143.774 116.208 143.646 116.111 143.574C116.015 143.503 115.836 143.366 115.715 143.27C115.594 143.174 115.413 143.027 115.312 142.942C115.212 142.858 115.06 142.727 114.975 142.651C114.89 142.575 114.741 142.438 114.644 142.346C114.548 142.254 114.417 142.126 114.354 142.061C114.29 141.997 114.17 141.871 114.087 141.781C114.003 141.692 113.865 141.538 113.78 141.438C113.695 141.339 113.585 141.208 113.536 141.147C113.487 141.087 113.382 140.952 113.303 140.848C113.224 140.743 113.117 140.597 113.065 140.522C113.012 140.447 112.913 140.299 112.844 140.192C112.775 140.086 112.659 139.897 112.586 139.772C112.513 139.648 112.402 139.447 112.339 139.325C112.276 139.204 112.194 139.039 112.157 138.959C112.12 138.879 112.064 138.754 112.032 138.68C112 138.607 111.935 138.446 111.888 138.322C111.84 138.198 111.777 138.023 111.747 137.932C111.717 137.842 111.668 137.684 111.638 137.582C111.608 137.48 111.559 137.294 111.528 137.169C111.498 137.044 111.454 136.84 111.431 136.716C111.408 136.591 111.375 136.39 111.357 136.269C111.34 136.147 111.314 135.872 111.299 135.657C111.284 135.442 111.274 135.145 111.276 134.998C111.278 134.85 111.286 134.627 111.294 134.502C111.302 134.378 111.317 134.196 111.327 134.098C111.338 134.001 111.361 133.824 111.379 133.706C111.396 133.588 111.425 133.42 111.442 133.333C111.458 133.246 111.491 133.095 111.513 132.997C111.536 132.899 111.578 132.73 111.608 132.622C111.637 132.514 111.686 132.346 111.717 132.249C111.747 132.152 111.803 131.988 111.84 131.884C111.877 131.78 111.965 131.557 112.035 131.39C112.105 131.222 112.206 130.995 112.259 130.886C112.312 130.776 112.39 130.621 112.432 130.541C112.473 130.462 112.551 130.319 112.604 130.225C112.658 130.132 112.744 129.984 112.796 129.898C112.848 129.812 112.97 129.622 113.067 129.476C113.164 129.331 113.313 129.119 113.396 129.005C113.48 128.892 113.618 128.712 113.703 128.605C113.787 128.499 113.917 128.341 113.992 128.254C114.066 128.168 114.208 128.007 114.307 127.898C114.405 127.789 114.565 127.619 114.661 127.519C114.758 127.419 114.907 127.269 114.992 127.185C115.078 127.101 115.237 126.95 115.345 126.85C115.453 126.75 115.621 126.598 115.718 126.513C115.815 126.428 115.961 126.302 116.042 126.233C116.123 126.164 116.414 125.936 116.689 125.725C117.004 125.483 117.287 125.275 117.454 125.159C117.601 125.059 117.846 124.895 118 124.795C118.153 124.695 118.372 124.557 118.485 124.488C118.598 124.419 118.785 124.308 118.9 124.24C119.016 124.173 119.223 124.056 119.36 123.98C119.496 123.904 119.721 123.784 119.858 123.713C119.995 123.642 120.207 123.534 120.329 123.473C120.451 123.413 120.642 123.321 120.753 123.268C120.864 123.216 121.031 123.139 121.122 123.098C121.214 123.056 121.426 122.964 121.592 122.893C121.759 122.821 122.048 122.702 122.235 122.628C122.421 122.553 122.675 122.455 122.798 122.41C122.921 122.364 123.121 122.292 123.243 122.249C123.364 122.206 123.571 122.135 123.703 122.09C123.835 122.046 124.067 121.971 124.219 121.923C124.37 121.876 124.692 121.78 124.933 121.711C125.174 121.642 125.522 121.547 125.706 121.5C125.89 121.452 126.211 121.374 126.418 121.326C126.626 121.277 126.947 121.206 127.131 121.168C127.315 121.13 127.601 121.073 127.767 121.042C127.932 121.011 128.259 120.955 128.492 120.917C128.725 120.879 129.049 120.829 129.213 120.806C129.377 120.783 129.647 120.748 129.812 120.728C129.977 120.708 130.252 120.677 130.421 120.66C130.591 120.643 130.919 120.613 131.15 120.593C131.381 120.574 131.782 120.548 132.041 120.535C132.3 120.522 132.646 120.507 132.809 120.503C132.973 120.498 133.256 120.492 133.439 120.49C133.622 120.489 133.872 120.488 133.996 120.488C134.119 120.489 134.385 120.494 134.586 120.499C134.787 120.504 135.105 120.515 135.293 120.524C135.481 120.533 135.789 120.551 135.976 120.564C136.164 120.576 136.517 120.606 136.762 120.629C137.006 120.652 137.349 120.688 137.523 120.709C137.697 120.73 138.008 120.771 138.212 120.8C138.417 120.83 138.692 120.872 138.824 120.893C138.956 120.915 139.197 120.958 139.359 120.987C139.522 121.017 139.785 121.068 139.943 121.101C140.102 121.134 140.375 121.193 140.55 121.233C140.725 121.274 141.007 121.342 141.178 121.385C141.348 121.429 141.645 121.509 141.837 121.564C142.03 121.618 142.322 121.705 142.487 121.756C142.651 121.807 142.917 121.894 143.078 121.949C143.238 122.003 143.481 122.089 143.617 122.139C143.752 122.189 143.969 122.271 144.099 122.322C144.228 122.373 144.44 122.459 144.57 122.513C144.7 122.568 144.915 122.661 145.049 122.72C145.182 122.78 145.398 122.879 145.528 122.941C145.658 123.003 145.919 123.132 146.107 123.229C146.309 123.332 146.598 123.49 146.812 123.613C147.011 123.728 147.252 123.872 147.348 123.932C147.444 123.993 147.632 124.116 147.768 124.205C147.903 124.294 148.134 124.452 148.281 124.556C148.429 124.659 148.646 124.815 148.764 124.901C148.882 124.988 149.107 125.157 149.264 125.276C149.421 125.396 149.65 125.573 149.773 125.669C149.9 125.769 150.033 125.864 150.081 125.891C150.128 125.916 150.218 125.961 150.282 125.989C150.345 126.018 150.449 126.058 150.512 126.078C150.575 126.099 150.678 126.123 150.742 126.133L150.857 126.15L152.834 126.014C154.338 125.91 154.836 125.872 154.915 125.854C154.971 125.841 155.064 125.811 155.122 125.787C155.179 125.763 155.27 125.717 155.325 125.683C155.39 125.644 155.452 125.598 155.506 125.548C155.551 125.507 155.606 125.45 155.627 125.423C155.649 125.395 155.685 125.342 155.707 125.305C155.721 125.264 155.75 125.202 155.762 125.162C155.774 125.122 155.786 125.058 155.787 125.019C155.787 124.978 155.779 124.923 155.766 124.894C155.752 124.859 155.691 124.788 155.577 124.672C155.483 124.577 155.334 124.427 155.241 124.336C155.148 124.246 155.005 124.108 154.923 124.03C154.84 123.952 154.69 123.813 154.588 123.721C154.487 123.629 154.3 123.464 154.172 123.354C154.044 123.244 153.837 123.07 153.714 122.969C153.589 122.867 153.367 122.69 153.222 122.575L152.954 122.365L150.388 120.938ZM164.423 128.73L163.875 128.426L158.092 128.943L152.308 129.46L151.78 130.31C151.49 130.777 151.224 131.206 151.188 131.263L151.123 131.366L148.224 131.504L145.324 131.641L145.292 131.569C145.275 131.53 145.216 131.41 145.163 131.302C145.109 131.195 144.995 130.993 144.91 130.854C144.825 130.716 144.718 130.548 144.672 130.482C144.625 130.415 144.533 130.29 144.467 130.204C144.401 130.117 144.294 129.983 144.23 129.907C144.166 129.83 144.058 129.707 143.991 129.634C143.923 129.56 143.817 129.448 143.755 129.386C143.694 129.323 143.583 129.215 143.51 129.145C143.436 129.076 143.324 128.972 143.259 128.915C143.195 128.858 143.063 128.747 142.966 128.668C142.869 128.589 142.733 128.482 142.663 128.429C142.594 128.376 142.458 128.277 142.362 128.209C142.266 128.141 142.096 128.026 141.985 127.953C141.875 127.881 141.638 127.737 141.459 127.634C141.267 127.522 141.019 127.387 140.852 127.303C140.697 127.225 140.48 127.12 140.37 127.07C140.261 127.02 140.063 126.933 139.93 126.877C139.797 126.821 139.604 126.743 139.5 126.704C139.397 126.664 139.212 126.597 139.088 126.553C138.965 126.51 138.756 126.44 138.624 126.399C138.493 126.357 138.287 126.295 138.167 126.261C138.047 126.227 137.818 126.166 137.658 126.126C137.498 126.086 137.262 126.03 137.134 126.002C137.005 125.974 136.78 125.929 136.633 125.901C136.487 125.874 136.191 125.825 135.976 125.793C135.761 125.761 135.467 125.721 135.323 125.705C135.178 125.689 134.953 125.666 134.821 125.655C134.69 125.644 134.447 125.626 134.28 125.617C134.114 125.607 133.85 125.595 133.693 125.591C133.537 125.587 133.304 125.583 133.174 125.583C133.045 125.583 132.808 125.585 132.648 125.589C132.488 125.592 132.099 125.612 131.784 125.634C131.469 125.655 131.094 125.686 130.95 125.702C130.806 125.718 130.567 125.748 130.418 125.769C130.269 125.789 130.018 125.827 129.86 125.853C129.703 125.88 129.443 125.927 129.283 125.958C129.124 125.99 128.888 126.04 128.759 126.069C128.63 126.098 128.409 126.152 128.268 126.187C128.127 126.223 127.841 126.302 127.632 126.363C127.423 126.424 127.137 126.512 126.996 126.56C126.855 126.607 126.638 126.683 126.514 126.728C126.39 126.773 126.164 126.86 126.012 126.922C125.859 126.983 125.649 127.07 125.545 127.116C125.442 127.161 125.246 127.25 125.11 127.314C124.975 127.378 124.769 127.479 124.652 127.539C124.536 127.599 124.362 127.692 124.265 127.745C124.168 127.798 123.989 127.9 123.868 127.972C123.747 128.043 123.56 128.158 123.453 128.226C123.345 128.295 123.156 128.42 123.033 128.505C122.91 128.589 122.717 128.727 122.605 128.811C122.494 128.895 122.311 129.038 122.2 129.13C122.088 129.221 121.924 129.36 121.835 129.439C121.747 129.518 121.599 129.654 121.507 129.742C121.415 129.83 121.286 129.959 121.219 130.029C121.152 130.099 121.036 130.224 120.962 130.307C120.887 130.391 120.763 130.537 120.685 130.633C120.608 130.729 120.5 130.867 120.445 130.94C120.391 131.013 120.289 131.16 120.218 131.267C120.147 131.373 120.047 131.531 119.996 131.616C119.945 131.702 119.862 131.852 119.81 131.949C119.759 132.046 119.665 132.242 119.603 132.385C119.541 132.527 119.462 132.721 119.429 132.816C119.395 132.912 119.347 133.061 119.321 133.147C119.296 133.234 119.254 133.392 119.23 133.499C119.205 133.605 119.171 133.778 119.155 133.883C119.138 133.987 119.117 134.153 119.108 134.251C119.099 134.349 119.089 134.506 119.085 134.601C119.082 134.695 119.091 134.939 119.105 135.143C119.119 135.347 119.145 135.598 119.164 135.701C119.183 135.804 119.214 135.955 119.234 136.038C119.254 136.121 119.294 136.27 119.324 136.371C119.354 136.471 119.416 136.648 119.46 136.764C119.505 136.88 119.574 137.046 119.615 137.132C119.655 137.219 119.719 137.349 119.757 137.422C119.794 137.495 119.892 137.663 119.973 137.796C120.054 137.928 120.173 138.11 120.237 138.199C120.301 138.288 120.404 138.425 120.466 138.503C120.528 138.581 120.644 138.718 120.722 138.807C120.801 138.896 120.922 139.027 120.992 139.099C121.063 139.171 121.193 139.299 121.283 139.383C121.373 139.468 121.526 139.605 121.623 139.687C121.721 139.77 121.87 139.891 121.954 139.956C122.039 140.021 122.157 140.11 122.218 140.154C122.278 140.198 122.397 140.282 122.481 140.339C122.565 140.397 122.699 140.487 122.78 140.539C122.861 140.591 123.073 140.719 123.252 140.822C123.449 140.937 123.691 141.068 123.869 141.158C124.031 141.24 124.274 141.356 124.41 141.418C124.546 141.48 124.742 141.565 124.845 141.608C124.949 141.651 125.149 141.73 125.29 141.784C125.432 141.837 125.667 141.922 125.814 141.971C125.961 142.02 126.151 142.082 126.236 142.108C126.321 142.133 126.477 142.179 126.582 142.209C126.687 142.239 126.872 142.289 126.991 142.319C127.111 142.35 127.341 142.404 127.501 142.44C127.661 142.475 127.904 142.526 128.04 142.552C128.176 142.578 128.414 142.619 128.569 142.643C128.723 142.667 128.954 142.701 129.082 142.718C129.211 142.735 129.416 142.759 129.539 142.772C129.662 142.785 129.885 142.806 130.035 142.818C130.184 142.83 130.434 142.846 130.59 142.854C130.746 142.862 130.972 142.871 131.093 142.873C131.213 142.876 131.436 142.879 131.588 142.879C131.74 142.879 131.977 142.876 132.114 142.873C132.252 142.87 132.627 142.849 132.947 142.827C133.268 142.806 133.663 142.772 133.825 142.753C133.987 142.735 134.239 142.702 134.384 142.682C134.529 142.661 134.775 142.623 134.931 142.597C135.086 142.571 135.345 142.522 135.507 142.49C135.669 142.457 135.912 142.404 136.047 142.373C136.183 142.341 136.387 142.292 136.502 142.263C136.616 142.234 136.881 142.16 137.089 142.099C137.298 142.038 137.584 141.949 137.726 141.902C137.867 141.855 138.084 141.779 138.207 141.734C138.331 141.689 138.557 141.601 138.71 141.54C138.863 141.479 139.07 141.393 139.17 141.349C139.27 141.305 139.455 141.221 139.58 141.162C139.704 141.103 139.873 141.022 139.954 140.981C140.034 140.941 140.171 140.87 140.256 140.825C140.342 140.78 140.5 140.693 140.608 140.632C140.715 140.571 140.869 140.481 140.949 140.433C141.029 140.385 141.173 140.296 141.269 140.235C141.365 140.175 141.565 140.041 141.714 139.939C141.878 139.827 142.101 139.663 142.276 139.526C142.436 139.401 142.649 139.228 142.749 139.141C142.849 139.054 143.001 138.917 143.087 138.837C143.173 138.756 143.303 138.63 143.376 138.557C143.449 138.483 143.559 138.369 143.62 138.304C143.681 138.238 143.78 138.128 143.841 138.059C143.901 137.99 144.003 137.869 144.067 137.79C144.131 137.711 144.222 137.595 144.27 137.532C144.317 137.469 144.409 137.342 144.474 137.25C144.539 137.158 144.641 137.005 144.701 136.91C144.76 136.814 144.852 136.661 144.904 136.569C144.956 136.477 145.029 136.343 145.066 136.27C145.103 136.198 145.175 136.046 145.226 135.932C145.277 135.818 145.35 135.643 145.387 135.542C145.424 135.442 145.478 135.286 145.506 135.196L145.557 135.032L148.544 134.827L151.532 134.622L152.151 135.432L152.77 136.243L158.622 135.842C163.165 135.531 164.497 135.436 164.577 135.418C164.633 135.405 164.719 135.378 164.768 135.359C164.835 135.331 164.888 135.3 165.001 135.22C165.123 135.133 165.155 135.106 165.205 135.043C165.237 135.003 165.281 134.932 165.302 134.886C165.322 134.84 165.345 134.766 165.351 134.723C165.357 134.679 165.357 134.613 165.351 134.576C165.345 134.539 165.326 134.479 165.308 134.441C165.29 134.404 165.258 134.351 165.236 134.325C165.214 134.299 164.791 133.845 164.296 133.318C163.801 132.79 163.377 132.344 163.355 132.327C163.332 132.31 163.298 132.272 163.28 132.242C163.259 132.21 163.243 132.15 163.239 132.094C163.235 132.042 163.239 131.965 163.247 131.923C163.255 131.881 163.279 131.798 163.3 131.739L163.339 131.631L164.122 130.527C164.553 129.919 164.918 129.393 164.934 129.358C164.95 129.324 164.968 129.26 164.975 129.217C164.981 129.175 164.982 129.116 164.978 129.087L164.97 129.034L164.423 128.73ZM137.799 130.265C137.987 130.373 138.202 130.503 138.285 130.56C138.367 130.617 138.483 130.699 138.542 130.743C138.601 130.787 138.719 130.882 138.804 130.954C138.888 131.026 139.024 131.153 139.106 131.237C139.187 131.32 139.286 131.428 139.326 131.475C139.365 131.522 139.437 131.615 139.486 131.68C139.535 131.745 139.605 131.846 139.643 131.903C139.68 131.96 139.71 132.01 139.711 132.014C139.711 132.018 138.001 132.138 135.91 132.282C133.819 132.425 132.044 132.552 131.966 132.563C131.888 132.574 131.76 132.595 131.68 132.611C131.601 132.627 131.453 132.664 131.353 132.693C131.252 132.723 131.106 132.773 131.029 132.805C130.951 132.836 130.844 132.885 130.791 132.912C130.738 132.94 130.649 132.989 130.594 133.023C130.539 133.056 130.456 133.112 130.41 133.147C130.363 133.182 130.29 133.243 130.247 133.283C130.204 133.323 130.141 133.387 130.106 133.425C130.072 133.464 130.014 133.539 129.977 133.593C129.94 133.647 129.885 133.748 129.855 133.817C129.824 133.885 129.79 133.985 129.778 134.038C129.765 134.091 129.752 134.174 129.748 134.222C129.744 134.271 129.747 134.372 129.754 134.447C129.761 134.523 129.779 134.623 129.793 134.671C129.807 134.718 129.835 134.793 129.855 134.837C129.874 134.881 129.916 134.957 129.948 135.007C129.981 135.057 130.037 135.132 130.075 135.174C130.112 135.216 130.177 135.282 130.22 135.32C130.263 135.358 130.341 135.419 130.393 135.455C130.445 135.492 130.528 135.544 130.577 135.571C130.627 135.599 130.716 135.642 130.775 135.668C130.834 135.694 130.928 135.731 130.985 135.751C131.041 135.771 131.154 135.804 131.235 135.825C131.316 135.846 131.453 135.874 131.539 135.887C131.625 135.901 131.764 135.917 131.848 135.924C131.932 135.931 132.069 135.937 132.152 135.937C132.235 135.937 134.018 135.82 136.115 135.677C138.211 135.534 139.932 135.419 139.938 135.422C139.943 135.426 139.917 135.494 139.878 135.574C139.839 135.654 139.781 135.766 139.748 135.822C139.716 135.879 139.664 135.967 139.633 136.017C139.602 136.068 139.519 136.186 139.45 136.28C139.38 136.374 139.263 136.519 139.189 136.601C139.115 136.684 138.995 136.809 138.923 136.879C138.85 136.949 138.739 137.054 138.675 137.111C138.606 137.174 138.418 137.322 138.202 137.483C137.941 137.678 137.796 137.78 137.663 137.863C137.563 137.925 137.408 138.017 137.32 138.067C137.231 138.118 137.088 138.196 137.003 138.241C136.917 138.286 136.744 138.37 136.618 138.429C136.493 138.487 136.284 138.579 136.154 138.631C136.023 138.684 135.818 138.762 135.696 138.805C135.575 138.847 135.346 138.921 135.186 138.967C135.027 139.014 134.806 139.075 134.695 139.102C134.584 139.129 134.393 139.172 134.272 139.197C134.15 139.223 133.929 139.263 133.78 139.287C133.631 139.311 133.405 139.343 133.278 139.358C133.151 139.373 132.893 139.396 132.704 139.408C132.515 139.421 132.26 139.433 132.138 139.436C132.016 139.438 131.792 139.437 131.641 139.433C131.491 139.429 131.266 139.42 131.142 139.411C131.018 139.403 130.823 139.387 130.71 139.375C130.596 139.363 130.368 139.333 130.204 139.308C130.04 139.283 129.803 139.242 129.677 139.216C129.551 139.19 129.337 139.141 129.201 139.106C129.064 139.072 128.845 139.01 128.713 138.969C128.58 138.928 128.398 138.868 128.307 138.835C128.215 138.802 128.063 138.744 127.969 138.706C127.874 138.668 127.712 138.599 127.608 138.552C127.504 138.506 127.297 138.403 127.148 138.324C126.988 138.24 126.794 138.13 126.676 138.055C126.566 137.986 126.4 137.875 126.307 137.809C126.214 137.742 126.061 137.626 125.967 137.549C125.874 137.473 125.752 137.367 125.696 137.314C125.64 137.261 125.557 137.18 125.511 137.132C125.465 137.085 125.386 137.001 125.336 136.945C125.286 136.889 125.194 136.776 125.131 136.695C125.069 136.614 124.961 136.455 124.892 136.344C124.824 136.232 124.734 136.067 124.692 135.977C124.651 135.888 124.602 135.775 124.584 135.726C124.565 135.678 124.527 135.56 124.499 135.464C124.471 135.368 124.435 135.223 124.42 135.141C124.405 135.059 124.385 134.895 124.377 134.776C124.369 134.657 124.366 134.492 124.37 134.409C124.374 134.326 124.389 134.177 124.404 134.078C124.418 133.979 124.447 133.832 124.467 133.75C124.488 133.669 124.525 133.541 124.55 133.466C124.575 133.391 124.635 133.241 124.683 133.132C124.732 133.024 124.81 132.867 124.857 132.783C124.904 132.699 124.993 132.556 125.055 132.465C125.116 132.374 125.224 132.227 125.295 132.138C125.366 132.049 125.47 131.927 125.526 131.865C125.582 131.804 125.679 131.703 125.74 131.641C125.802 131.579 125.922 131.465 126.007 131.387C126.122 131.282 126.251 131.18 126.514 130.982C126.777 130.785 126.915 130.688 127.058 130.599C127.164 130.533 127.321 130.439 127.407 130.391C127.493 130.342 127.633 130.266 127.719 130.221C127.805 130.176 127.977 130.091 128.103 130.032C128.228 129.974 128.437 129.883 128.568 129.83C128.698 129.777 128.904 129.699 129.025 129.657C129.146 129.614 129.376 129.541 129.535 129.494C129.694 129.447 129.915 129.386 130.026 129.359C130.137 129.332 130.327 129.289 130.449 129.264C130.571 129.239 130.792 129.199 130.941 129.175C131.09 129.151 131.312 129.119 131.433 129.105C131.554 129.09 131.813 129.067 132.007 129.054C132.202 129.041 132.478 129.028 132.62 129.026C132.763 129.024 132.978 129.025 133.099 129.028C133.219 129.032 133.396 129.039 133.492 129.045C133.588 129.05 133.766 129.064 133.886 129.075C134.006 129.086 134.248 129.115 134.422 129.14C134.596 129.165 134.856 129.209 134.999 129.237C135.143 129.266 135.355 129.314 135.472 129.343C135.589 129.372 135.774 129.422 135.883 129.454C135.992 129.487 136.148 129.535 136.23 129.562C136.311 129.59 136.476 129.649 136.597 129.695C136.718 129.741 136.894 129.812 136.989 129.854C137.085 129.896 137.23 129.962 137.312 130.001C137.394 130.04 137.613 130.159 137.799 130.265Z" fill="#7DB834"></path><path d="M147.678 118.422C147.678 118.422 147.216 119.807 147.259 120.143C147.301 120.478 148.25 121.79 148.317 121.826C148.384 121.869 149.187 122.894 150.093 123.394C150.999 123.888 151.066 124.133 151.151 124.145C151.236 124.157 151.37 124.071 151.37 124.071C151.37 124.071 151.504 123.126 151.109 122.662C150.713 122.205 151.303 121.521 151.303 121.521L150.281 118.843L147.684 118.428L147.678 118.422Z" fill="#FCD1C5"></path><path d="M157.501 148.077C157.501 148.077 155.895 148.449 154.35 148.504C152.799 148.559 148.578 149.358 148.657 150.877C148.736 152.402 150.902 154.586 153.645 154.916C156.388 155.245 159.928 154.495 161.722 154.544C163.51 154.593 164.775 152.836 164.106 151.14C163.443 149.456 157.495 148.077 157.495 148.077H157.501Z" fill="#32589D"></path><path d="M166.848 144.032C166.848 144.032 167.414 144.954 167.116 145.515C166.818 146.076 166.015 147.473 163.534 146.107C161.058 144.746 156.253 142.788 156.253 142.788C156.253 142.788 153.498 141.342 153.681 139.646C153.863 137.956 156.418 138.225 156.418 138.225L166.848 144.032Z" fill="#32589D"></path><path d="M139.236 83.1123C139.236 83.1123 137.6 83.1367 136.876 82.8072C136.152 82.4778 134.06 81.7884 133.932 81.7213C133.805 81.6542 132.649 81.5749 132.12 81.2333C132.12 81.2333 131.53 81.52 131.998 82.0019C132.467 82.4839 133.349 82.6364 133.349 82.6364L134.176 83.1245C134.176 83.1245 132.497 83.9907 132.345 84.0517C132.193 84.1188 130.788 85.1925 130.642 85.2597C130.502 85.3268 129.87 85.8148 130.113 86.254C130.113 86.254 130.137 86.3517 130.453 86.4188C130.453 86.4188 129.553 86.8275 129.778 87.2728C130.003 87.7182 130.569 87.523 130.569 87.523C130.569 87.523 130.788 88.3221 131.871 87.6999C131.871 87.6999 131.998 88.6882 134.407 87.6572C134.407 87.6572 135.38 87.401 136.092 87.4498C136.803 87.4986 138.743 86.9983 139.783 86.2601C140.817 85.5281 139.242 83.1062 139.242 83.1062L139.236 83.1123Z" fill="#EBB1A1"></path><path d="M136.093 87.4498C136.805 87.4986 138.745 86.9983 139.785 86.2602C140.484 85.766 139.992 84.5093 139.602 83.7406C139.11 83.5027 138.678 83.3075 138.678 83.3075C138.678 83.3075 138.751 85.6989 138.696 86.0589C138.641 86.4188 136.488 86.8458 135.102 87.0471C133.721 87.2485 131.902 87.7853 131.902 87.7853C132.012 88.0049 132.474 88.4808 134.408 87.6511C134.408 87.6511 135.381 87.3949 136.093 87.4437V87.4498Z" fill="#DA9E91"></path><path d="M158.195 78.4636C158.195 78.4636 154.789 79.0615 153.627 79.4336C152.502 79.7935 142.74 81.7335 139.164 82.6059C138.939 82.6608 138.762 82.8438 138.707 83.0818C138.665 83.2709 138.634 83.4905 138.683 83.6796C138.78 84.0822 139.127 88.1391 141.11 87.4742C141.706 87.2728 143.458 86.9068 144.856 86.7238C146.255 86.5408 152.222 86.0771 152.222 86.0771L162.318 80.2816L158.195 78.4636Z" fill="#4846A5"></path><path d="M150.883 119.71C150.883 119.71 151.783 130.886 154.003 135.101C156.247 139.366 156.746 147.119 157.196 148.596C157.652 150.078 159.106 152.207 161.441 152.659C163.783 153.116 164.197 151.573 164.105 150.646C164.008 149.718 163.388 148.218 163.406 147.211C163.418 146.204 163.667 145.735 163.716 145.277C163.716 145.277 166.392 146.058 166.848 144.033C166.848 144.033 166.642 143.441 166.617 143.142C166.587 142.843 167.025 135.473 167.11 134.583C167.195 133.692 166.812 128.836 166.112 126.438C165.419 124.053 165.778 118.971 165.778 118.971L158.029 117.837L150.889 119.716L150.883 119.71Z" fill="#9EBAFF"></path><path d="M163.462 119.758C163.462 119.758 163.395 121.503 162.623 122.967C162.623 122.967 162.513 128.885 161.832 131.868C161.832 131.868 162.708 137.847 163.292 139.726C163.882 141.617 163.717 145.277 163.717 145.277C163.717 145.277 164.022 145.387 164.46 145.405C164.897 145.423 165.092 138.152 164.441 136.858C163.797 135.571 163.401 129.855 163.699 128.11C163.991 126.371 164.009 121.387 164.368 120.509C164.721 119.63 163.973 119.154 163.973 119.154L163.462 119.752V119.758Z" fill="#32589D"></path><path d="M157.678 78.5552C157.678 78.5552 155.349 80.1779 155.415 83.033L157.131 82.6914C157.131 82.6914 156.681 79.5191 157.678 78.5491V78.5552Z" fill="#160A5B"></path><path d="M157.755 122.144C162.895 122.339 165.717 120.13 165.717 120.13C165.741 119.423 165.778 118.959 165.778 118.959L158.029 117.824L150.889 119.703C150.889 119.703 151.065 121.918 151.46 124.743C152.725 124.889 154.015 121.863 154.015 121.863L157.549 122.113C157.549 122.113 152.61 121.942 157.755 122.138V122.144Z" fill="#32589D"></path><path d="M151.881 119.887C151.881 119.887 162.993 124.456 168.588 116.013C168.746 115.775 168.825 115.476 168.825 115.177L168.801 113.188C168.801 112.938 168.844 112.688 168.929 112.45C169.111 111.944 169.166 111.395 169.075 110.858C168.71 108.625 167.706 102.53 167.481 100.828C167.201 98.7542 168.503 90.4513 170.461 86.858C172.402 83.3075 167.822 75.1449 167.822 75.1449C167.822 75.1449 166.691 73.2294 164.379 73.8394C164.379 73.8394 166.538 75.4073 165.304 77.0056C164.063 78.6101 160.438 79.8485 160.438 79.8485C160.438 79.8485 153.711 83.1855 151.364 87.3278C151.364 87.3278 150.549 89.4813 150.433 92.2204C150.324 94.9779 150.524 101.579 150.397 102.494C150.269 103.409 149.819 109.65 149.849 109.936C149.88 110.229 151.874 119.874 151.874 119.874L151.881 119.887Z" fill="#453C9E"></path><path d="M155.268 120.832C155.268 120.832 162.226 103.323 162.044 96.8811C161.861 90.5609 152.106 109.467 152.106 109.467L151.887 119.886C151.887 119.886 153.991 120.667 155.274 120.832H155.268Z" fill="#24126A"></path><path d="M152.038 99.9864C152.306 98.5406 152.47 97.0826 152.507 95.6245C152.58 93.0867 153.37 88.8712 158.005 89.6704C164.543 90.799 161.557 99.84 160.809 101.408C160.055 102.988 157.068 110.083 156.91 110.486C156.764 110.864 152.111 119.655 150.475 121.753C150.323 121.942 150.068 121.973 149.891 121.82C149.247 121.271 147.805 119.966 147.623 119.148C147.392 118.093 148.389 114.274 148.389 114.274C148.389 114.274 151.077 104.69 151.302 104.245C151.467 103.909 151.606 102.323 152.032 99.9803L152.038 99.9864Z" fill="#4846A5"></path><path d="M157.786 78.7627C157.786 78.7627 157.281 77.5669 156.077 77.4205C154.867 77.2802 154.186 76.9325 154.07 76.481C153.955 76.0296 153.961 75.4928 153.675 74.8156C153.395 74.1445 153.17 72.5035 153.176 72.4608C153.176 72.4242 152.264 72.1252 152.221 71.7226C152.185 71.3139 152.683 69.8741 152.635 69.7582C152.586 69.6423 152.1 68.7455 152.179 68.0562C152.258 67.3668 152.361 66.3663 152.744 65.5183C153.127 64.6764 155.797 59.552 162.47 62.346C169.184 65.1645 163.917 70.7526 164.507 74.4374C164.507 74.4374 165.091 75.2182 163.966 76.5115C162.834 77.811 159.635 78.0428 157.786 78.7566V78.7627Z" fill="#EBB1A1"></path><path d="M163.972 76.5176C165.098 75.2242 164.514 74.4434 164.514 74.4434C164.435 73.9309 164.465 73.3819 164.562 72.8084L161.91 73.266C161.91 73.266 158.073 69.7215 158.31 71.5883C158.553 73.4673 157.598 73.7723 157.598 73.7723L158.383 74.8033C158.584 75.0656 158.456 75.3706 158.286 75.6574C157.136 77.5486 154.442 76.9324 154.436 76.9324C154.77 77.1581 155.317 77.3289 156.078 77.4204C157.288 77.5608 157.787 78.7626 157.787 78.7626C159.642 78.0488 162.835 77.817 163.966 76.5176H163.972Z" fill="#DA9E91"></path><path d="M152.495 63.5538C152.495 63.5538 152.002 64.9264 152.751 65.5243C153.505 66.1221 154.186 66.6834 154.186 66.6834L154.156 68.4343C154.156 68.6844 154.216 68.9345 154.35 69.148L155.281 70.6366C155.463 70.9233 155.554 71.2588 155.548 71.6005V72.3142C155.536 72.5216 155.688 72.6986 155.895 72.7291L156.144 72.7596C156.363 72.7901 156.564 72.6254 156.594 72.3996L156.716 71.4113C156.716 71.4113 157.233 70.6244 158.316 71.5944L159.295 72.0153C159.569 72.1312 159.782 72.363 159.879 72.6498C160.14 73.4123 160.7 74.9253 161.138 75.1815C161.728 75.5292 164.063 74.3762 164.38 73.8516C164.696 73.3269 165.553 69.8191 166.07 68.1414C166.587 66.476 166.399 62.3154 161.424 61.1563C156.461 59.9972 153.207 62.0592 152.495 63.5538Z" fill="#373634"></path><path d="M164.381 73.8515C164.697 73.3269 165.554 69.819 166.071 68.1414C166.071 68.1414 164.119 69.392 161.607 69.7275C159.095 70.063 154.175 67.147 154.175 67.147L154.15 68.4281C154.15 68.6782 154.211 68.9283 154.345 69.1419L155.276 70.6304C155.458 70.9171 155.549 71.2527 155.543 71.5943V72.3081C155.531 72.5155 155.683 72.6924 155.89 72.7229L156.139 72.7534C156.358 72.7839 156.559 72.6192 156.589 72.3935L156.711 71.4052C156.711 71.4052 157.228 70.6182 158.311 71.5882L159.728 72.1982C159.728 72.1982 160.543 74.8276 161.133 75.1753C161.723 75.5231 164.058 74.37 164.374 73.8454L164.381 73.8515Z" fill="#575653"></path><path d="M164.472 74.0164C164.472 74.0164 166.375 75.2365 165.378 76.908C164.374 78.5857 157.319 81.4774 156.966 81.9166C156.966 81.9166 156.735 79.391 157.678 78.5552C157.678 78.5552 163.061 77.6035 163.918 76.2492C164.776 74.9009 164.466 74.0164 164.466 74.0164H164.472Z" fill="#F0F6FF"></path><path d="M164.471 74.0164C164.471 74.0164 164.775 74.9009 163.923 76.2492C163.273 77.2741 160.037 78.0671 158.498 78.3966C158.498 78.3966 159.064 78.726 159.982 80.361C162.153 79.2812 164.793 77.8902 165.383 76.9141C166.38 75.2426 164.477 74.0225 164.477 74.0225L164.471 74.0164Z" fill="#C4CCD6"></path><path d="M160.858 91.1406C162.561 96.6494 157.859 105.068 157.16 107.521C156.454 109.997 149.393 121.369 149.387 121.369C149.575 121.54 149.752 121.698 149.892 121.814C150.068 121.967 150.329 121.936 150.475 121.747C152.112 119.649 156.764 110.858 156.91 110.479C157.068 110.077 160.055 102.982 160.809 101.402C161.411 100.145 163.455 94.0506 160.858 91.1345V91.1406Z" fill="#24126A"></path><path d="M165.657 79.4275C165.657 79.4275 162.507 81.154 160.974 81.9348C159.435 82.7157 157.756 83.7589 157.756 83.7589L157.185 83.1732L156.455 84.6923C156.455 84.6923 154.04 86.0832 152.897 87.2545C151.753 88.4319 150.878 89.9754 150.756 90.3292C150.756 90.3292 153.803 86.4858 156.181 85.3694L156.82 85.0583L157.197 83.8565L157.762 84.4727C157.762 84.4727 164.684 80.4707 165.657 79.4275Z" fill="#24126A"></path><path d="M120.151 87.7998C120.151 87.7998 121.325 88.0011 121.756 87.7815C122.188 87.5619 123.307 87.4154 124.609 87.8791C125.911 88.3427 125.801 88.2756 126.318 88.3244C126.829 88.3732 127.668 88.4281 127.936 88.5989C128.21 88.7698 128.72 89.0992 128.246 89.7825C127.766 90.4657 125.984 89.8252 125.692 89.7703C125.4 89.7154 125.083 90.2339 125.229 90.6975C125.375 91.1612 128.07 94.12 128.489 94.4128C128.915 94.7056 130.734 95.9257 130.813 96.4077C130.892 96.8896 130.788 96.9567 130.788 96.9567C130.788 96.9567 131.318 97.4387 131.129 97.884C130.94 98.3294 130.113 97.6461 129.961 97.7498C129.961 97.7498 130.095 98.2439 129.894 98.3355C129.694 98.427 128.514 97.9694 128.368 97.823C128.368 97.823 128.228 98.2073 127.559 97.8108C126.884 97.4143 124.299 95.944 124.001 95.6634C123.697 95.3828 122.681 94.4433 122.261 94.1871C121.842 93.937 121.118 93.0768 120.759 92.7412C120.4 92.4057 118.794 91.5882 118.18 91.4723C117.566 91.3564 120.157 87.7937 120.157 87.7937L120.151 87.7998Z" fill="#FCD1C5"></path><path d="M122.207 93.1377C121.611 92.0518 119.622 91.2099 119.622 91.2099C119.756 90.3253 121.027 87.879 121.027 87.879C120.589 87.8729 120.151 87.7936 120.151 87.7936C120.151 87.7936 117.56 91.3563 118.174 91.4722C118.789 91.5881 120.388 92.4056 120.753 92.7411C121.112 93.0767 121.836 93.9369 122.255 94.187C122.675 94.4371 123.691 95.3827 123.995 95.6633C124.299 95.9439 126.884 97.4142 127.553 97.8107C128.228 98.2073 128.362 97.8229 128.362 97.8229C128.502 97.9632 129.688 98.4269 129.888 98.3354C130.089 98.2439 129.955 97.7497 129.955 97.7497C129.955 97.7497 129.128 97.28 128.271 96.9749C127.419 96.676 122.803 94.2236 122.213 93.1377H122.207Z" fill="#E2B1A6"></path><path d="M118.216 83.8771C118.216 83.8771 118.472 85.207 118.381 86.2868C118.289 87.3727 116.124 85.9513 116.203 85.7683C116.282 85.5791 117.231 83.9503 117.231 83.9503L118.216 83.8832V83.8771Z" fill="#FCD1C5"></path><path d="M108.766 51.2025C108.766 51.2025 109.97 51.1476 111.43 53.5573C112.841 55.8755 115.316 64.1784 116.612 67.3629C116.727 67.6435 116.813 67.9364 116.861 68.2414C117.281 70.7243 119.264 82.4069 119.355 83.8161C119.355 83.8161 117.846 84.8227 116.879 85.0729L114.751 84.3652L112.652 63.184L109.252 52.0017L108.76 51.2147L108.766 51.2025Z" fill="#24126A"></path><path d="M101.953 120.895C101.953 120.895 101.546 122.854 101.771 123.232C101.996 123.61 104.532 126.49 104.8 126.88C105.067 127.27 106.375 129.625 108.784 130.199C111.192 130.772 112.834 130.626 113.157 129.491C113.479 128.356 112.068 126.477 111.411 125.873C110.76 125.269 108.005 121.987 107.506 121.512C107.002 121.036 106.278 120.962 106.278 120.962L103.139 121.512L101.953 120.901V120.895Z" fill="#32589D"></path><path d="M111.69 115.033C111.69 115.033 114.093 115.966 115.346 116.283C116.605 116.601 119.597 118.846 119.56 119.974C119.53 121.103 118.052 121.884 116.556 121.774C115.06 121.664 113.278 120.706 112.992 120.45C112.7 120.194 111.678 119.633 110.449 119.248C109.227 118.864 107.25 118.675 106.922 118.022C106.599 117.369 106.551 116.015 106.551 116.015L111.69 115.039V115.033Z" fill="#32589D"></path><path d="M106.265 114.624C106.284 114.508 106.369 114.313 106.381 114.234C106.49 113.636 106.387 111.214 106.387 111.214L105.858 111.94C105.858 111.94 106.229 114.368 106.953 118.156C107.135 119.12 107.64 120.108 107.713 120.657C107.932 122.28 106.971 122.597 106.971 122.597C105.018 124.074 103.352 123.183 102.75 122.707C102.154 122.231 101.947 121.475 101.114 118.742C100.287 116.027 99.5689 110.293 99.7514 108.932C99.9095 107.73 100.347 104.369 100.323 102.063C100.299 99.7691 98.541 92.4362 98.541 92.4362L105.815 91.0208L110.784 88.4403L114.574 89.0138C114.574 89.0138 115.054 87.4093 115.553 92.4057C116.058 97.4753 112.998 106.449 112.998 106.449C112.189 110.89 111.983 116.003 111.526 116.692C111.064 117.388 109.258 119.022 107.579 117.747C107.269 117.516 106.922 117.272 106.734 117.021L106.259 114.63L106.265 114.624Z" fill="#9EBAFF"></path><path d="M105.859 111.94C105.859 111.94 108.25 105.406 109.387 99.0735C110.5 92.851 112.434 91.9786 113.237 90.8561C113.237 90.8561 114.447 91.4112 115.086 91.521C115.165 91.5332 115.232 91.5393 115.293 91.5393C115.828 91.521 112.617 95.5291 112.039 96.554C111.461 97.585 108.146 106.4 107.915 107.62C107.684 108.841 107.447 117.345 107.714 117.833C107.982 118.321 106.796 117.467 106.796 117.467C106.796 117.467 106.066 115.588 105.859 111.934V111.94Z" fill="#32589D"></path><path d="M112.067 88.6294L110.79 88.4342L105.821 91.0147L98.5469 92.4301C98.5469 92.4301 100.305 99.763 100.329 102.057C100.353 104.363 99.9154 107.724 99.7572 108.926C99.5808 110.274 100.299 116.027 101.12 118.736C101.478 119.919 101.722 120.737 101.929 121.316C102.257 122.86 103.419 123.11 103.419 123.11C103.419 123.11 100.566 114.246 100.816 109.066C101.065 103.954 101.795 99.702 101.661 98.7137C101.661 98.7137 109.945 96.1575 111.502 90.7951C111.745 89.9593 111.928 89.2395 112.067 88.6294Z" fill="#32589D"></path><path d="M97.7201 52.3433C97.7201 52.3433 97.1301 52.8374 97.0024 53.3499C96.8747 53.8562 96.1448 55.6559 96.1448 55.6559C96.1448 55.6559 92.678 60.2679 92.0576 61.6772C91.4312 63.0986 91.2305 64.154 91.2305 64.154L100.402 75.4828C100.402 75.4828 97.191 86.5919 98.085 90.6427C98.9913 94.7423 100.171 96.2674 101.613 96.7127C103.06 97.1581 110.772 93.9736 111.308 89.9106C111.837 85.9025 111.618 85.3901 111.618 85.3901C111.618 85.3901 115.218 86.354 115.449 85.4328C115.675 84.5116 114.993 77.8925 114.811 76.9469C114.628 76.0013 114.069 65.5571 114.069 65.5571C114.069 65.5571 111.873 55.9182 111.745 55.4485C111.618 54.9726 110.255 51.355 108.504 51.1476C106.752 50.9463 104.562 53.7403 104.562 53.7403L97.7079 52.3372L97.7201 52.3433Z" fill="#453C9E"></path><path d="M98.1276 51.9955C98.1276 51.9955 97.7626 52.2395 97.6897 52.6421C97.6106 53.0448 97.3126 53.8379 97.9634 54.6675C98.6202 55.4972 103.9 59.8225 106.04 63.4585C108.2 67.131 110.876 71.2306 111.101 72.0786C111.101 72.0786 112.074 66.2586 111.192 63.5866C110.316 60.9328 107.518 55.5155 106.922 55.1129C106.332 54.7102 102.695 54.3686 102.695 54.3686L98.1215 52.0016L98.1276 51.9955Z" fill="#F0F6FF"></path><path d="M103.589 57.8461C103.589 57.8461 103.304 58.3219 103.218 58.688C103.218 58.688 101.686 57.901 101.041 57.6143L103.395 59.2553C103.395 59.2553 103.535 58.3951 103.65 58.267C103.65 58.267 104.994 59.298 105.183 59.7556C105.371 60.2131 107.859 66.4784 107.859 66.4784L109.167 68.6197L109.501 68.1011L107.366 62.269C107.366 62.269 106.162 60.4327 106.144 60.39C106.126 60.3473 105.311 58.3768 105.311 58.3768L103.583 57.8583L103.589 57.8461Z" fill="#C4CCD6"></path><path d="M103.59 57.8459C103.59 57.8459 104.374 56.3818 105.883 56.4367C105.883 56.4367 106.315 58.2425 106.442 58.9806C106.442 58.9806 105.469 59.4016 105.074 59.0599C104.679 58.7183 103.59 57.8459 103.59 57.8459Z" fill="#160A5B"></path><path d="M106.211 58.5841C106.211 58.5841 110.098 63.3914 111.46 69.1991L111.174 72.1945L109.131 68.5342C109.131 68.5342 105.78 60.1337 105.001 58.5963C104.223 57.0651 106.211 58.578 106.211 58.578V58.5841Z" fill="#160A5B"></path><path d="M99.7636 77.8801C99.5021 78.905 99.198 80.1861 98.9121 81.5527C98.9121 81.5527 104.672 89.093 110.292 92.1616C110.839 91.46 111.216 90.7035 111.32 89.9166C111.599 87.7936 111.672 86.6588 111.672 86.0549L105.14 81.0829L99.7697 77.8801H99.7636Z" fill="#24126A"></path><path d="M99.375 66.8077C99.375 66.8077 101.042 69.0832 101.479 69.2907C101.923 69.4981 105.524 75.8244 106.248 77.0201C106.978 78.2158 108.918 79.8935 108.918 79.8935L107.087 80.0704L99.9163 70.4193L99.375 66.8016V66.8077Z" fill="#24126A"></path><path d="M100.391 68.8147C99.6669 66.9907 98.5356 65.3923 97.082 64.1722C95.4276 62.7813 93.2563 61.4269 92.1068 62.6471C90.0875 64.7884 90.9451 68.8208 93.755 72.5971C96.5954 76.416 101.072 81.8517 102.124 82.7667C103.14 83.6452 111.819 90.1911 116.794 92.6436C117.165 92.8266 117.597 92.6863 117.816 92.3202C118.503 91.1855 119.926 88.8124 120.431 87.8424C120.535 87.6411 120.474 87.391 120.291 87.2751C118.473 86.1037 109.392 80.2472 106.704 78.4231C106.29 78.1425 105.956 77.7643 105.725 77.3067C104.94 75.7694 102.915 71.9809 101.139 70.047C100.822 69.7054 100.579 69.2906 100.403 68.8513C100.403 68.8391 100.391 68.8269 100.391 68.8147Z" fill="#4846A5"></path><path d="M107.068 53.2034L110.243 56.4245L109.422 56.7112L110.468 57.3213C110.468 57.3213 113.011 63.3425 112.457 70.163C112.457 70.163 113.716 64.8006 110.985 57.1931L110.14 56.7661L110.712 56.5831L107.068 53.2034Z" fill="#24126A"></path><path d="M98.0603 51.4464C98.1151 51.5685 98.1516 51.7088 98.1394 51.843C98.1151 52.1297 98.0847 52.6116 98.109 52.8191C98.1455 53.118 100.14 56.4855 104.209 56.516C104.209 56.516 104.696 55.7839 104.793 55.6436C104.793 55.6436 106.441 55.5643 107.129 54.9665C107.816 54.3625 107.39 53.3132 107.39 53.3132L107.488 52.0504C107.5 51.8979 107.567 51.7576 107.676 51.6539C107.822 51.5135 108.011 51.3122 108.047 51.1658C108.084 51.0133 107.986 50.751 107.907 50.5741C107.853 50.452 107.828 50.3239 107.846 50.1897C107.883 49.8725 107.913 49.1892 107.688 48.3474C107.621 48.1033 107.621 47.8471 107.688 47.6031C107.792 47.2004 107.932 46.6087 107.95 46.3952C107.974 46.0657 107.415 45.1873 107.39 44.8395C107.366 44.4918 106.885 43.3205 106.885 43.3205C106.885 43.3205 103.857 37.6836 98.9726 40.1238C94.0522 42.5823 96.6189 47.8593 97.2271 49.3539C97.2271 49.3539 97.817 50.568 97.9204 50.8425C98.0056 51.0682 97.9448 51.1902 98.0664 51.4525L98.0603 51.4464Z" fill="#FCD1C5"></path><path d="M107.318 43.9123C107.36 44.3088 107.208 44.7053 106.91 44.9677C106.32 45.4923 105.14 46.3525 103.583 46.5599C102.488 46.7063 101.886 46.7612 101.564 46.7795C101.345 46.7917 101.169 46.9687 101.156 47.1944C101.132 47.6031 101.096 48.2254 101.035 48.6463C101.01 48.8171 100.962 48.9757 100.889 49.1283L100.542 49.8664C100.457 50.0494 100.268 50.1592 100.068 50.147H99.9887C99.7697 50.1226 99.5934 49.9518 99.5629 49.7322V49.7017C99.4839 49.1222 99.1433 48.6097 98.6263 48.3657C98.3648 48.2437 98.0728 48.1888 97.7748 48.3108C96.9355 48.6585 97.2822 49.476 97.2822 49.476C97.2822 49.476 96.2604 48.2437 95.7981 46.6087C95.342 44.9799 95.4453 42.0272 97.5741 40.4837C99.6907 38.9464 102.458 38.3241 104.818 39.9896C106.764 41.3622 107.22 43.0216 107.318 43.9123Z" fill="#AA8383"></path><path d="M99.2661 50.8182C99.1566 50.6901 99.2965 51.8126 98.1409 51.8492C98.1166 52.1359 98.0862 52.6178 98.1105 52.8253C98.147 53.1242 100.142 56.4917 104.211 56.5222C104.211 56.5222 104.697 55.7901 104.795 55.6498C104.795 55.6498 101.06 53.8318 100.397 53.0022C99.7344 52.1786 99.3695 50.9524 99.2661 50.8243V50.8182Z" fill="#E2B1A6"></path><path d="M105.883 56.4366C105.883 56.4366 106.99 56.5647 107.507 56.8393C107.507 56.8393 107.653 56.2658 107.361 55.6375C107.361 55.6375 107.689 55.9059 107.689 57.2297C107.689 57.2297 106.065 56.6989 105.938 56.6623L105.883 56.4244V56.4366Z" fill="#C4CCD6"></path><path d="M118.259 91.4234C118.259 91.4234 108.832 85.9878 105.639 83.8221C102.464 81.6686 93.5356 72.5299 91.7109 69.016C92.1793 70.1934 92.8726 71.4074 93.7545 72.597C96.5949 76.416 101.071 81.8516 102.124 82.7667C103.139 83.6452 111.818 90.1911 116.794 92.6435C117.165 92.8265 117.596 92.6862 117.815 92.3202C117.949 92.1006 118.107 91.8321 118.284 91.5393C118.266 91.4722 118.253 91.4295 118.253 91.4295L118.259 91.4234Z" fill="#24126A"></path><path d="M96.584 55.9426L100.89 62.0859L101.997 61.6894L102.058 62.8607C102.058 62.8607 107.209 66.7101 111.066 74.708C111.066 74.708 105.963 66.4722 101.906 63.727L101.535 62.5495L100.671 62.7509L96.584 55.9426Z" fill="#24126A"></path><path d="M96.2002 47.3958C96.1516 47.3775 96.109 47.3653 96.0664 47.3531C96.5712 48.6037 97.2889 49.47 97.2889 49.47C97.2889 49.47 96.9422 48.6525 97.7816 48.3048C98.0735 48.1827 98.3715 48.2377 98.6331 48.3597C99.15 48.6037 99.4846 49.1222 99.5636 49.6957V49.7262C99.6001 49.9519 99.7765 50.1227 99.9955 50.1349H100.075C100.269 50.1593 100.458 50.0434 100.549 49.8604L100.896 49.1222C100.969 48.9697 101.017 48.805 101.042 48.6403C101.102 48.2194 101.139 47.5971 101.163 47.1884C101.163 47.1884 98.2925 48.1217 96.2063 47.3897L96.2002 47.3958Z" fill="#936D6D"></path><defs><linearGradient id="paint0_linear_276_6808" x1="182.271" y1="105.514" x2="55.5148" y2="207.158" gradientUnits="userSpaceOnUse"><stop stop-color="#BCD5FF"></stop><stop offset="0.151" stop-color="#A3BEFF"></stop><stop offset="0.3866" stop-color="#82A0FF"></stop><stop offset="0.6124" stop-color="#6A8AFF"></stop><stop offset="0.8221" stop-color="#5C7DFF"></stop><stop offset="1" stop-color="#5778FF"></stop></linearGradient><linearGradient id="paint1_linear_276_6808" x1="206.227" y1="136.522" x2="29.9146" y2="81.4547" gradientUnits="userSpaceOnUse"><stop stop-color="#C0D6FF"></stop><stop offset="0.2978" stop-color="#C5DBFF"></stop><stop offset="0.6488" stop-color="#D3E9FF"></stop><stop offset="1" stop-color="#E9FFFF"></stop></linearGradient></defs></svg> 